<svg width="383" height="375" viewBox="0 0 383 375" fill="none" xmlns="http://www.w3.org/2000/svg">
<mask id="mask0_508_6" style="mask-type:alpha" maskUnits="userSpaceOnUse" x="4" y="0" width="375" height="375">
<rect x="4" width="375" height="375" fill="#C4C4C4"/>
<rect x="4" width="375" height="375" stroke="black"/>
</mask>
<g mask="url(#mask0_508_6)">
<path fill-rule="evenodd" clip-rule="evenodd" d="M4 76.5694C86.4745 76.5694 153.333 6.38748 153.333 -80.1864C153.333 -166.76 86.4745 -236.942 4 -236.942C-78.4745 -236.942 -145.333 -166.76 -145.333 -80.1864C-145.333 6.38748 -78.4745 76.5694 4 76.5694ZM4 154.947C127.712 154.947 228 49.6744 228 -80.1864C228 -210.047 127.712 -315.32 4 -315.32C-119.712 -315.32 -220 -210.047 -220 -80.1864C-220 49.6744 -119.712 154.947 4 154.947Z" fill="#4838D1"/>
<path d="M428 163.076C428 199.282 398.003 228.632 361 228.632C323.997 228.632 294 199.282 294 163.076C294 126.871 323.997 97.5205 361 97.5205C398.003 97.5205 428 126.871 428 163.076Z" fill="#F77A55"/>
</g>
</svg>
