<svg width="195" height="186" viewBox="0 0 195 186" fill="none" xmlns="http://www.w3.org/2000/svg">
<path d="M180.665 184.243C200.628 171.503 201.933 109.744 163.325 95.2876C124.717 80.8314 131.87 44.3528 99.3899 17.0846C69.7849 -7.77097 20.8048 13.2989 4.49226 77.9387C-7.14026 124.031 6.43226 181.85 15.6948 184.243H180.665Z" fill="#1C1C4D"/>
<path d="M104.87 71.2229C105.655 73.8346 106.818 79.61 101.218 82.4579C97.7425 84.2239 91.9675 82.4828 91.4675 79.9707C90.9675 77.4585 89.625 71.1234 92.9875 68.4695C95.82 66.2633 103.123 65.4002 104.87 71.2229Z" fill="#7466E3"/>
<path d="M110.135 90.1367L123.212 102.28C123.212 102.28 130.947 107.344 134.927 109.941C134.647 111.127 134.395 112.334 134.215 113.545C130.627 112.087 123 109.003 119.965 106.919C115.465 103.837 106.547 95.9397 106.547 95.9397L110.135 90.1367Z" fill="#FEECE7"/>
<path d="M109.57 132.806L109.872 133.041C109.872 133.041 109.94 132.733 109.57 132.806Z" fill="#4838D1"/>
<path d="M107.105 134.34L107.337 134.169C108.617 133.174 109.257 132.846 109.587 132.793L96.8924 123.039C96.8924 123.039 96.7149 123.188 96.3924 123.489C95.9674 123.897 95.2849 124.563 94.3924 125.352C92.4624 127.038 89.665 129.299 86.7725 131.759L107.105 134.34Z" fill="#6E62DB"/>
<path d="M102.892 134.371L118.78 132.53C118.742 130.262 118.65 128.354 118.445 127.16C117.752 123.101 109.945 116.312 109.945 116.312L97.3098 119.82L96.4273 119.959C96.4423 121.976 96.3173 123.421 96.3648 123.484C97.8223 125.436 101.757 130.393 102.152 131.334C102.29 131.637 102.545 132.744 102.892 134.371Z" fill="#948BE4"/>
<path d="M86.7349 83.918C86.7349 83.918 91.9324 88.1465 94.0175 87.6888L89.0399 96.6085C89.0399 96.6085 81.7699 90.9324 80.8499 89.8529C80.8499 89.8529 83.9874 84.4751 86.7349 83.918Z" fill="#F45424"/>
<path d="M94.9199 117.119C96.2149 119.964 96.3649 123.491 96.3649 123.491C99.4449 123.168 110.062 121.128 111.56 117.295C111.612 117.158 105.897 111.99 105.54 109.234C105.012 105.17 106.062 97.6405 106.212 97.2077C106.462 96.4789 109.095 98.9638 109.095 98.9638C111.01 98.3469 113.93 92.4967 113.93 92.4967C113.93 92.4967 106.82 86.1267 105.32 85.7959C103.82 85.4651 93.1648 87.7136 93.1573 87.7161C92.3798 87.9076 90.9073 90.3726 90.5173 91.1238C86.1423 99.71 90.9523 108.396 94.9199 117.119Z" fill="#F77A55"/>
<path d="M97.8724 82.5251C97.8724 82.5251 97.9699 86.5819 98.4574 88.0842C98.9449 89.5865 99.0174 91.8151 95.7524 92.5613C92.4873 93.3075 94.0398 89.2731 94.0173 87.7012C93.9948 86.1292 93.0498 81.4556 93.0498 81.4556L97.8724 82.5251Z" fill="#FEECE7"/>
<path d="M93.4923 83.8062C93.2648 82.5208 93.0498 81.4541 93.0498 81.4541L97.8723 82.5357C97.8723 82.5357 97.8923 83.3661 97.9598 84.4129C96.1273 85.2011 94.5823 84.8008 93.4923 83.8062Z" fill="#AA2D08"/>
<path d="M97.4849 70.3152C98.8314 70.792 99.9626 71.7314 100.675 72.9642C101.82 75.0012 102.292 80.7965 97.8774 83.1769C93.4624 85.5572 90.4449 81.5403 90.6524 77.8442C90.8599 74.1481 92.0074 69.2755 97.4849 70.3152Z" fill="#FEECE7"/>
<path d="M89.7674 76.6204C90.0649 77.5356 90.7424 78.1399 91.2674 77.9658C91.7924 77.7918 91.9974 76.9114 91.7024 75.9962C91.4074 75.081 90.7274 74.4767 90.2024 74.6483C89.6774 74.8199 89.4724 75.7027 89.7674 76.6204Z" fill="#FEECE7"/>
<path d="M100.168 78.2702C99.7926 79.2107 100.005 80.1761 100.643 80.4274C101.28 80.6787 102.1 80.1214 102.475 79.1834C102.85 78.2454 102.638 77.28 102 77.0287C101.363 76.7774 100.54 77.3397 100.168 78.2702Z" fill="#FEECE7"/>
<path d="M101.62 66.6939C100.608 64.2439 95.7426 55.5011 101.188 52.7377C106.633 49.9744 109.915 55.8145 110.325 46.3828C110.705 37.6449 120.458 37.7942 122.773 43.5771C123.599 43.2256 124.499 43.0805 125.395 43.1543C128.593 43.403 130.958 46.3479 130.683 49.7082C130.64 50.243 130.905 50.6708 130.743 51.1533C132.263 53.5063 132.77 56.5955 131.76 60.2344C129.01 70.1835 120.703 63.3734 117.168 65.0349C113.633 66.6964 116.983 68.7658 114.528 72.0564C112.073 75.3471 109.31 75.5909 102.1 71.1859L100.263 69.9224C100.263 69.9224 102.633 69.1314 101.62 66.6939Z" fill="#7466E3"/>
<path d="M84.4675 139.771L126.445 139.945C129.105 139.962 131.664 138.937 133.569 137.091C135.475 135.244 136.572 132.726 136.625 130.08L137.797 42.6844C137.812 41.3812 137.566 40.088 137.074 38.8801C136.582 37.6722 135.854 36.5735 134.932 35.6478C134.01 34.7222 132.912 33.9881 131.702 33.4881C130.492 32.9881 129.195 32.7322 127.885 32.7352L85.9074 32.5686C83.2479 32.5504 80.6883 33.5757 78.7832 35.4221C76.8782 37.2686 75.7812 39.7876 75.73 42.4332C75.6825 46.0074 74.5824 127.819 74.5549 129.829C74.5417 131.132 74.7885 132.424 75.2809 133.631C75.7734 134.838 76.5018 135.935 77.4238 136.86C78.3459 137.785 79.4433 138.518 80.6524 139.018C81.8615 139.518 83.1582 139.773 84.4675 139.771ZM78.6825 123.064C78.7075 121.298 79.5049 61.8589 79.7674 42.2267C79.8009 40.7027 80.4355 39.2529 81.5343 38.1904C82.6331 37.1279 84.1078 36.5381 85.64 36.5483L128.047 36.7224C128.803 36.721 129.551 36.8689 130.249 37.1574C130.946 37.4459 131.579 37.8693 132.111 38.4031C132.643 38.9368 133.063 39.5703 133.347 40.2668C133.631 40.9633 133.773 41.709 133.765 42.4606L132.68 123.297C132.65 124.824 132.017 126.277 130.917 127.342C129.818 128.407 128.342 128.998 126.807 128.988L84.4 128.812C83.6442 128.813 82.8957 128.666 82.1978 128.377C81.4999 128.089 80.8666 127.665 80.3346 127.131C79.8027 126.597 79.3827 125.963 79.0991 125.266C78.8155 124.569 78.6738 123.823 78.6825 123.071V123.064Z" fill="#DDD7FC"/>
<path d="M134.918 111.611C135.364 111.689 135.803 111.8 136.233 111.942L136.188 111.898L135.115 111.315C134.115 110.967 134.318 110.176 135.203 110.338C135.693 110.421 136.175 110.546 136.643 110.713C136.643 110.713 134.92 109.873 134.86 109.674C134.668 109.022 135.67 108.771 136.96 109.748C138.093 110.604 137.6 112.908 137.425 113.48C137.355 113.953 137.148 114.395 136.83 114.753L136.213 113.557C136.213 113.557 135.668 112.691 134.83 112.597C133.993 112.502 134.033 111.452 134.918 111.611Z" fill="#FEECE7"/>
<path d="M54.5423 41.3227C52.9423 40.4696 52.4173 38.3379 53.3723 36.5645C54.3273 34.791 56.3998 34.0423 57.9998 34.893C59.5998 35.7437 60.1248 37.8778 59.1698 39.6512C58.2148 41.4247 56.1423 42.1734 54.5423 41.3227Z" fill="#1C155B"/>
<path d="M81.878 50.4425L80.6981 52.6354C80.434 53.1262 79.9848 53.4926 79.4492 53.6539C78.9136 53.8152 78.3355 53.7582 77.8421 53.4954L75.5741 52.2876L78.7455 46.3932L81.0135 47.6011C81.2578 47.7312 81.474 47.9079 81.6496 48.1211C81.8253 48.3343 81.957 48.5799 82.0373 48.8437C82.1176 49.1076 82.1448 49.3846 82.1175 49.6589C82.0901 49.9332 82.0088 50.1995 81.878 50.4425Z" fill="#1C155B"/>
<path d="M66.6673 58.4761C67.1498 57.7125 68.5548 56.7574 69.3048 56.4365C70.0548 56.1157 73.4298 55.0138 74.1323 55.6903C74.8348 56.3669 72.0498 59.7993 72.1748 60.8116C72.2998 61.8239 79.4098 75.8469 81.0248 78.5655C81.8198 79.9061 83.9423 82.2292 85.8898 84.2389C84.3098 85.0472 82.7198 87.0693 81.7598 88.4672C78.9423 85.4327 75.9398 81.968 75.1098 80.1499C73.4298 76.4588 66.1823 59.2372 66.6673 58.4761Z" fill="#FEECE7"/>
<path d="M64.845 57.2791L73.6825 49.3896L76.155 51.8246L68.79 59.8981C68.6527 60.0494 68.4693 60.1517 68.2679 60.1895C68.0665 60.2272 67.8583 60.1982 67.675 60.107L65.055 58.8137C64.9174 58.7459 64.7985 58.6455 64.7089 58.5214C64.6192 58.3973 64.5615 58.2532 64.5408 58.1018C64.5201 57.9504 64.537 57.7962 64.59 57.6528C64.6431 57.5094 64.7306 57.3811 64.845 57.2791Z" fill="#6E62DB"/>
<path d="M58.3198 48.0242C62.0889 47.5563 65.9111 48.2628 69.2598 50.0464L76.1873 53.7351L77.8123 51.994C78.8 50.94 79.4945 49.6481 79.8273 48.2456L80.3773 45.9399L73.4398 42.2686C70.0933 40.4844 67.3855 37.7113 65.6898 34.3316L62.6448 28.2725L51.5698 48.865L58.3198 48.0242Z" fill="#F77A55"/>
<path d="M62.295 43.8503C60.3475 43.4573 55.61 45.6087 52.4574 47.203L51.5649 48.8645L58.315 48.0238C62.0841 47.5559 65.9063 48.2624 69.255 50.0459L76.1825 53.7344L77.8075 51.9933C78.7952 50.9394 79.4897 49.6476 79.8226 48.2452L80.3726 45.9395C80.3726 45.9395 78.3725 48.8844 76.0225 49.5882C73.6725 50.2921 65.32 44.4621 62.295 43.8503Z" fill="#F45424"/>
<path d="M49.4324 48.8122L61.3574 26.648C61.4165 26.5382 61.4967 26.4411 61.5935 26.3621C61.6903 26.2832 61.8018 26.2241 61.9216 26.188C62.0414 26.152 62.1672 26.1398 62.2917 26.1521C62.4163 26.1645 62.5371 26.2011 62.6474 26.26C62.8698 26.3791 63.0357 26.5811 63.1088 26.8216C63.1819 27.0621 63.1562 27.3217 63.0374 27.5434L51.1124 49.7076C50.9927 49.9289 50.7897 50.0939 50.548 50.1666C50.3062 50.2393 50.0453 50.2138 49.8224 50.0956C49.7121 50.0369 49.6145 49.9571 49.5351 49.8607C49.4558 49.7644 49.3963 49.6535 49.3601 49.5343C49.3239 49.4151 49.3116 49.29 49.324 49.1661C49.3364 49.0422 49.3733 48.9219 49.4324 48.8122Z" fill="white"/>
<path d="M71.4424 56.9907C72.7874 55.4163 73.5049 54.5732 73.8974 54.2325L73.7824 53.4715C73.8549 52.3498 74.5324 52.9094 74.7399 53.0934C74.7399 53.0934 75.1924 54.3519 75.0974 54.5484C75.0974 54.5484 74.1124 56.6251 73.6674 57.4334C73.4474 57.8338 72.7024 58.9878 72.7024 58.9878L71.4424 56.9907Z" fill="#FEECE7"/>
<path d="M69.4272 52.6925C70.3047 53.1403 70.4472 56.5307 70.1222 56.8839C69.7972 57.2372 68.8447 54.6999 68.5522 54.8939C68.3247 55.0407 69.8022 57.0307 69.3397 57.2421C69.0172 57.3889 67.6972 55.9461 67.4872 56.0357C67.1597 56.1775 68.4872 57.6725 68.0897 57.8018C67.6297 57.951 65.5697 56.3765 65.5447 56.2745C65.5197 56.1725 65.6922 55.5706 66.7072 54.782C67.1425 54.4381 67.5436 54.0532 67.9047 53.6328C68.2272 53.2845 68.9422 52.4463 69.4272 52.6925Z" fill="#FEECE7"/>
<path d="M166.855 76.1106L164.81 74.5684L162.375 75.3719C162.313 75.3917 162.246 75.394 162.182 75.3784C162.119 75.3629 162.061 75.3301 162.014 75.2838C161.968 75.2374 161.936 75.1793 161.921 75.1158C161.906 75.0523 161.909 74.986 161.93 74.9241L162.773 72.5113L161.255 70.4567C161.216 70.404 161.192 70.3415 161.187 70.2761C161.181 70.2108 161.195 70.1452 161.225 70.087C161.255 70.0287 161.301 69.98 161.358 69.9464C161.414 69.9128 161.479 69.8957 161.545 69.897L164.11 69.9493L165.61 67.8772C165.648 67.8236 165.701 67.7819 165.762 67.7566C165.823 67.7313 165.889 67.7235 165.954 67.7341C166.02 67.7447 166.08 67.7734 166.13 67.8167C166.18 67.86 166.216 67.9163 166.235 67.9792L166.985 70.4218L169.43 71.198C169.493 71.2181 169.548 71.2552 169.591 71.305C169.633 71.3549 169.661 71.4156 169.67 71.4803C169.68 71.545 169.671 71.611 169.645 71.671C169.619 71.731 169.577 71.7825 169.523 71.8198L167.418 73.2774L167.433 75.8296C167.435 75.8971 167.417 75.9638 167.382 76.0217C167.347 76.0796 167.296 76.1262 167.235 76.1559C167.174 76.1855 167.106 76.1971 167.038 76.189C166.971 76.181 166.907 76.1538 166.855 76.1106Z" fill="#F77A55"/>
<path d="M109.57 25.3102L107.523 23.7655L105.083 24.5689C105.02 24.5891 104.953 24.5914 104.889 24.5758C104.825 24.5602 104.767 24.5272 104.72 24.4805C104.674 24.4337 104.642 24.3752 104.627 24.3113C104.613 24.2474 104.616 24.1807 104.638 24.1187L105.483 21.7059L103.96 19.6438C103.922 19.5907 103.899 19.5281 103.894 19.4628C103.889 19.3976 103.903 19.3323 103.933 19.2743C103.963 19.2163 104.009 19.1678 104.066 19.1342C104.122 19.1006 104.187 19.0832 104.253 19.0841L106.82 19.1363L108.32 17.0618C108.358 17.0082 108.411 16.9664 108.472 16.9411C108.533 16.9158 108.599 16.9081 108.665 16.9187C108.73 16.9293 108.79 16.9579 108.84 17.0012C108.89 17.0446 108.926 17.1009 108.945 17.1638L109.695 19.6114L112.143 20.3875C112.205 20.4076 112.261 20.4447 112.303 20.4946C112.346 20.5445 112.373 20.6052 112.383 20.6699C112.392 20.7345 112.384 20.8006 112.358 20.8606C112.331 20.9206 112.289 20.9721 112.235 21.0094L110.128 22.472L110.143 25.0266C110.143 25.0931 110.125 25.1584 110.091 25.2151C110.056 25.2718 110.006 25.3176 109.946 25.3473C109.886 25.3769 109.819 25.3891 109.753 25.3826C109.686 25.376 109.623 25.3509 109.57 25.3102Z" fill="#948BE4"/>
<path d="M58.3598 98.6877L56.1297 96.5262L53.0697 97.1306C52.9914 97.1454 52.9105 97.1384 52.836 97.1101C52.7615 97.0819 52.6963 97.0336 52.6478 96.9706C52.5994 96.9076 52.5694 96.8325 52.5613 96.7536C52.5533 96.6746 52.5675 96.5951 52.6022 96.5237L53.9797 93.7453L52.4572 91.0416C52.418 90.9723 52.3992 90.8934 52.4028 90.8139C52.4064 90.7345 52.4323 90.6576 52.4776 90.5921C52.5229 90.5265 52.5858 90.4749 52.6591 90.4432C52.7324 90.4114 52.8131 90.4007 52.8922 90.4123L55.9747 90.855L58.0873 88.5816C58.1417 88.5236 58.2113 88.4818 58.2883 88.4609C58.3653 88.44 58.4466 88.4408 58.5232 88.4633C58.5997 88.4857 58.6684 88.5289 58.7217 88.588C58.775 88.6472 58.8107 88.7199 58.8248 88.798L59.3523 91.85L62.1798 93.1484C62.2525 93.1815 62.3144 93.2343 62.3585 93.3007C62.4025 93.3671 62.427 93.4444 62.4291 93.524C62.4311 93.6035 62.4108 93.682 62.3702 93.7506C62.3297 93.8192 62.2706 93.8751 62.1998 93.912L59.4498 95.3546L59.0848 98.4315C59.075 98.5104 59.0434 98.585 58.9935 98.647C58.9435 98.709 58.8772 98.756 58.8019 98.7826C58.7266 98.8092 58.6453 98.8144 58.5673 98.7976C58.4892 98.7809 58.4173 98.7428 58.3598 98.6877Z" fill="#F77A55"/>
<path d="M71.9124 13.008C71.8735 12.5095 72.033 12.0158 72.3567 11.6333C72.6803 11.2508 73.142 11.0102 73.6423 10.9634C74.7148 10.8764 75.5023 11.5753 75.6423 12.6498C75.7823 13.7243 75.1223 14.6123 73.9998 14.7367C73.7463 14.7739 73.4877 14.7575 73.2409 14.6886C72.9942 14.6196 72.7648 14.4997 72.5678 14.3365C72.3708 14.1734 72.2106 13.9707 72.0977 13.7418C71.9847 13.5129 71.9216 13.2628 71.9124 13.008ZM72.2824 10.063L70.9699 1.97433C70.9439 1.8158 70.9506 1.65364 70.9896 1.49777C71.0286 1.3419 71.0992 1.1956 71.197 1.06779C71.2948 0.939986 71.4178 0.833356 71.5584 0.754438C71.6991 0.675519 71.8544 0.625971 72.0149 0.608804L72.8349 0.519265C72.995 0.501793 73.157 0.516842 73.3111 0.563503C73.4652 0.610164 73.6081 0.687466 73.7313 0.790721C73.8545 0.893976 73.9553 1.02103 74.0277 1.1642C74.1001 1.30736 74.1425 1.46367 74.1523 1.62363L74.6523 9.80683L72.2824 10.063Z" fill="#6E62DB"/>
<path d="M133.438 5.73749C133.588 5.37693 133.819 5.0552 134.113 4.79664C134.407 4.53807 134.757 4.34946 135.135 4.24507C136.3 3.91673 137.385 4.66045 137.703 5.79221C138.075 7.10306 137.423 8.96113 134.968 11.1102C131.743 10.5655 130.218 9.32429 129.833 8.01593C129.51 6.88417 130.035 5.68525 131.2 5.35692C131.578 5.24716 131.975 5.22439 132.363 5.29033C132.751 5.35627 133.118 5.50919 133.438 5.73749Z" fill="#F77A55"/>
<path d="M147.645 55.285C147.914 55.0726 148.227 54.9242 148.562 54.8509C148.897 54.7776 149.244 54.7815 149.578 54.8622C150.603 55.1109 151.105 56.1281 150.865 57.1254C150.59 58.2769 149.298 59.4135 146.515 60.0054C144.298 58.2271 143.663 56.6354 143.938 55.4815C144.188 54.4866 145.088 53.7977 146.113 54.0415C146.446 54.1189 146.758 54.2712 147.024 54.4867C147.289 54.7022 147.502 54.9753 147.645 55.285Z" fill="#948BE4"/>
<path d="M39.3697 31.3467L14.4222 31.3218C12.7097 31.3218 11.3222 29.5657 11.3272 27.4042L11.3446 17.0893C11.3446 14.9302 12.7397 13.1792 14.4522 13.1816L39.3997 13.2065C41.1122 13.2065 42.4997 14.9626 42.4947 17.1241L42.4772 27.4391C42.4747 29.6006 41.0822 31.3492 39.3697 31.3467Z" fill="#948BE4"/>
<path d="M22.2123 22.9965C22.2123 23.3694 22.1011 23.7339 21.8929 24.0439C21.6847 24.3539 21.3887 24.5955 21.0425 24.7382C20.6962 24.8809 20.3152 24.9182 19.9476 24.8455C19.58 24.7727 19.2424 24.5932 18.9774 24.3296C18.7124 24.0659 18.5319 23.73 18.4588 23.3643C18.3857 22.9986 18.4232 22.6196 18.5666 22.2751C18.71 21.9306 18.9529 21.6362 19.2645 21.429C19.5762 21.2219 19.9425 21.1113 20.3173 21.1113C20.5663 21.111 20.8128 21.1595 21.0429 21.2542C21.2729 21.3488 21.482 21.4876 21.658 21.6628C21.834 21.8379 21.9736 22.0458 22.0687 22.2747C22.1638 22.5036 22.2126 22.7489 22.2123 22.9965Z" fill="white"/>
<path d="M28.8047 22.9965C28.8047 23.3695 28.6935 23.7341 28.4851 24.0441C28.2768 24.3542 27.9807 24.5958 27.6343 24.7385C27.2879 24.8811 26.9067 24.9182 26.5391 24.8453C26.1714 24.7724 25.8337 24.5926 25.5688 24.3287C25.3039 24.0648 25.1236 23.7286 25.0508 23.3628C24.9779 22.9969 25.0158 22.6178 25.1596 22.2734C25.3034 21.9289 25.5467 21.6347 25.8587 21.4278C26.1706 21.221 26.5373 21.1108 26.9122 21.1113C27.1609 21.1113 27.4072 21.1601 27.637 21.2549C27.8668 21.3497 28.0755 21.4885 28.2513 21.6636C28.427 21.8387 28.5664 22.0466 28.6613 22.2753C28.7563 22.504 28.805 22.7491 28.8047 22.9965Z" fill="white"/>
<path d="M35.3975 22.9965C35.3975 23.3695 35.2863 23.7341 35.0779 24.0441C34.8696 24.3542 34.5735 24.5958 34.2271 24.7385C33.8806 24.8811 33.4995 24.9182 33.1318 24.8453C32.7642 24.7724 32.4265 24.5926 32.1616 24.3287C31.8966 24.0648 31.7164 23.7286 31.6435 23.3628C31.5707 22.9969 31.6086 22.6178 31.7524 22.2734C31.8962 21.9289 32.1395 21.6347 32.4514 21.4278C32.7634 21.221 33.13 21.1108 33.5049 21.1113C33.7537 21.1113 34 21.1601 34.2298 21.2549C34.4595 21.3497 34.6683 21.4885 34.844 21.6636C35.0198 21.8387 35.1592 22.0466 35.2541 22.2753C35.3491 22.504 35.3978 22.7491 35.3975 22.9965Z" fill="white"/>
<path d="M42.245 22.9971L48.09 30.2871L41.6899 27.9815L42.245 22.9971Z" fill="#948BE4"/>
<path d="M40.7848 70.3374L37.1398 70.6483L37.2097 74.0386L33.6347 74.5038L33.2972 77.7498L30.6797 78.5358L31.0772 79.8541L34.5797 78.8045L34.8972 75.7276L38.6173 75.245L38.5498 71.9094L41.8523 71.6259L40.7848 70.3374Z" fill="#6E62DB"/>
<path d="M150.5 25.6561L150.777 29.2825L154.185 29.2501L154.615 32.8119L157.878 33.1775L158.638 35.7916L159.968 35.4086L158.95 31.914L155.86 31.5658L155.41 27.8598L152.058 27.8921L151.807 24.6064L150.5 25.6561Z" fill="#6E62DB"/>
<path d="M39.5848 48.3674L37.4223 50.4916L33.6048 47.4048L30.0598 50.1234L26.8223 48.2778L25.8848 49.9095L30.2123 52.3745L33.5748 49.8001L37.5448 53.0088L40.7998 49.815L39.5848 48.3674Z" fill="#F77A55"/>
<path d="M29.0497 141.905C29.0497 141.905 28.9447 141.407 28.9247 141.228C28.9047 141.049 28.8698 140.42 28.8698 140.42C28.8698 140.42 28.8698 138.301 29.0273 138.313C29.1848 138.326 29.3898 138.691 29.4348 138.811C29.4798 138.93 29.5472 139.089 29.5947 139.221C29.607 139.254 29.6257 139.285 29.6498 139.311C29.674 139.337 29.703 139.358 29.7353 139.372C29.7676 139.387 29.8025 139.396 29.838 139.397C29.8735 139.398 29.9089 139.393 29.9423 139.38C30.1098 139.336 30.0398 138.773 29.9773 138.584C29.7798 137.995 28.9373 136.525 28.8548 136.366C28.7723 136.206 29.4347 132.503 29.5672 131.224C29.8472 129.14 30.2373 127.011 30.2698 126.79L33.9998 118.581L31.4997 116.052C31.4997 116.052 27.2397 125.113 27.0697 125.593C26.9922 125.819 26.7247 130.7 26.7247 130.702C26.7447 133.112 26.7672 135.239 26.7597 135.647C26.7597 135.647 26.4098 136.863 26.1398 137.624C25.8697 138.385 25.9297 139.194 25.8897 139.418C25.7684 139.998 25.7464 140.594 25.8247 141.181C25.9372 142.012 26.2147 141.169 26.2147 141.169C26.2147 141.169 26.2872 139.592 26.4122 139.617C26.5372 139.641 26.4122 140.497 26.5322 141.415L26.6197 142.099C26.6972 142.661 27.0697 142.77 27.0822 142.169C27.0915 141.896 27.0815 141.624 27.0522 141.353C27.0364 141.096 27.0422 140.839 27.0697 140.584C27.0611 140.32 27.0678 140.056 27.0897 139.793C27.1147 139.808 27.1822 139.716 27.2222 139.965C27.2672 140.266 27.2222 140.927 27.3297 141.363C27.3872 141.611 27.4798 142.134 27.4798 142.134C27.5544 142.418 27.6522 142.696 27.7722 142.964C28.0497 142.964 28.0472 142.308 27.9247 141.982C27.9246 141.714 27.8962 141.446 27.8398 141.184C27.8398 141.184 27.8672 140.022 28.0347 140.022C28.2022 140.022 28.6497 142.81 28.9272 142.78C29.1547 142.756 29.0497 141.905 29.0497 141.905Z" fill="#F9A085"/>
<path d="M32.4824 123.355C31.6802 123.219 30.8884 123.028 30.1124 122.785C29.0174 122.38 28.2974 122.024 28.2974 122.024C28.2974 122.024 29.4999 116.902 30.9998 113.793C31.6198 112.507 32.2499 111.888 33.1223 111.739C33.1223 111.739 34.9648 112.945 34.8923 115.848C34.8748 116.522 32.4824 123.355 32.4824 123.355Z" fill="white"/>
<path d="M37.2449 140.556L39.2449 158.927C39.2449 158.927 38.2649 162.813 38.3824 163.917C38.4999 165.021 40.5649 179.5 40.5649 179.5L40.4774 180.313V182.711H48.1349C46.7884 182.057 45.4865 181.316 44.2374 180.492C44.0531 180.357 43.8998 180.185 43.7877 179.986C43.6757 179.788 43.6074 179.567 43.5874 179.341C42.9799 174.878 44.1799 159.992 44.1799 159.992L45.1274 140.616L37.2449 140.556Z" fill="#F9A085"/>
<path d="M31.0898 144.419C30.6573 144.534 29.9923 160.338 29.6348 161.03C27.3623 165.469 26.8223 178.963 26.8223 178.963L26.1623 180.886L25.4573 183.241C25.4573 183.241 27.7248 183.86 28.9123 183.186L28.7823 180.863L28.6598 178.739L34.3898 161.927L37.5248 144.778L31.0898 144.419Z" fill="#F9A085"/>
<path d="M42.4847 113.821C41.5597 112.525 37.7472 108.779 37.3247 108.786C36.0897 108.809 32.0347 108.809 31.2422 109.221V110.104C31.2616 114.049 31.7738 117.976 32.7672 121.795C33.4647 124.456 34.1222 127.299 34.0422 128.322L34.0597 128.339C34.6035 128.887 35.2574 129.315 35.9786 129.594C36.6999 129.873 37.4723 129.998 38.2453 129.96C39.0183 129.922 39.7746 129.722 40.4646 129.373C41.1547 129.025 41.763 128.535 42.2497 127.936C42.2549 126.128 42.3617 124.322 42.5697 122.526C43.0922 118.487 44.7797 117.034 42.4847 113.821Z" fill="#F77A55"/>
<path d="M36.0822 104.769C36.0822 104.769 36.1872 107.401 35.9572 108.398C35.7272 109.396 35.4197 109.473 37.3997 109.776C38.1797 109.896 38.9297 110.075 38.9297 110.075C38.9297 110.075 38.7272 108.607 38.6947 107.99C38.6447 106.97 38.9247 103.824 38.9247 103.824L36.0822 104.769Z" fill="#F9A085"/>
<path d="M37.5899 106.082C37.9424 106.287 38.3283 106.428 38.7299 106.499C38.7974 105.252 38.9249 103.824 38.9249 103.824L36.2124 104.726C36.5388 105.295 37.0152 105.764 37.5899 106.082Z" fill="#F77A55"/>
<path d="M36.71 97.3971C35.9489 97.7184 35.3282 98.2997 34.96 99.0362C34.335 100.28 34.1025 103.762 36.5675 105.127C37.785 105.802 39.1925 105.931 39.855 105.336C40.5175 104.742 40.4475 103.384 40.38 102.265C40.24 100.048 39.75 96.6907 36.71 97.3971Z" fill="#F9A085"/>
<path d="M34.8947 101.779C35.0347 102.364 34.8472 102.929 34.4772 103.029C34.1072 103.129 33.6947 102.756 33.5547 102.171C33.4147 101.586 33.6022 101.021 33.9722 100.921C34.3422 100.821 34.7547 101.194 34.8947 101.779Z" fill="#F9A085"/>
<path d="M28.7798 180.854C27.7348 181.333 26.6148 181.038 26.1623 180.886L25.4373 183.261C25.4373 183.261 27.7198 183.935 28.9098 183.261L28.7798 180.854Z" fill="#1C155B"/>
<path d="M40.4025 183.3H48.3649C48.6599 183.273 48.7324 183.024 48.6299 182.872C48.4199 182.561 47.4899 182.329 46.4449 181.832C44.6149 182.028 40.7725 180.734 40.4825 180.298C40.32 181.179 40.24 183.27 40.4025 183.3Z" fill="#1C155B"/>
<path d="M56.395 119.805C56.55 119.591 57.0675 118.546 57.0675 118.546C57.0675 118.546 57.6025 116.76 57.49 116.782C57.425 116.797 57.205 117.051 56.9425 117.591C56.7825 117.922 56.6075 118.501 56.4425 118.787C56.1525 119.285 55.83 119.499 55.91 119.305C55.9675 119.163 56.16 119.056 56.34 118.745C56.7675 118.014 57.1425 116.817 56.98 116.842C56.8175 116.867 56.4225 117.688 55.98 118.335C55.7825 118.613 55.2175 118.964 54.8625 119.185C54.8691 119.052 54.8935 118.921 54.935 118.795C54.98 118.653 55.6125 117.82 55.365 117.715C55.1175 117.611 53.615 119.417 53.615 119.417L52.9975 120.464L52.9425 120.504C52.9425 120.504 45.4425 123.434 45.1925 123.354C44.6 123.168 42.5825 117.35 42.5825 117.35L38.3825 118.096C38.32 118.061 42.7975 126.757 43.6325 127.185C44.3675 127.558 52.1725 123.511 53.6325 122.645C55.6525 121.874 56.44 120.954 56.77 120.481C56.945 120.232 57.6225 119.131 57.6225 119.131C57.6225 119.131 57.7675 117.606 57.6575 117.591C57.2875 117.546 57.185 118.984 57.185 118.984C57.185 118.984 56.685 119.66 56.595 119.75C56.3575 119.974 56.395 119.805 56.395 119.805Z" fill="#FBC6B6"/>
<path d="M35.6422 112.274C35.0697 114.691 38.1272 120.084 38.1272 120.084C38.1272 120.084 42.4848 117.977 43.2498 117.069C43.2498 117.069 40.2498 112.137 40.0573 111.813C39.6547 111.117 38.2447 109.679 37.2922 109.943C36.6872 110.11 35.6422 112.274 35.6422 112.274Z" fill="white"/>
<path d="M36.3348 106.311C36.6598 104.093 40.3573 99.5734 38.9298 97.6831C37.7748 96.1559 35.7598 96.6136 34.4748 97.0513C28.6548 99.0411 28.9748 106.326 27.1499 107.465C23.8199 109.53 21.7699 110.816 21.5299 115.467C21.2449 120.981 25.9524 123.799 31.6148 122.448C34.6598 121.724 35.4673 120.732 36.6873 117.872C37.2398 116.583 38.3498 112.559 38.0448 110.594C37.7723 108.836 36.0698 108.097 36.3348 106.311Z" fill="#7466E3"/>
<path d="M38.5473 102.251C38.5473 102.911 38.2973 103.446 38.0123 103.446C37.7273 103.446 37.4773 102.911 37.4773 102.251C37.4773 101.591 37.7273 101.056 38.0123 101.056C38.2973 101.056 38.5473 101.591 38.5473 102.251Z" fill="#F9A085"/>
<path d="M45.8473 152.505L46.1198 141.606C46.169 138.534 45.557 135.487 44.3248 132.669L42.2548 127.943C41.4446 128.231 40.6068 128.434 39.7548 128.55C37.8398 128.772 35.9573 128.55 34.0548 128.329C34.0493 128.393 34.0401 128.457 34.0273 128.52C33.6823 130.127 31.7572 133.704 30.9472 138.597C30.0272 144.148 29.6822 152.453 29.7972 153.105C38.5898 153.498 40.6848 153.814 45.8473 152.505Z" fill="#7466E3"/>
<path d="M170.82 122.086C170.766 122.308 170.682 122.521 170.57 122.72C169.858 124.096 168.208 126.058 168.208 126.058L166.93 123.004C166.93 123.004 167.138 122.044 167.5 120.673C168.745 121.014 169.92 121.213 170.82 122.086Z" fill="#FBC6B6"/>
<path d="M163.508 119.434C163.508 119.434 170.63 122.69 170.86 122.63C171.008 122.588 173.78 117.656 173.81 113.024C173.825 110.885 171.73 108.299 169.395 108.818C168.218 109.067 168.238 109.423 166.498 112.107C164.758 114.79 163.508 119.434 163.508 119.434Z" fill="#6E62DB"/>
<path d="M157.428 177.826C157.428 177.826 157.595 180.796 157.598 180.811C157.66 181.189 157.903 182.119 157.903 182.462C157.903 183.751 152.153 181.37 153.435 180.798C153.553 180.746 154.165 180.356 154.203 179.918C154.263 179.244 154.413 177.876 154.413 177.876L157.428 177.826Z" fill="#F9A085"/>
<path d="M153.45 180.776C154.123 180.978 154.805 181.144 155.495 181.275C156.188 181.375 157.1 180.542 157.59 180.776C158.128 181.026 158.108 183.248 158.108 183.248C158.108 183.248 150.858 183.881 148.818 183.225C148.01 182.954 150.685 181.697 153.45 180.776Z" fill="#F77A55"/>
<path d="M169.208 177.826C169.208 177.826 169.378 180.796 169.378 180.811C169.44 181.189 169.685 182.119 169.685 182.462C169.685 183.751 163.935 181.37 165.218 180.798C165.333 180.746 166.128 180.052 166.165 179.627C166.225 178.95 166.193 177.886 166.193 177.886L169.208 177.826Z" fill="#F9A085"/>
<path d="M165.23 180.776C165.903 180.977 166.585 181.144 167.275 181.275C167.967 181.374 168.882 180.542 169.372 180.776C169.91 181.025 169.932 183.246 169.932 183.246C169.932 183.246 162.647 183.994 160.6 183.224C159.802 182.917 162.467 181.696 165.23 180.776Z" fill="#F77A55"/>
<path d="M167.448 123.73L162.375 116.186C162.355 116.119 162.308 115.984 162.238 115.778C161.988 115.032 161.45 113.47 160.988 111.92V111.905C160.843 111.363 160.535 110.413 160.238 109.503C159.908 108.488 159.488 107.227 159.488 107.015L159.558 106.826C159.781 106.084 159.956 105.327 160.083 104.563C160.14 104.224 160.198 103.401 159.818 103.401C159.223 103.401 159.508 104.222 159.233 104.734C159.057 104.174 158.92 103.604 158.82 103.026L158.72 101.421C158.7 101.299 158.823 100.426 158.405 100.426H158.385C158.01 100.454 158.018 101.396 157.863 102.986C157.813 102.804 157.765 102.583 157.728 102.379C157.705 102.097 157.663 101.817 157.6 101.541C157.675 101.098 157.633 100.396 157.188 100.464C156.965 100.496 156.983 101.473 156.983 101.473C156.983 101.605 156.998 102.638 156.983 102.841C156.938 102.496 156.76 101.018 156.41 101.018C156.123 101.018 156.098 101.416 156.105 101.732C156.105 101.916 156.29 103.518 156.3 103.705C156.163 103.456 156.003 102.05 155.868 102.05C155.303 102.05 155.508 104.055 155.713 104.578C155.741 104.67 155.762 104.764 155.778 104.859C155.862 105.378 156.025 105.881 156.263 106.351C156.615 106.995 157.105 108.018 157.18 108.174C157.233 108.495 157.403 109.644 157.618 111.089C157.708 111.709 157.808 112.385 157.913 113.079C157.933 113.231 158.038 113.714 158.44 115.527C158.988 118.014 159.045 118.116 159.07 118.163C159.32 118.611 164.778 126.498 165.01 126.834L165.148 127.031L167.448 123.73Z" fill="#F9A085"/>
<path d="M158.015 106.138C158.015 106.138 158.425 105.016 159.158 105.013C159.031 104.972 158.896 104.963 158.765 104.988C158.634 105.012 158.511 105.069 158.408 105.153C158.048 105.448 158.015 106.138 158.015 106.138Z" fill="#F77A55"/>
<path d="M168.675 103.973L169.328 108.358C169.328 108.358 166.828 110.48 165.388 110.032C164.173 109.656 165.005 107.968 165.005 107.968C165.005 107.968 165.655 105.624 165.455 104.398C165.255 103.172 168.675 103.973 168.675 103.973Z" fill="#F9A085"/>
<path d="M168.205 105.307C167.315 105.73 166.366 106.015 165.39 106.152C165.493 105.574 165.515 104.985 165.455 104.402C165.363 103.832 166.043 103.699 166.8 103.717C167.8 103.809 168.675 103.967 168.675 103.967L168.8 104.814C168.633 105.013 168.432 105.18 168.205 105.307Z" fill="#F77A55"/>
<path d="M171.82 98.9139C171.923 98.9139 170.835 103.814 169.155 104.657C167.475 105.5 164.968 105.06 164.498 103.739C163.975 102.282 165.875 97.2722 168.248 96.6479C170.62 96.0236 171.82 98.9139 171.82 98.9139Z" fill="#F9A085"/>
<path d="M169.87 94.414C170.837 95.0191 171.593 95.9059 172.035 96.9536C172.665 97.272 173.428 97.9486 173.785 99.8091C174.235 102.085 172.635 103.839 170.938 104.368C169.24 104.898 168.955 106.087 168.955 106.087L168.788 104.804C168.788 104.804 169.165 103.687 169.733 103.127C170.3 102.568 169.463 101.754 169.39 101.09C169.333 100.578 169.688 99.5977 169.61 98.7445C169.61 98.7445 168.668 97.2272 167.738 96.8541C166.165 96.2149 168.145 93.3594 169.87 94.414Z" fill="#1C155B"/>
<path d="M169.155 101.948C168.935 102.515 169.025 103.08 169.355 103.198C169.685 103.315 170.133 102.968 170.355 102.4C170.578 101.833 170.485 101.268 170.155 101.15C169.825 101.033 169.375 101.378 169.155 101.948Z" fill="#F9A085"/>
<path d="M162.892 123.852L153.107 122.158C153.107 122.158 154.222 119.173 154.607 119.173C154.992 119.173 162.005 122.407 162.005 122.407L162.57 123.603L162.892 123.852Z" fill="#FBC6B6"/>
<path d="M167.905 130.975C167.905 130.975 168.88 135.984 168.483 139.785C168.085 143.586 168.055 157.079 168.055 157.079L169.573 178.671L165.97 178.756C165.97 178.756 161.7 157.174 161.78 157.726C161.86 158.278 160.348 142.531 160.348 142.531L165.438 130.5L167.905 130.975Z" fill="#261C96"/>
<path d="M166.95 130.737C166.95 130.737 167.588 135.249 166.79 137.229C165.993 139.208 159.967 158.619 159.887 160.204C159.807 161.788 157.805 179.284 157.805 179.284L153.615 179.159L152.71 159.706L154.607 135.256L156.45 129.075L166.95 130.737Z" fill="#261C96"/>
<path d="M169.32 108.366C169.32 108.366 168.288 109.088 167.32 109.003C166.353 108.918 164.995 107.973 164.995 107.973L165.185 107.288C165.185 107.288 167.685 106.901 167.74 106.941C167.795 106.981 169.32 108.366 169.32 108.366Z" fill="#F9A085"/>
<path d="M158.32 119.037C158.32 119.037 154.62 122.743 152.947 122.111C151.275 121.479 150.587 119.313 154.663 116.141C158.32 113.313 158.32 119.037 158.32 119.037Z" fill="#FBC6B6"/>
<path d="M155.82 123.603C156.37 120.43 160.355 110.545 160.673 108.724C160.828 107.839 162.978 107.819 165.025 107.936C167.188 108.058 169.335 108.349 169.335 108.349C169.335 108.349 171.25 108.682 172.085 109.52C172.92 110.359 173.153 112.674 171.943 117.074C170.985 120.556 169.8 122.454 169.215 124.984C169.095 125.832 168.995 126.67 168.86 127.648C168.643 131.431 168.86 136.425 168.86 136.425C168.86 136.425 158.438 138.721 154.54 135.239C154.54 135.249 155.25 126.869 155.82 123.603Z" fill="#948BE4"/>
<path d="M153.155 116.785C153.155 116.785 157.245 120.37 157.483 120.37C157.638 120.37 163.318 115.932 164.63 112.286C165.355 110.269 163.835 108.015 162.098 108.022C160.893 108.022 160.348 108.356 157.973 110.492C155.598 112.629 153.155 116.785 153.155 116.785Z" fill="#6E62DB"/>
<path d="M191.57 185.467H4.06978C3.9238 185.467 3.77919 185.438 3.64423 185.383C3.50927 185.327 3.38662 185.245 3.28328 185.142C3.17994 185.039 3.09795 184.917 3.04201 184.782C2.98607 184.647 2.95728 184.502 2.95728 184.356C2.95728 184.061 3.07449 183.778 3.28313 183.569C3.49176 183.36 3.77473 183.243 4.06978 183.243H191.57C191.865 183.243 192.148 183.36 192.357 183.569C192.565 183.778 192.683 184.061 192.683 184.356C192.683 184.502 192.654 184.647 192.598 184.782C192.542 184.917 192.46 185.039 192.357 185.142C192.253 185.245 192.131 185.327 191.996 185.383C191.861 185.438 191.716 185.467 191.57 185.467Z" fill="#1C155B"/>
</svg>
