<svg width="249" height="179" viewBox="0 0 249 179" fill="none" xmlns="http://www.w3.org/2000/svg">
<path d="M237.36 177.718C221.714 177.718 10.1622 177.263 10.1622 177.238C10.0746 177.034 -16.693 144.393 17.013 110.266C33.7145 93.3518 1.67578 71.449 17.013 52.64C43.2853 20.4197 69.281 38.5627 90.9358 29.5038C94.7614 27.9038 98.6007 25.33 102.445 21.3789C104.586 19.1843 106.958 17.2257 109.52 15.5368C109.909 15.2783 110.302 15.0265 110.699 14.7814C112.22 13.8434 113.794 12.9925 115.412 12.2328C116.502 11.7208 117.613 11.2477 118.745 10.8135C120.553 10.1213 122.396 9.5251 124.268 9.02757C126.974 8.30867 129.726 7.77133 132.504 7.41918C133.729 7.2609 134.964 7.13588 136.209 7.04414C160.406 5.23404 187.633 15.4138 201.689 30.2917C204.519 33.2879 217.384 48.7908 207.242 70.098C200.839 83.5513 227.664 96.4005 237.195 111.763C261.437 150.818 237.582 177.209 237.36 177.718Z" fill="#1C1C4D"/>
<g opacity="0.8">
<path opacity="0.8" d="M182.611 86.9063C181.976 88.6439 181.186 90.3213 180.251 91.9185C176.612 98.0966 170.912 102.81 164.142 105.24C157.372 107.67 149.96 107.661 143.195 105.216C131.395 100.949 123.816 90.246 123.008 78.5323C122.9 76.9774 122.913 75.4166 123.047 73.8637C123.472 68.978 125.062 64.2638 127.687 60.113C127.7 60.0909 127.712 60.072 127.726 60.05C131.773 53.7203 138.011 49.0857 145.261 47.0231C146.011 46.8088 146.771 46.6232 147.54 46.4663C153.104 45.3265 158.876 45.7503 164.211 47.6902C164.947 47.9557 165.665 48.2463 166.366 48.5622C171.372 50.7985 175.679 54.3363 178.834 58.803C181.199 62.143 182.871 65.9188 183.753 69.9094C183.941 70.7645 184.093 71.6288 184.209 72.5022C184.848 77.3617 184.299 82.303 182.608 86.9063H182.611Z" fill="#2C248F"/>
<path opacity="0.8" d="M148.586 60.0291C146.769 61.4295 147.25 65.1769 144.103 63.0642C140.957 60.9515 138.982 59.8075 138.092 61.647C137.202 63.4865 139.993 64.4993 139.254 66.5079C138.514 68.5166 137.027 68.7288 135.452 67.0794C133.878 65.43 133.833 63.8427 131.282 63.8952C128.732 63.9477 127.645 62.9045 127.769 60.9999C127.791 60.7031 127.762 60.405 127.686 60.1174C127.699 60.0953 127.711 60.0764 127.725 60.0544C131.772 53.7246 138.01 49.0901 145.26 47.0275C146.01 46.8132 146.77 46.6276 147.539 46.4707C148.428 46.83 149.381 47.5591 149.887 49.0225C150.996 52.2403 152.797 51.4829 151.268 54.1786C149.739 56.8743 150.368 57.5404 152.037 58.0299C153.705 58.5195 155.627 59.2202 155.367 60.5334C155.107 61.8466 150.403 58.6288 148.586 60.0291Z" fill="#857DC9"/>
<path opacity="0.8" d="M182.611 86.9065C181.976 88.6441 181.186 90.3216 180.251 91.9187C178.081 95.613 175.152 98.8104 171.657 101.302C170.81 101.288 169.998 100.969 169.369 100.405C166.289 97.6664 170.371 94.7574 172.521 93.3422C174.671 91.9271 170.68 91.4575 168.667 88.6998C166.655 85.9421 171.366 82.2042 168.339 82.0025C165.312 81.8008 161.627 81.6054 161.011 78.378C160.394 75.1507 163.58 75.8147 163.017 73.0958C162.454 70.3769 165.094 69.8674 167.912 70.6438C170.73 71.4201 171.08 69.3516 174.572 70.2908C178.064 71.23 176.421 75.5068 180.274 76.5763C184.127 77.6458 183.644 78.4453 183.644 78.4453C183.917 78.5362 184.165 78.6891 184.368 78.8917C184.145 81.6295 183.554 84.3252 182.611 86.9065Z" fill="#857DC9"/>
<path opacity="0.8" d="M184.211 72.5028C180.542 72.8852 180.79 68.3279 177.675 68.5979C174.534 68.87 175.88 66.6481 174.324 64.3526C172.767 62.0571 167.524 63.302 168.59 60.9803C169.655 58.6585 172.582 60.4749 173.955 58.8056C175.328 57.1363 178.228 58.7279 178.228 58.7279C178.433 58.7248 178.636 58.7503 178.833 58.8035C181.199 62.1436 182.871 65.9194 183.753 69.91C183.942 70.7652 184.095 71.6295 184.211 72.5028Z" fill="#857DC9"/>
<path opacity="0.8" d="M160.96 54.7556C160.96 54.7556 163.451 53.0004 161.109 51.3701C158.767 49.7399 158.483 50.6632 156.542 49.7189C154.601 48.7746 153.24 50.0424 154.135 52.2871C155.029 54.5318 155.064 58.2324 157.068 56.9919C159.072 55.7514 159.288 54.3407 160.96 54.7556Z" fill="#857DC9"/>
</g>
<path d="M194.997 112.342C194.997 112.342 195.234 109.993 194.001 110.074C192.768 110.155 192.44 110.718 192.579 111.17C192.717 111.622 193.917 113.114 193.917 113.114L194.997 112.342Z" fill="#FED9BB"/>
<path d="M214.218 117.044C214.218 117.044 212.853 118.639 209.916 120.482C209.637 120.656 209.347 120.833 209.04 121.007C207.746 121.755 206.401 122.412 205.017 122.976C204.847 123.045 204.647 123.122 204.423 123.203C202.663 123.833 199.425 124.731 197.418 124.811C197.244 124.819 197.078 124.819 196.924 124.811C193.87 124.689 193.498 112.896 193.498 112.896C193.498 112.896 193.838 111.717 195.407 112.014C195.407 112.014 197.79 118.673 198.644 119.216C199.402 119.698 203.762 113.123 207.514 112.664C210.041 112.361 214.218 117.044 214.218 117.044Z" fill="#9487F1"/>
<path d="M206.01 174.553C206.01 174.553 206.235 177.149 205.684 177.419L198.625 177.404C198.625 177.404 198.625 176.594 199.759 176.414C200.893 176.233 202.885 175.573 203.221 174.102C203.558 172.631 206.01 174.553 206.01 174.553Z" fill="#3528B3"/>
<path d="M200.836 143.131C200.871 144.829 200.953 146.58 201.114 148.154C201.876 155.622 202.143 164.648 202.253 166.383C202.443 169.403 203.043 174.227 203.043 174.227C203.043 174.227 204.232 175.35 206.549 174.813C206.549 174.813 208.47 167.866 208.899 160.55C208.906 160.43 208.913 160.309 208.919 160.188C208.969 159.222 209.024 158.116 209.074 156.923C209.427 148.939 209.813 137.068 209.813 137.068L200.956 134.999C200.956 134.999 200.744 138.9 200.836 143.131Z" fill="#4838D1"/>
<path d="M200.836 143.132C203.081 146.985 207.36 154.085 209.072 156.924C209.425 148.939 209.811 137.068 209.811 137.068L200.954 134.999C200.954 134.999 200.744 138.9 200.836 143.132Z" fill="#261C96"/>
<path d="M204.426 123.206C202.666 123.837 199.428 124.735 197.421 124.815C197.728 124.758 199.962 124.318 200.789 123.325C201.676 122.258 203.17 119.36 204.359 120.542C204.916 121.1 204.751 122.2 204.426 123.206Z" fill="#9487F1"/>
<path d="M219.307 141.881C219.307 141.881 219.856 144.026 219.766 144.508C219.677 144.989 219.139 146.598 218.804 146.999C218.47 147.401 218.456 145.258 218.234 144.921C218.013 144.585 218.129 145.721 217.953 145.814C217.778 145.908 217.477 144.954 217.345 144.616C217.213 144.277 217.82 143.101 217.873 142.257C217.926 141.414 219.307 141.881 219.307 141.881Z" fill="#FED9BB"/>
<path d="M223.597 171.602C223.597 171.602 224.854 172.743 224.609 173.554C224.364 174.365 223.23 174.904 223.077 175.895C222.924 176.886 222.31 177.427 221.759 177.427H219.129C219.129 177.427 218.723 176.729 219.703 176.519C220.683 176.309 221.054 175.145 220.992 174.064C220.931 172.983 221.084 171.542 221.084 171.542L223.169 171.062L223.597 171.602Z" fill="#3528B3"/>
<path d="M202.344 137.25C202.344 137.25 210.635 154.899 215.048 162.647C219.46 170.395 220.839 172.553 220.839 172.553C220.839 172.553 223.367 171.562 223.598 170.886C223.598 170.886 221.908 155.935 218.951 152.292C217.282 150.232 215.32 144.052 215.228 141.891C215.136 139.73 213.2 134.571 213.2 134.571L202.344 137.25Z" fill="#4838D1"/>
<path d="M200.798 136.332C200.798 136.332 203.498 139.223 208.084 140.096C210.096 140.479 214.184 140.85 215.198 139.424C215.436 139.089 215.438 138.593 215.385 137.819C215.248 135.807 214.74 131.917 217.037 124.1C217.24 123.416 217.387 122.718 217.478 122.011C217.98 118.011 217.925 114.993 214.437 113.38C209.213 110.964 207.068 112.952 207.068 112.952C207.068 112.952 204.289 114.244 203.019 118.009C200.482 125.54 200.798 136.332 200.798 136.332Z" fill="#9487F1"/>
<path d="M211.304 112.716C210.734 113.099 210.072 113.325 209.385 113.369C208.699 113.414 208.013 113.276 207.397 112.971C207.284 112.914 207.298 112.137 207.327 111.375C207.355 110.612 207.426 109.891 207.426 109.891L209.285 108.677L211.059 107.521C210.849 111.502 211.701 112.434 211.304 112.716Z" fill="#FED9BB"/>
<path d="M210.75 109.165C210.75 109.165 209.544 110.973 207.33 111.379C207.358 110.628 207.435 109.798 207.435 109.798L209.285 108.67L210.75 109.165Z" fill="#FAA47F"/>
<path d="M205.764 109.424C205.764 109.424 210.262 111.093 211.263 108.337C212.264 105.58 213.519 103.937 210.689 102.754C207.859 101.571 206.916 102.425 206.353 103.264C205.79 104.104 204.619 108.917 205.764 109.424Z" fill="#FED9BB"/>
<path d="M214.066 103.064C214.117 103.025 214.222 103.005 214.441 103.036C214.331 102.941 214.2 102.875 214.058 102.842C214.073 102.534 214.018 101.972 213.53 101.741C213.605 101.807 213.663 101.888 213.702 101.979C213.74 102.07 213.758 102.168 213.753 102.267C213.275 101.531 212.076 100.836 208.459 100.416C203.69 99.8611 204.644 103.156 205.185 103.632C205.727 104.108 207.446 103.432 208.564 103.743C209.683 104.055 209.571 105.726 209.911 106.024C210.251 106.322 210.178 105.899 210.744 105.767C211.31 105.634 211.189 106.502 210.929 107.027C210.668 107.552 211.237 108.431 211.237 108.431L212.111 107.8C212.987 107.17 214.318 104.027 214.128 103.264C214.098 103.201 214.083 103.133 214.066 103.064Z" fill="#191179"/>
<path d="M215.389 137.819C215.251 135.806 214.743 131.917 217.04 124.1C217.243 123.417 217.39 122.718 217.481 122.011C215.775 121.451 212.666 122.696 212.666 122.696C212.666 122.696 211.935 133.029 215.389 137.819Z" fill="#9487F1"/>
<path d="M215.381 113.902C215.381 113.902 217.481 114.661 218.82 120.193C219.705 123.846 221.334 129.218 221.518 130.908C221.702 132.599 219.655 142.478 219.655 142.478C219.655 142.478 219.367 142.688 218.66 142.546C218.268 142.476 217.916 142.266 217.668 141.956C217.668 141.956 217.179 135.37 217.305 132.26C217.358 130.968 211.294 122.798 208.021 121.745C206.735 121.329 215.381 113.902 215.381 113.902Z" fill="#9487F1"/>
<path d="M186.014 106.743C186.014 106.743 192.083 106.572 199.085 107.854L199.817 106.02L200.62 104.01C200.62 104.01 193.589 100.998 189.362 96.8057L186.014 106.743Z" fill="#DDD7FC"/>
<path d="M189.458 96.7071L185.974 106.94C185.853 106.904 185.741 106.845 185.644 106.765C185.547 106.685 185.467 106.586 185.41 106.474C185.353 106.363 185.32 106.241 185.311 106.116C185.303 105.991 185.321 105.865 185.363 105.747L188.426 97.1494C188.461 97.0509 188.516 96.9606 188.588 96.8843C188.659 96.8079 188.746 96.7471 188.842 96.7056C188.939 96.6641 189.043 96.6428 189.148 96.6431C189.253 96.6433 189.357 96.6651 189.453 96.7071H189.458Z" fill="#F99746"/>
<path d="M192.785 114.356C193.111 114.42 193.45 114.353 193.727 114.169C194.004 113.986 194.197 113.7 194.263 113.376L195.462 107.403C195.527 107.078 195.459 106.741 195.274 106.466C195.09 106.19 194.803 105.999 194.477 105.932C194.151 105.868 193.812 105.936 193.535 106.119C193.258 106.303 193.065 106.589 192.999 106.914L191.799 112.885C191.735 113.21 191.802 113.547 191.987 113.823C192.172 114.098 192.458 114.29 192.785 114.356Z" fill="#F99746"/>
<path d="M186.014 106.748C186.014 106.748 192.083 106.576 199.085 107.865L199.817 106.022C193.233 104.679 186.014 106.748 186.014 106.748Z" fill="#9487F1"/>
<path d="M197.149 107.486L199.05 107.818C199.021 107.818 200.811 108.164 201.398 106.586C201.451 106.478 201.489 106.363 201.511 106.244C201.967 104.277 200.877 103.914 200.877 103.914L198.437 102.969L197.662 105.7V105.71L197.149 107.486Z" fill="#F99746"/>
<path d="M197.149 107.495L199.05 107.829C199.021 107.829 200.811 108.176 201.398 106.59C200.325 105.81 197.665 105.698 197.665 105.698V105.707L197.149 107.495Z" fill="#F77A55"/>
<path d="M192.946 108.578C192.946 108.578 193.874 108.948 193.704 109.357C193.534 109.765 192.355 110.327 192.168 110.005C191.981 109.683 192.363 108.232 192.946 108.578Z" fill="#FED9BB"/>
<path d="M195.015 111.981C195.101 111.523 195.163 111.061 195.2 110.597C195.212 110.161 195.263 109.805 195.16 109.792C195.058 109.78 194.983 109.86 194.942 110.004C194.901 110.147 194.739 111.013 194.739 111.013L194.82 111.858L195.015 111.981Z" fill="#FED9BB"/>
<path d="M103.269 111.355L98.0138 173.527C98.0138 173.527 97.4626 177.295 100.28 177.302C104.913 177.313 123.339 177.302 123.339 177.302C123.339 177.302 119.854 176.517 119.895 174.753C119.944 172.671 126.037 110.767 126.037 110.767L103.269 111.355Z" fill="#9487F1"/>
<path d="M125.068 176.199C124.157 176.199 106.318 176.232 101.806 176.174C99.8402 176.15 99.496 174.434 99.4833 173.325C99.4777 173.015 99.4978 172.706 99.5435 172.399L99.6797 170.784L100.028 166.664L100.335 163.026L100.731 158.35L101.064 154.403L104.799 110.225L127.568 109.638C127.568 109.638 125.001 135.545 123.186 154.403C122.983 156.504 122.791 158.519 122.612 160.4C122.554 161.001 122.498 161.587 122.445 162.16C122.276 163.946 122.122 165.582 121.989 167.029C121.918 167.791 121.853 168.5 121.794 169.149C121.563 171.691 121.427 173.315 121.425 173.624C121.423 173.793 121.438 173.962 121.47 174.128C121.839 176.109 124.726 176.199 125.068 176.199Z" fill="#BBB1FA"/>
<path d="M47.9692 77.5229L60.7701 128.683L62.523 135.69L68.4858 159.518H179.257L157.28 77.5229H47.9692Z" fill="#DDD7FC"/>
<path d="M47.9693 77.5229L46.1943 78.1113L66.1269 161.298L68.4858 159.518L47.9693 77.5229Z" fill="#BBB1FA"/>
<path d="M66.127 161.307H176.216L179.256 159.519H68.4859L66.127 161.307Z" fill="#9487F1"/>
<path d="M104.786 177.326H128.623V176.193H104.786V177.326Z" fill="#DDD7FC"/>
<path d="M122.564 161.297L122.441 162.159L100.024 166.664L100.331 163.026L100.478 161.297H122.564Z" fill="#7466E3"/>
<path opacity="0.4" d="M125.069 176.199C124.157 176.199 106.319 176.232 101.807 176.174C99.8405 176.15 99.4963 174.434 99.4836 173.324L121.794 169.147C121.563 171.69 121.428 173.315 121.426 173.624C121.424 173.793 121.438 173.961 121.47 174.127C121.84 176.109 124.726 176.199 125.069 176.199Z" fill="#7466E3"/>
<path d="M47.9692 77.5229H157.28L175.016 143.421H64.4585L47.9692 77.5229Z" fill="#DDD7FC"/>
<path d="M169.86 140.566H67.5112L63.8545 126.07L62.4396 120.461L61.862 118.174L58.1029 103.277L57.9087 102.501L55.9214 94.6269L55.0323 91.1034L54.2742 88.0977L52.4971 81.0527H153.37L155.323 88.0977L156.155 91.1034L157.131 94.6269L163.563 117.838V117.839L164.108 119.806L164.361 120.719L168.801 136.744L169.86 140.566Z" fill="#9487F1"/>
<path d="M155.323 88.0985H54.2742L52.4971 81.0527H153.37L155.323 88.0985Z" fill="#7466E3"/>
<path d="M56.6701 84.2413C56.5476 83.7524 56.8454 83.3564 57.3343 83.3564C57.5883 83.3689 57.832 83.4611 58.0306 83.62C58.2293 83.7788 58.3728 83.9962 58.4409 84.2413C58.5623 84.7302 58.2645 85.1262 57.7757 85.1262C57.5217 85.1138 57.2781 85.0216 57.0796 84.8627C56.8811 84.7038 56.7378 84.4864 56.6701 84.2413Z" fill="#DDD7FC"/>
<path d="M59.612 84.2413C59.4895 83.7524 59.7873 83.3564 60.2762 83.3564C60.5302 83.3689 60.7739 83.4611 60.9725 83.62C61.1712 83.7788 61.3147 83.9962 61.3828 84.2413C61.5042 84.7302 61.2064 85.1262 60.7176 85.1262C60.4636 85.1138 60.22 85.0216 60.0215 84.8627C59.823 84.7038 59.6797 84.4864 59.612 84.2413Z" fill="#DDD7FC"/>
<path d="M62.7786 84.2413C62.6572 83.7524 62.9549 83.3564 63.4438 83.3564C63.6978 83.3688 63.9413 83.461 64.1398 83.6199C64.3383 83.7788 64.4817 83.9962 64.5494 84.2413C64.6718 84.7302 64.3741 85.1262 63.8852 85.1262C63.6311 85.1137 63.3875 85.0215 63.1888 84.8626C62.9902 84.7038 62.8466 84.4864 62.7786 84.2413Z" fill="#DDD7FC"/>
<path d="M133.305 40.0907C137.441 35.2581 143.82 25.5522 148.115 20.581C148.313 20.3519 148.44 20.0712 148.482 19.7721C148.524 19.4731 148.478 19.1684 148.351 18.8943C148.224 18.6202 148.02 18.3882 147.765 18.2259C147.509 18.0636 147.211 17.9778 146.908 17.9788H139.094L146.464 1.39485C146.781 0.686784 145.81 0.122641 145.343 0.743514L127.519 24.4774C127.403 24.6315 127.336 24.8161 127.325 25.0081C127.313 25.2001 127.359 25.3912 127.456 25.5576C127.553 25.7239 127.698 25.8582 127.871 25.9437C128.044 26.0292 128.239 26.0622 128.43 26.0386L137.278 24.9544L132.014 39.3395C131.725 40.1327 132.755 40.7325 133.305 40.0907Z" fill="#F77A55"/>
<path d="M96.5112 69.5238C97.4425 64.7743 98.0296 55.9539 99.0126 51.0541C99.0579 50.8284 99.0371 50.5945 98.9526 50.3803C98.8682 50.1661 98.7236 49.9805 98.5361 49.8457C98.3487 49.7109 98.1262 49.6325 97.8953 49.6199C97.6643 49.6072 97.4346 49.6609 97.2334 49.7745L92.0425 52.6824L90.7036 38.9265C90.6466 38.3393 89.7902 38.3246 89.7142 38.9108L86.7967 61.3033C86.7778 61.4487 86.8023 61.5964 86.8671 61.728C86.9319 61.8597 87.0342 61.9695 87.1612 62.0438C87.2882 62.1181 87.4344 62.1537 87.5815 62.146C87.7287 62.1384 87.8703 62.0879 87.9888 62.0008L93.4574 57.9888L95.3697 69.5028C95.4764 70.1395 96.3866 70.1542 96.5112 69.5238Z" fill="#DDD7FC"/>
<path d="M174.332 141.968L85.3997 149.427C78.6419 149.993 73.7603 143.144 76.53 136.989L114.207 53.0946C117.066 46.7293 125.852 45.9928 129.741 51.7919L180.99 128.224C184.75 133.836 181.084 141.402 174.332 141.968Z" fill="#F3F1FE"/>
<path d="M174.615 145.315L85.6816 152.774C83.5541 152.952 81.4167 152.575 79.4803 151.681C77.5439 150.786 75.8755 149.405 74.6396 147.672C73.4038 145.94 72.6433 143.917 72.4332 141.804C72.223 139.69 72.5705 137.558 73.4414 135.619L111.12 51.7235C112.971 47.6012 116.776 44.9139 121.298 44.5346C125.819 44.1554 130.024 46.1724 132.542 49.9281L183.798 126.367C184.983 128.135 185.684 130.179 185.832 132.299C185.98 134.418 185.57 136.539 184.643 138.453C183.715 140.366 182.302 142.006 180.543 143.21C178.784 144.415 176.739 145.142 174.611 145.319L174.615 145.315ZM121.865 51.2245C120.878 51.2999 119.93 51.6408 119.123 52.2108C118.316 52.7807 117.68 53.5583 117.283 54.4602L79.6058 138.354C79.2136 139.227 79.057 140.187 79.1515 141.138C79.246 142.09 79.5884 143.001 80.1447 143.78C80.7011 144.56 81.4522 145.182 82.324 145.584C83.1957 145.987 84.158 146.156 85.1156 146.076L174.048 138.617C175.006 138.537 175.926 138.209 176.717 137.667C177.509 137.125 178.145 136.387 178.562 135.526C178.98 134.665 179.164 133.71 179.097 132.756C179.03 131.803 178.715 130.883 178.181 130.087L126.922 53.6513C126.379 52.8287 125.622 52.1683 124.731 51.7408C123.84 51.3133 122.85 51.1349 121.865 51.2245Z" fill="#F77A55"/>
<path d="M119.781 129.134C119.678 128.05 119.796 126.957 120.128 125.92C120.443 124.938 120.962 124.032 121.649 123.261C122.365 122.468 123.234 121.827 124.205 121.376C125.22 120.891 126.386 120.593 127.703 120.482C128.92 120.364 130.149 120.464 131.33 120.778C132.372 121.057 133.346 121.544 134.193 122.209C135 122.856 135.663 123.662 136.14 124.577C136.641 125.545 136.941 126.603 137.021 127.688C137.125 128.763 137.006 129.848 136.673 130.875C136.352 131.848 135.833 132.744 135.149 133.509C134.427 134.308 133.549 134.951 132.568 135.4C131.456 135.907 130.262 136.21 129.042 136.296C127.725 136.407 126.526 136.307 125.442 135.997C124.41 135.714 123.445 135.226 122.606 134.564C121.803 133.924 121.141 133.127 120.661 132.222C120.158 131.263 119.859 130.212 119.781 129.134ZM133.531 113.126L120.72 114.2L115.218 70.8041L131.657 69.4258L133.531 113.126Z" fill="#F77A55"/>
<path d="M64.5571 115.787C64.5571 115.787 64.8369 115.163 65.0175 114.868C65.198 114.572 65.9678 113.712 66.1008 113.902C66.2339 114.092 66.7576 115.417 66.4778 115.787C66.198 116.156 66.4957 116.798 65.1051 117.188L64.5571 115.787Z" fill="#FED9BB"/>
<path d="M49.1333 111.848C49.1333 111.848 56.2386 117.747 59.0093 117.205C61.175 116.779 64.6003 115.698 64.6003 115.698C64.6003 115.698 65.5042 116.553 65.2487 117.578C65.2487 117.578 60.8846 121.663 57.776 121.69C52.9188 121.731 50.6253 119.294 50.6253 119.294L49.1333 111.848Z" fill="#F77A55"/>
<path d="M36.6721 174.086C36.6721 174.086 36.8833 177.396 37.5221 177.448C37.6077 177.454 40.7871 177.454 40.7871 177.454L44.8461 177.431C44.8461 177.431 44.8197 176.458 43.6328 176.252C42.4459 176.047 40.465 175.218 39.7428 173.658C38.9867 172.013 36.6721 174.086 36.6721 174.086Z" fill="#191179"/>
<path d="M36.439 174.317C36.439 174.317 37.6723 174.727 38.6353 174.727C39.3289 174.718 40.0185 174.621 40.687 174.436C40.687 174.436 40.9193 172.201 42.1969 167.277C42.8675 164.697 43.8241 161.378 45.1863 157.255C48.9506 145.858 50.0952 139.192 50.1998 138.56C50.1998 138.527 50.2072 138.51 50.2072 138.51L50.1955 138.504L38.6216 133.449C38.6216 133.449 40.0524 149.156 38.2267 155.184C37.9498 156.133 37.7287 157.098 37.5646 158.073C36.4126 164.621 36.439 174.317 36.439 174.317Z" fill="#4838D1"/>
<path d="M42.1968 167.277C42.8673 164.697 43.8239 161.378 45.1861 157.255C48.9504 145.858 50.095 139.192 50.1996 138.56C50.1996 138.541 50.1996 138.523 50.1996 138.504L38.6257 133.449C38.6257 133.449 40.0564 149.156 38.2307 155.184C37.971 156.027 42.1968 167.277 42.1968 167.277Z" fill="#261C96"/>
<path d="M45.7119 174.086C45.7119 174.086 45.9178 177.396 46.5566 177.448C46.6422 177.454 49.8215 177.454 49.8215 177.454L53.8805 177.431C53.8805 177.431 53.853 176.458 52.6672 176.252C51.4814 176.047 49.4995 175.218 48.7762 173.658C48.0254 172.013 45.7119 174.086 45.7119 174.086Z" fill="#7466E3"/>
<path d="M52.2733 133.818C52.2733 133.818 52.4243 143.996 50.6535 156.494C48.8828 168.991 49.4836 174.296 49.4836 174.296C49.4836 174.296 48.2682 174.687 47.7772 174.727C46.527 174.832 45.243 174.435 45.243 174.435C45.243 174.435 42.7088 161.934 43.4353 155.678C44.1618 149.423 39.9688 134.211 39.9688 134.211L52.2733 133.818Z" fill="#4838D1"/>
<path d="M44.0669 110.001L46.3266 111.471L48.3846 110.893C48.7605 110.359 48.8597 109.329 48.8661 108.438C48.8684 107.892 48.8412 107.346 48.7848 106.803L45.7363 105.465L44.5991 104.967C44.5991 104.985 44.6878 105.895 44.7047 106.029C44.9127 108.394 44.0669 110.001 44.0669 110.001Z" fill="#FED9BB"/>
<path d="M52.3249 136.648C49.513 139.35 38.8714 138.895 38.2157 135.919C37.5599 132.943 38.9305 110.585 43.7339 109.18C44.7307 108.889 50.0599 110.603 50.0599 110.603C50.6477 112.214 51.1105 113.868 51.4443 115.55C51.5499 116.089 51.8614 121.803 52.0937 127.148C52.1992 129.647 52.2943 132.068 52.3407 133.84C52.384 135.499 52.3861 136.589 52.3249 136.648Z" fill="#F99746"/>
<path d="M44.9282 106.075C45.5459 107.117 47.7158 108.029 48.8657 108.448C48.868 107.9 48.8409 107.353 48.7844 106.809L45.736 105.467C45.0623 105.459 44.6526 105.609 44.9282 106.075Z" fill="#FAA47F"/>
<path d="M49.9346 106.622C49.9346 106.622 45.0235 108.146 44.1165 105.088C43.2095 102.03 41.9646 100.169 45.0615 99.0667C48.1585 97.9648 49.1173 98.9512 49.6695 99.8987C50.2218 100.846 51.189 106.146 49.9346 106.622Z" fill="#FED9BB"/>
<path d="M49.4761 99.6034C49.4761 99.6034 49.1593 103.161 48.4201 103.007C47.681 102.852 46.8669 102.522 46.9756 103.594C47.0844 104.667 46.2566 106.505 45.1901 106.501C42.903 106.491 40.4173 100.653 41.0435 99.5457C42.8533 96.3512 52.0873 95.7062 49.4761 99.6034Z" fill="#261C96"/>
<path d="M48.754 109.26C48.6906 109.233 45.0984 107.627 44.6781 107.765C44.2579 107.903 43.7341 109.183 43.7341 109.183L50.0602 110.608C50.0602 110.608 49.5618 109.6 48.754 109.26Z" fill="#F77A55"/>
<path d="M71.1205 126.573L50.982 145.437C50.5871 145.807 50.0887 145.924 49.8754 145.699L49.1953 144.981C48.9842 144.755 49.1299 144.268 49.5248 143.898L69.6633 125.032C70.0583 124.664 70.5566 124.545 70.7699 124.771L71.45 125.489C71.6633 125.715 71.5154 126.203 71.1205 126.573Z" fill="#7466E3"/>
<path d="M59.819 137.159L50.982 145.437C50.5871 145.807 50.0887 145.924 49.8754 145.7L49.1953 144.981C48.9842 144.755 49.1299 144.268 49.5248 143.898L58.3618 135.619L59.819 137.159Z" fill="#9487F1"/>
<path d="M66.4911 119.45C67.1925 121.738 68.4098 123.836 70.0504 125.585C71.6909 127.333 73.7112 128.686 75.9572 129.539C78.2031 130.393 80.6153 130.725 83.0098 130.509C85.4042 130.294 87.7176 129.538 89.7735 128.297C91.8293 127.057 93.5732 125.366 94.8722 123.354C96.1711 121.341 96.9908 119.059 97.2686 116.683C97.5465 114.308 97.2751 111.9 96.4753 109.644C95.6755 107.388 94.3684 105.344 92.6536 103.668C92.5734 103.588 92.49 103.508 92.4065 103.43C89.8718 101.058 86.6204 99.5862 83.1579 99.2426C79.6954 98.899 76.2158 99.7033 73.2601 101.53C70.3045 103.357 68.0384 106.105 66.8143 109.345C65.5901 112.586 65.4765 116.138 66.4911 119.45ZM71.003 104.953C72.9735 102.868 75.5209 101.413 78.3231 100.769C81.1252 100.125 84.0563 100.323 86.7455 101.337C89.4348 102.351 91.7615 104.135 93.4314 106.465C95.1012 108.794 96.0393 111.564 96.1269 114.424C96.2144 117.284 95.4476 120.105 93.9234 122.531C92.3992 124.958 90.186 126.88 87.5637 128.055C84.9415 129.229 82.028 129.604 79.1916 129.131C76.3553 128.659 73.7236 127.36 71.6292 125.399C70.2372 124.099 69.1166 122.538 68.3316 120.806C67.5466 119.074 67.1126 117.206 67.0545 115.307C66.9963 113.408 67.3151 111.516 67.9927 109.74C68.6702 107.964 69.6932 106.338 71.003 104.956V104.953Z" fill="#7466E3"/>
<g opacity="0.5">
<path opacity="0.5" d="M92.1819 124.779C90.2115 126.863 87.6641 128.319 84.8619 128.963C82.0597 129.606 79.1286 129.409 76.4392 128.395C73.7499 127.381 71.4231 125.597 69.7531 123.267C68.0832 120.938 67.1451 118.168 67.0575 115.308C66.9699 112.448 67.7368 109.626 69.2611 107.2C70.7854 104.774 72.9986 102.852 75.621 101.677C78.2433 100.502 81.1569 100.127 83.9933 100.6C86.8297 101.073 89.4614 102.372 91.5557 104.333C92.9528 105.631 94.0779 107.19 94.8661 108.923C95.6543 110.655 96.0901 112.525 96.1483 114.426C96.2065 116.327 95.886 118.22 95.2053 119.997C94.5245 121.774 93.497 123.399 92.1819 124.779Z" fill="#BBB1FA"/>
</g>
<path d="M52.3408 133.839C41.2441 125.972 42.167 115.475 42.167 115.475C46.2228 117.751 50.248 122.783 52.0927 127.147C52.2025 129.647 52.2944 132.067 52.3408 133.839Z" fill="#F77A55"/>
<path d="M63.2932 130.257C64.0756 130.077 64.6014 129.489 64.7102 129.386C64.7102 129.386 65.0439 129.409 64.6563 130.121C64.6236 130.18 64.5508 130.331 64.4969 130.436C64.4918 130.446 64.4893 130.458 64.4897 130.469C64.4901 130.48 64.4933 130.491 64.499 130.501C64.5048 130.511 64.5129 130.519 64.5227 130.525C64.5325 130.531 64.5436 130.534 64.555 130.535C65.0069 130.569 65.4599 130.391 66.33 130.572C66.4503 130.597 66.4852 130.887 66.4809 131.004C66.4981 131.276 66.4147 131.544 66.2465 131.759C66.1072 131.942 65.7186 132.14 64.8443 132.489C64.5127 132.622 63.5645 132.521 62.6755 132.218L61.9648 131.89L62.1845 130.577L62.364 130.614C62.647 130.674 62.9975 130.325 63.2932 130.257Z" fill="#FED9BB"/>
<path d="M45.6156 110.603C45.6156 110.603 35.6445 112.494 48.549 126.857C50.6122 129.154 61.7628 132.146 61.7628 132.146C61.7628 132.146 62.8937 131.188 62.3235 130.413C62.3235 130.413 54.6459 124.867 52.9564 123.986C52.1972 123.588 50.0072 115.133 48.7686 113.096C47.53 111.058 45.6156 110.603 45.6156 110.603Z" fill="#F99746"/>
<path d="M64.8271 115.975C64.8271 115.975 65.1534 115.352 65.2178 115.024C65.2822 114.697 65.6919 113.737 65.8608 113.568C65.9284 113.5 66.1523 113.588 66.1776 113.878C66.1655 114.098 66.111 114.313 66.0171 114.512C65.8387 114.959 65.8682 115.568 65.8059 115.766C65.6528 116.262 64.8271 115.975 64.8271 115.975Z" fill="#FED9BB"/>
<path d="M68.7954 91.3492C68.7178 91.4345 68.6666 91.5402 68.6478 91.6537C68.6291 91.7671 68.6437 91.8836 68.6898 91.989C68.845 92.4156 69.3571 92.8925 69.9569 93.3684C70.0329 93.4294 70.1005 93.4851 70.1596 93.5365L70.205 93.5775L70.2399 93.608C70.7953 94.1175 70.5862 94.2383 71.583 95.2679C72.7202 96.4455 73.5037 96.4676 73.7265 96.3605C73.9145 96.2691 73.5322 95.644 73.1077 94.9422C73.0877 94.9086 73.0676 94.8739 73.0465 94.8371C72.9895 94.7436 72.9335 94.6491 72.8775 94.5545C72.3802 93.7141 72.508 93.3138 72.6262 92.0563C72.7223 91.0351 74.226 86.3496 74.226 86.3496L72.0465 85.9756C72.0465 85.9756 71.3887 89.7062 70.6654 90.2829C70.2789 90.5886 69.846 90.5981 69.4743 90.8198C69.4479 90.8355 69.4215 90.8513 69.3962 90.8681C69.1752 91.0011 68.9732 91.1629 68.7954 91.3492Z" fill="#FED9BB"/>
<path d="M68.7954 91.3493C68.7178 91.4345 68.6666 91.5402 68.6478 91.6537C68.6291 91.7671 68.6437 91.8836 68.6898 91.989C68.8799 92.4156 69.3793 92.8894 69.9569 93.3642C70.0319 93.4262 70.0984 93.483 70.1575 93.5365L70.2029 93.5775L70.2378 93.608C70.7932 94.1175 70.5841 94.2383 71.5809 95.2679C72.7181 96.4455 73.5016 96.4676 73.7244 96.3605C73.9124 96.2691 73.5301 95.644 73.1056 94.9422C72.3102 94.6326 71.611 94.1199 71.0783 93.4556C70.4194 92.6152 69.9717 91.5489 69.5229 90.8933L69.3941 90.8691C69.1739 91.002 68.9726 91.1634 68.7954 91.3493Z" fill="#261C96"/>
<path d="M86.3741 90.0004C86.5082 90.6706 87.467 90.5593 88.5388 90.2987C89.6105 90.0382 89.355 90.3481 90.8808 90.1811C92.4066 90.014 92.8681 89.4457 92.9145 89.2219C92.9557 89.0223 92.2028 88.9509 91.394 88.8584L91.0888 88.8217C90.1765 88.7072 89.5049 88.122 88.6792 87.6398C87.8947 87.1839 86.7236 85.3286 86.7236 85.3286L84.6318 85.4925C84.6318 85.4925 85.7289 87.1513 86.1534 87.872C86.4026 88.2922 86.3889 88.8574 86.3583 89.2902C86.3309 89.5265 86.3362 89.7655 86.3741 90.0004Z" fill="#FED9BB"/>
<path d="M88.5366 90.3066C89.6084 90.0457 89.3528 90.3562 90.8786 90.1883C92.4044 90.0204 92.8659 89.4491 92.9123 89.2242C92.9535 89.0236 92.2006 88.9518 91.3918 88.8589L91.3844 88.8747C90.7309 89.2934 89.9765 89.5276 89.2008 89.5526C88.166 89.5769 87.0699 89.2802 86.3561 89.2918C86.3287 89.5297 86.334 89.7702 86.372 90.0067C86.5061 90.6803 87.4648 90.5684 88.5366 90.3066Z" fill="#261C96"/>
<path d="M78.3618 76.6941L76.4052 81.927L73.8499 88.7556C73.3942 88.7891 72.9361 88.7476 72.4941 88.6327C71.8837 88.4562 71.1826 88.0023 71.1826 88.0023C71.1826 88.0023 71.8943 80.6642 73.2174 76.4525C73.5574 75.3715 73.9375 74.4974 74.3567 74.0047C76.4063 71.5989 78.3618 76.6941 78.3618 76.6941Z" fill="#261C96"/>
<path d="M76.3769 68.3807C75.2639 68.0225 72.3644 68.3733 69.2114 68.9396C68.7861 69.0157 68.3475 68.9616 67.9537 68.7846C67.5598 68.6075 67.2293 68.3158 67.0056 67.9479L59.0799 67.3291C59.0799 67.3291 56.4622 73.0987 57.893 76.7767C58.1042 77.3167 58.5646 77.6539 59.2773 77.6654C59.2773 77.6654 64.067 77.6739 65.5991 77.6749C69.5408 77.6749 73.9409 74.9813 74.5111 74.8689C75.4434 74.684 75.8151 76.5382 76.7464 78.4849C77.6777 80.4315 85.501 87.1088 85.501 87.1088C85.501 87.1088 86.7048 87.1214 87.2011 86.9355C87.7354 86.7369 87.9318 86.4774 87.9318 86.4774C87.9318 86.4774 79.2648 69.3083 76.3769 68.3807Z" fill="#4838D1"/>
<path d="M66.1716 44.7911C65.7143 44.5205 65.1893 44.3842 64.6574 44.3982C64.413 44.405 64.1685 44.3902 63.9267 44.354C60.9015 43.9118 59.0789 48.283 58.9712 49.6067C58.7748 52.0323 57.4845 52.401 55.6694 53.9191C52.0285 56.9656 53.095 60.5027 55.0844 61.8179C56.2786 62.6069 58.3831 61.8179 58.3831 61.8179C58.4127 61.8379 64.14 58.6349 66.9625 57.0906C71.1946 56.4907 67.8716 45.7985 66.1716 44.7911Z" fill="#261C96"/>
<path d="M64.5968 55.7703C64.6095 55.7787 63.2083 56.2535 62.2738 55.8407C61.3921 55.4531 60.7248 54.0099 60.7385 54.0088C61.1397 53.991 61.5832 53.6422 61.919 51.3545L62.0901 51.4154L64.9601 52.4438C64.9601 52.4438 64.7489 53.3607 64.6169 54.2294C64.5018 54.9647 64.4406 55.6664 64.5968 55.7703Z" fill="#FED9BB"/>
<path d="M64.9581 52.4483C64.9581 52.4483 64.8441 52.9458 64.6762 53.8744C63.0279 53.5765 62.3204 52.3057 62.0881 51.4141L64.9581 52.4483Z" fill="#FCBE99"/>
<path d="M65.3856 53.3538C65.3856 53.3538 61.4576 52.8286 61.825 50.3997C62.1925 47.9709 61.9306 46.269 64.4543 46.5012C66.9779 46.7333 67.3242 47.7334 67.3992 48.5739C67.4742 49.4143 66.4172 53.4242 65.3856 53.3538Z" fill="#FED9BB"/>
<path d="M67.2622 47.2424C67.2622 47.2424 64.747 49.3965 63.0385 49.5698C61.3301 49.7431 60.6807 49.1969 60.6807 49.1969C61.3635 48.5898 61.9134 47.8494 62.2962 47.0218C62.3832 46.827 62.521 46.659 62.6954 46.535C62.8697 46.4111 63.0743 46.3359 63.2877 46.3171C64.5031 46.2121 66.8177 46.1648 67.2622 47.2424Z" fill="#261C96"/>
<path d="M65.6855 47.0495C65.6855 47.0495 66.5303 47.8585 66.7911 48.4594C67.0466 49.0383 67.1227 50.4231 66.9189 50.9736C66.9189 50.9736 68.2303 48.4384 67.4891 47.206C66.7024 45.9001 65.6855 47.0495 65.6855 47.0495Z" fill="#261C96"/>
<path d="M67.902 61.5281C67.7806 69.4376 67.8682 67.7851 66.9982 68.5352C66.787 68.7159 66.1988 68.8231 65.4238 68.8745C62.9857 69.0342 58.7007 68.6329 58.5381 68.1854C57.9764 66.6337 58.3734 66.1526 57.9046 63.7731C57.856 63.521 57.799 63.2479 57.725 62.9495C57.3344 61.3191 56.9532 60.7644 58.3428 58.1443C59.6014 55.7722 60.9097 53.8455 61.0269 53.9159C64.3467 55.8773 64.6171 54.2311 64.6171 54.2311C64.6171 54.2311 67.9622 57.6706 67.902 61.5281Z" fill="#F99746"/>
<path d="M76.4052 81.9264L73.8498 88.7549C73.3942 88.7884 72.9361 88.7469 72.4941 88.6319C71.8837 88.4555 71.1826 88.0016 71.1826 88.0016C71.1826 88.0016 71.8943 80.6637 73.2174 76.4521L76.4052 81.9264Z" fill="#4838D1"/>
<path d="M64.6147 54.2329C64.6147 54.2329 68.0317 54.8107 68.4319 56.2741C68.8321 57.7374 70.1499 66.6206 70.1499 66.6206C70.1499 66.6206 69.1869 67.5566 68.3844 66.7582C67.5819 65.9598 65.8618 58.4455 65.8618 58.4455L64.6147 54.2329Z" fill="#F99746"/>
<path d="M65.424 68.8745C62.9858 69.0342 58.7009 68.6329 58.5383 68.1853C57.9766 66.6336 58.3736 66.1524 57.9048 63.7727L59.0821 60.479C59.0821 60.479 58.8868 64.1478 59.9733 65.1133C61.0599 66.0788 64.4251 66.9771 64.953 67.7829C65.1826 68.1114 65.3428 68.4827 65.424 68.8745Z" fill="#F77A55"/>
<path d="M62.6309 67.3322C62.6309 67.3322 65.0362 66.7979 65.4248 67.0155C65.8134 67.233 66.7606 68.007 66.8788 68.2773C66.9971 68.5476 66.0151 68.0714 65.6962 67.9858C65.485 67.9299 64.9433 68.1189 64.6741 68.2097C63.5389 68.5877 62.8431 68.3924 62.8431 68.3924L62.6309 67.3322Z" fill="#FED9BB"/>
<path d="M61.0248 53.918C61.0248 53.918 57.7958 54.1144 56.6775 55.6661C55.1032 57.8493 51.9776 67.1543 53.7664 68.3961C55.7811 69.7955 62.9328 68.7628 62.9328 68.7628C62.9328 68.7628 63.1714 67.6565 62.8409 67.1207C62.5104 66.5849 57.1253 65.7161 56.8813 65.4723C56.6374 65.2286 59.9889 60.6522 59.9889 59.9105C59.9889 59.1688 61.0248 53.918 61.0248 53.918Z" fill="#F99746"/>
<path d="M65.541 67.6768C65.541 67.6768 66.0447 68.3272 66.2094 68.4043C66.2927 68.4496 66.3872 68.4701 66.4818 68.4634L66.1418 67.852L65.541 67.6768Z" fill="#FED9BB"/>
<path d="M65.4248 67.0112L66.8894 67.7229C66.8607 67.7585 66.8231 67.7859 66.7805 67.8024C66.7379 67.8189 66.6917 67.8239 66.6465 67.8169C66.4303 67.7787 66.2182 67.7204 66.013 67.6427L65.4248 67.0112Z" fill="#FED9BB"/>
<path d="M77.9354 68.6791L62.6309 68.6738V69.0117L77.7991 69.017L77.9354 68.6791Z" fill="#261C96"/>
<path d="M66.2092 69.0113L77.7991 69.0155L81.2878 60.3914L69.716 60.3872L66.2092 69.0113Z" fill="#261C96"/>
<path d="M74.875 64.7046C74.9616 64.3994 74.7863 64.1523 74.4812 64.1523C74.3206 64.1612 74.1666 64.2189 74.0396 64.3175C73.9127 64.4162 73.8188 64.5512 73.7705 64.7046C73.6829 65.0087 73.8592 65.2558 74.1644 65.2558C74.3247 65.2467 74.4785 65.1891 74.6054 65.0907C74.7323 64.9922 74.8263 64.8576 74.875 64.7046Z" fill="white"/>
<path d="M153.31 101.54C151.748 101.024 150.67 101.675 150.67 101.675C146.174 101.859 146.007 106.444 146.535 108.15C147.274 110.545 144.654 112.435 147.563 113.402C150.942 114.528 153.769 113.192 153.581 113.772C164.245 114.61 156.861 102.712 153.31 101.54Z" fill="#261C96"/>
<path d="M148.647 123.835C148.304 124.474 147.901 125.079 147.445 125.644C146.512 126.807 141.61 124.045 142.033 123.835C142.455 123.625 144.918 116.567 145.504 115.679C146.09 114.792 148.09 114.332 148.09 114.332L148.647 123.835Z" fill="#F99746"/>
<path d="M165.187 171.448C165.187 171.448 166.54 172.676 166.276 173.549C166.012 174.422 164.791 175.003 164.626 176.07C164.462 177.137 163.802 177.718 163.207 177.718H160.376C160.376 177.718 159.939 176.967 160.995 176.741C162.051 176.515 162.449 175.261 162.383 174.098C162.316 172.935 162.482 171.383 162.482 171.383L164.726 170.866L165.187 171.448Z" fill="#7466E3"/>
<path d="M153.742 171.968C153.742 171.968 154.229 177.172 153.636 177.463L146.034 177.447C146.034 177.447 146.034 176.575 147.254 176.381C148.475 176.186 150.621 175.476 150.983 173.892C151.345 172.308 153.742 171.968 153.742 171.968Z" fill="#3528B3"/>
<path d="M159.585 120.325C159.652 121.489 159.652 122.656 159.585 123.821C159.51 125.081 158.224 126.778 158.042 127.196C157.585 128.246 157.069 128.417 157.069 128.417L153.078 129.391L151.675 129.732L147.25 128.417C147.25 128.417 145.235 122.82 146.044 119.67C146.854 116.519 148.09 114.331 148.09 114.331C148.09 114.331 151.097 113.659 156.402 114.034L159.585 120.325Z" fill="#F99746"/>
<path d="M159.964 123.865C159.89 125.125 158.224 126.778 158.042 127.196C157.584 128.247 157.069 128.417 157.069 128.417L153.078 129.391L152.358 127.336C152.358 127.336 158.188 125.811 157.251 120.442L159.964 123.865Z" fill="#F77A55"/>
<path d="M147.531 129.267C147.531 129.267 145.34 136.052 145.199 138.364C145.059 140.675 149.388 171.185 149.562 172.249C149.726 173.252 150.978 173.892 150.978 173.892C151.414 174.104 151.914 174.141 152.376 173.997C153.518 173.682 153.878 173.293 153.878 173.293C153.878 173.293 155.583 151.533 154.528 143.76C153.886 138.953 153.529 134.112 153.46 129.263L147.531 129.267Z" fill="#261C96"/>
<path d="M156.816 129.064C156.816 129.064 160.158 133.527 160.469 136.543C160.781 139.559 160.958 150.154 161.622 153.095C162.286 156.035 164.723 161.694 164.723 170.866C164.723 170.866 164.47 171.391 163.686 171.671C163.388 171.772 163.083 171.855 162.775 171.922C162.461 171.993 162.133 171.957 161.842 171.82C161.551 171.683 161.315 171.452 161.172 171.165C159.524 167.862 154.271 157.207 154.002 154.996C153.811 153.431 152.153 143.072 148.534 136.995C147.666 135.536 149.062 129.733 149.062 129.733L156.816 129.064Z" fill="#4838D1"/>
<path d="M147.182 128.223C147.182 128.223 148.061 128.919 149.809 128.954C151.896 128.996 157.068 128.426 157.068 128.426C157.211 128.852 157.285 129.297 157.289 129.746C157.289 129.746 150.971 131.341 147.311 129.98C147.311 129.971 146.839 129.083 147.182 128.223Z" fill="#261C96"/>
<path d="M149.307 130.748C148.779 130.748 148.357 130.264 148.357 129.669C148.357 129.075 148.779 128.591 149.307 128.591C149.835 128.591 150.258 129.075 150.258 129.669C150.258 130.264 149.835 130.748 149.307 130.748ZM149.307 128.907C148.956 128.907 148.674 129.249 148.674 129.669C148.674 130.09 148.959 130.432 149.307 130.432C149.656 130.432 149.941 130.09 149.941 129.669C149.941 129.249 149.659 128.907 149.307 128.907Z" fill="white"/>
<path d="M153.872 132.687L144.377 132.776L139.705 121.851L149.199 121.763L153.872 132.687Z" fill="#F77A55"/>
<path d="M152.63 127.751L151.934 126.9C151.934 126.9 151.463 126.48 151.121 126.41C150.779 126.341 150.058 125.926 149.988 126.043C149.918 126.159 150.543 126.988 150.543 126.988H150.574C149.857 127.525 148.047 127.051 147.829 127.27C147.558 127.535 148.202 128.11 148.547 128.425C148.892 128.74 149.879 129.284 150.649 129.046C151.212 128.872 152.097 128.694 152.097 128.694L152.63 127.751Z" fill="#FED9BB"/>
<path d="M140.418 123.775C140.418 123.775 141.016 123.096 141.395 123.423C141.774 123.749 141.296 125.348 140.935 125.185C140.574 125.022 140.211 123.974 140.418 123.775Z" fill="#FED9BB"/>
<path d="M156.402 114.034C156.402 114.034 159.12 114.331 161.07 117.858C162.608 120.639 165.238 125.765 164.245 127.208C163.81 127.844 159.635 130.106 151.58 128.813C151.58 128.813 151.707 127.801 152.357 127.332C152.357 127.332 159.134 125.167 159.124 124.736C159.102 123.922 158.207 123.218 154.422 119.45C153.392 118.43 156.402 114.034 156.402 114.034Z" fill="#F99746"/>
<path d="M154.31 114.177C154.403 114.052 154.282 113.651 154.134 112.916C153.998 112.246 153.769 111.209 153.774 110.043L153.574 110.077L150.205 110.64C150.205 110.64 150.282 111.536 150.284 112.38V112.401C150.284 113.137 150.085 114.243 150.333 114.387C151.61 115.131 153.953 114.656 154.31 114.177Z" fill="#FED9BB"/>
<path d="M150.205 110.641C150.205 110.641 150.272 111.908 150.274 112.759C152.159 112.714 153.165 110.884 153.574 110.075L150.205 110.641Z" fill="#FED9BB"/>
<path d="M150.002 112.15C150.002 112.15 154.418 111.52 153.984 108.788C153.55 106.057 153.828 104.138 150.989 104.423C148.151 104.708 147.771 105.835 147.693 106.782C147.614 107.728 148.841 112.238 150.002 112.15Z" fill="#FED9BB"/>
<path d="M148.972 104.676C148.972 104.676 150.691 107.686 152.617 107.867C154.543 108.047 155.267 107.426 155.267 107.426C154.227 106.773 153.447 105.78 153.061 104.618C153.061 104.618 149.638 103.011 148.972 104.676Z" fill="#261C96"/>
<path d="M149.313 104.889C149.313 104.889 148.469 105.364 148.208 106.07C147.884 106.898 147.817 107.804 148.014 108.67C148.014 108.67 146.757 106.638 147.581 105.245C148.454 103.768 149.313 104.889 149.313 104.889Z" fill="#261C96"/>
<path d="M246.609 177.326H1.8111C1.64198 177.326 1.50488 177.463 1.50488 177.632V177.808C1.50488 177.977 1.64198 178.114 1.8111 178.114H246.609C246.778 178.114 246.915 177.977 246.915 177.808V177.632C246.915 177.463 246.778 177.326 246.609 177.326Z" fill="#261C96"/>
</svg>
