<svg width="257" height="186" viewBox="0 0 257 186" fill="none" xmlns="http://www.w3.org/2000/svg">
<g filter="url(#filter0_d_613_8158)">
<path d="M241.36 177.397C225.714 177.397 14.1622 176.942 14.1622 176.917C14.0746 176.713 -12.693 144.071 21.013 109.944C37.7145 93.0297 5.67578 71.1265 21.013 52.3173C47.2853 20.0966 73.281 38.2398 94.9358 29.1808C98.7614 27.5808 102.601 25.0069 106.445 21.0558C108.586 18.8613 110.958 16.9026 113.52 15.2136C113.909 14.9552 114.302 14.7034 114.699 14.4583C116.22 13.5203 117.794 12.6693 119.412 11.9096C120.502 11.3976 121.613 10.9245 122.745 10.4903C124.553 9.79805 126.396 9.20189 128.268 8.70435C130.974 7.98544 133.726 7.4481 136.504 7.09595C137.729 6.93766 138.964 6.81265 140.209 6.7209C164.406 4.91078 191.633 15.0907 205.689 29.9687C208.519 32.9649 221.384 48.468 211.242 69.7755C204.839 83.229 231.664 96.0784 241.195 111.441C265.437 150.496 241.582 176.887 241.36 177.397Z" fill="#F8F8FD"/>
<g opacity="0.8">
<path opacity="0.8" d="M186.611 86.5841C185.976 88.3217 185.186 89.9992 184.251 91.5963C180.612 97.7745 174.912 102.488 168.142 104.918C161.372 107.347 153.96 107.339 147.195 104.894C135.395 100.627 127.816 89.9238 127.008 78.2101C126.9 76.6552 126.913 75.0944 127.047 73.5415C127.472 68.6558 129.062 63.9415 131.687 59.7908C131.7 59.7687 131.712 59.7498 131.726 59.7277C135.773 53.398 142.011 48.7635 149.261 46.7009C150.011 46.4865 150.771 46.3009 151.54 46.1441C157.104 45.0042 162.876 45.428 168.211 47.368C168.947 47.6334 169.665 47.9241 170.366 48.2399C175.372 50.4763 179.679 54.014 182.834 58.4807C185.199 61.8208 186.871 65.5965 187.753 69.5872C187.941 70.4423 188.093 71.3066 188.209 72.1799C188.848 77.0395 188.299 81.9808 186.608 86.5841H186.611Z" fill="#F3F1FE"/>
<path opacity="0.8" d="M152.586 59.707C150.769 61.1074 151.25 64.8548 148.103 62.7421C144.957 60.6294 142.982 59.4854 142.092 61.3249C141.202 63.1644 143.993 64.1772 143.254 66.1859C142.514 68.1945 141.027 68.4068 139.452 66.7574C137.878 65.108 137.833 63.5206 135.282 63.5731C132.732 63.6256 131.645 62.5824 131.769 60.6778C131.791 60.381 131.762 60.0829 131.686 59.7953C131.699 59.7732 131.711 59.7543 131.725 59.7322C135.772 53.4025 142.01 48.7679 149.26 46.7052C150.01 46.4909 150.77 46.3053 151.539 46.1484C152.428 46.5077 153.381 47.2368 153.887 48.7003C154.996 51.9181 156.797 51.1607 155.268 53.8564C153.739 56.5522 154.368 57.2182 156.037 57.7078C157.705 58.1974 159.627 58.8981 159.367 60.2113C159.107 61.5245 154.403 58.3066 152.586 59.707Z" fill="#BBB1FA"/>
<path opacity="0.8" d="M186.611 86.584C185.976 88.3217 185.186 89.9992 184.251 91.5963C182.081 95.2906 179.152 98.4881 175.657 100.98C174.81 100.965 173.998 100.647 173.369 100.083C170.289 97.344 174.371 94.435 176.521 93.0199C178.671 91.6047 174.68 91.1351 172.667 88.3774C170.655 85.6196 175.366 81.8816 172.339 81.6799C169.312 81.4782 165.627 81.2828 165.011 78.0554C164.394 74.828 167.58 75.492 167.017 72.7731C166.454 70.0542 169.094 69.5447 171.912 70.321C174.73 71.0974 175.08 69.0288 178.572 69.968C182.064 70.9073 180.421 75.1842 184.274 76.2537C188.127 77.3231 187.644 78.1226 187.644 78.1226C187.917 78.2136 188.165 78.3665 188.368 78.5691C188.145 81.3069 187.554 84.0026 186.611 86.584Z" fill="#BBB1FA"/>
<path opacity="0.8" d="M188.211 72.1801C184.542 72.5625 184.79 68.005 181.675 68.275C178.534 68.5471 179.88 66.3251 178.324 64.0295C176.767 61.734 171.524 62.9789 172.59 60.6571C173.655 58.3353 176.582 60.1518 177.955 58.4824C179.328 56.813 182.228 58.4046 182.228 58.4046C182.433 58.4016 182.636 58.4271 182.833 58.4803C185.199 61.8205 186.871 65.5964 187.753 69.5872C187.942 70.4424 188.095 71.3067 188.211 72.1801Z" fill="#BBB1FA"/>
<path opacity="0.8" d="M164.96 54.4331C164.96 54.4331 167.451 52.6776 165.109 51.0472C162.767 49.4167 162.483 50.3401 160.542 49.3957C158.601 48.4512 157.24 49.7193 158.135 51.9643C159.029 54.2093 159.064 57.9104 161.068 56.6697C163.072 55.429 163.288 54.0181 164.96 54.4331Z" fill="#BBB1FA"/>
</g>
<path d="M198.997 112.019C198.997 112.019 199.234 109.671 198.001 109.752C196.768 109.833 196.44 110.395 196.579 110.847C196.717 111.299 197.917 112.79 197.917 112.79L198.997 112.019Z" fill="#FED9BB"/>
<path d="M218.218 116.722C218.218 116.722 216.853 118.317 213.916 120.16C213.637 120.334 213.347 120.511 213.04 120.685C211.746 121.432 210.401 122.09 209.017 122.654C208.847 122.723 208.647 122.8 208.423 122.881C206.663 123.511 203.425 124.409 201.418 124.489C201.244 124.496 201.078 124.496 200.924 124.489C197.87 124.367 197.498 112.574 197.498 112.574C197.498 112.574 197.838 111.394 199.407 111.692C199.407 111.692 201.79 118.351 202.644 118.894C203.402 119.376 207.762 112.801 211.514 112.342C214.041 112.038 218.218 116.722 218.218 116.722Z" fill="#9487F1"/>
<path d="M210.01 174.231C210.01 174.231 210.235 176.827 209.684 177.097L202.625 177.082C202.625 177.082 202.625 176.272 203.759 176.091C204.893 175.91 206.885 175.251 207.221 173.78C207.558 172.309 210.01 174.231 210.01 174.231Z" fill="#3528B3"/>
<path d="M204.836 142.81C204.871 144.507 204.953 146.259 205.114 147.832C205.876 155.3 206.143 164.326 206.253 166.062C206.443 169.081 207.043 173.905 207.043 173.905C207.043 173.905 208.232 175.028 210.549 174.491C210.549 174.491 212.47 167.544 212.899 160.228C212.906 160.108 212.913 159.987 212.919 159.867C212.969 158.9 213.024 157.794 213.074 156.601C213.427 148.617 213.813 136.746 213.813 136.746L204.956 134.677C204.956 134.677 204.744 138.578 204.836 142.81Z" fill="#4838D1"/>
<path d="M204.836 142.81C207.081 146.663 211.36 153.763 213.072 156.601C213.425 148.617 213.811 136.746 213.811 136.746L204.954 134.677C204.954 134.677 204.744 138.578 204.836 142.81Z" fill="#261C96"/>
<path d="M208.426 122.884C206.666 123.514 203.428 124.412 201.421 124.492C201.728 124.435 203.962 123.995 204.789 123.002C205.676 121.935 207.17 119.037 208.359 120.219C208.916 120.777 208.751 121.877 208.426 122.884Z" fill="#9487F1"/>
<path d="M223.307 141.559C223.307 141.559 223.856 143.704 223.766 144.185C223.677 144.666 223.139 146.276 222.804 146.677C222.47 147.078 222.456 144.935 222.234 144.599C222.013 144.263 222.129 145.398 221.953 145.492C221.778 145.585 221.477 144.632 221.345 144.293C221.213 143.955 221.82 142.779 221.873 141.935C221.926 141.091 223.307 141.559 223.307 141.559Z" fill="#FED9BB"/>
<path d="M227.597 171.279C227.597 171.279 228.854 172.42 228.609 173.231C228.364 174.042 227.23 174.581 227.077 175.572C226.924 176.563 226.31 177.104 225.759 177.104H223.129C223.129 177.104 222.723 176.406 223.703 176.196C224.683 175.986 225.054 174.822 224.992 173.741C224.931 172.66 225.084 171.219 225.084 171.219L227.169 170.739L227.597 171.279Z" fill="#3528B3"/>
<path d="M206.344 136.928C206.344 136.928 214.635 154.577 219.048 162.325C223.46 170.072 224.839 172.23 224.839 172.23C224.839 172.23 227.367 171.24 227.598 170.564C227.598 170.564 225.908 155.613 222.951 151.97C221.282 149.91 219.32 143.73 219.228 141.569C219.136 139.408 217.2 134.249 217.2 134.249L206.344 136.928Z" fill="#4838D1"/>
<path d="M204.798 136.01C204.798 136.01 207.498 138.901 212.084 139.774C214.096 140.157 218.184 140.528 219.198 139.102C219.436 138.766 219.438 138.271 219.385 137.497C219.248 135.484 218.74 131.595 221.037 123.778C221.24 123.094 221.387 122.395 221.478 121.688C221.98 117.689 221.925 114.671 218.437 113.058C213.213 110.642 211.068 112.629 211.068 112.629C211.068 112.629 208.289 113.921 207.019 117.687C204.482 125.218 204.798 136.01 204.798 136.01Z" fill="#9487F1"/>
<path d="M215.304 112.394C214.734 112.777 214.072 113.003 213.385 113.048C212.699 113.092 212.013 112.955 211.397 112.649C211.284 112.592 211.298 111.815 211.327 111.053C211.355 110.29 211.426 109.569 211.426 109.569L213.285 108.354L215.059 107.199C214.849 111.18 215.701 112.112 215.304 112.394Z" fill="#FED9BB"/>
<path d="M214.75 108.843C214.75 108.843 213.544 110.648 211.33 111.054C211.358 110.303 211.435 109.474 211.435 109.474L213.285 108.348L214.75 108.843Z" fill="#FAA47F"/>
<path d="M209.764 109.101C209.764 109.101 214.262 110.771 215.263 108.014C216.264 105.257 217.519 103.614 214.689 102.431C211.859 101.248 210.916 102.102 210.353 102.942C209.79 103.781 208.619 108.595 209.764 109.101Z" fill="#FED9BB"/>
<path d="M218.066 102.741C218.117 102.702 218.222 102.683 218.441 102.713C218.331 102.619 218.2 102.552 218.058 102.52C218.073 102.212 218.018 101.65 217.53 101.419C217.605 101.484 217.663 101.565 217.702 101.656C217.74 101.747 217.758 101.845 217.753 101.944C217.275 101.209 216.076 100.513 212.459 100.093C207.69 99.5383 208.644 102.834 209.185 103.31C209.727 103.786 211.446 103.109 212.564 103.421C213.683 103.733 213.571 105.403 213.911 105.702C214.251 106 214.178 105.577 214.744 105.444C215.31 105.312 215.189 106.18 214.929 106.705C214.668 107.23 215.237 108.109 215.237 108.109L216.111 107.478C216.987 106.848 218.318 103.705 218.128 102.942C218.098 102.879 218.083 102.811 218.066 102.741Z" fill="#191179"/>
<path d="M219.389 137.497C219.251 135.484 218.743 131.595 221.04 123.778C221.243 123.094 221.39 122.395 221.481 121.688C219.775 121.128 216.666 122.373 216.666 122.373C216.666 122.373 215.935 132.706 219.389 137.497Z" fill="#9487F1"/>
<path d="M219.381 113.58C219.381 113.58 221.481 114.34 222.82 119.871C223.705 123.525 225.334 128.896 225.518 130.586C225.702 132.277 223.655 142.156 223.655 142.156C223.655 142.156 223.367 142.366 222.66 142.224C222.268 142.154 221.916 141.944 221.668 141.634C221.668 141.634 221.179 135.048 221.305 131.938C221.358 130.646 215.294 122.476 212.021 121.423C210.735 121.007 219.381 113.58 219.381 113.58Z" fill="#9487F1"/>
<path d="M190.014 106.42C190.014 106.42 196.083 106.249 203.085 107.532L203.817 105.698L204.62 103.688C204.62 103.688 197.589 100.676 193.362 96.4834L190.014 106.42Z" fill="#DDD7FC"/>
<path d="M193.458 96.3853L189.974 106.617C189.853 106.582 189.741 106.523 189.644 106.443C189.547 106.363 189.467 106.264 189.41 106.152C189.353 106.04 189.32 105.918 189.311 105.793C189.303 105.668 189.321 105.543 189.363 105.425L192.426 96.8276C192.461 96.7291 192.516 96.6388 192.588 96.5625C192.659 96.4862 192.746 96.4253 192.842 96.3838C192.939 96.3423 193.043 96.321 193.148 96.3213C193.253 96.3215 193.357 96.3433 193.453 96.3853H193.458Z" fill="#F99746"/>
<path d="M196.785 114.033C197.111 114.097 197.45 114.03 197.727 113.846C198.004 113.662 198.197 113.377 198.263 113.053L199.462 107.081C199.527 106.756 199.459 106.419 199.274 106.144C199.09 105.868 198.803 105.677 198.477 105.611C198.151 105.547 197.812 105.614 197.535 105.798C197.258 105.981 197.065 106.267 196.999 106.592L195.799 112.562C195.735 112.887 195.802 113.224 195.987 113.5C196.172 113.775 196.458 113.967 196.785 114.033Z" fill="#F99746"/>
<path d="M190.014 106.426C190.014 106.426 196.083 106.254 203.085 107.543L203.817 105.7C197.233 104.356 190.014 106.426 190.014 106.426Z" fill="#9487F1"/>
<path d="M201.149 107.163L203.05 107.495C203.021 107.495 204.811 107.841 205.398 106.263C205.451 106.155 205.489 106.04 205.511 105.922C205.967 103.954 204.877 103.592 204.877 103.592L202.437 102.646L201.662 105.377V105.387L201.149 107.163Z" fill="#F99746"/>
<path d="M201.149 107.173L203.05 107.507C203.021 107.507 204.811 107.854 205.398 106.268C204.325 105.488 201.665 105.376 201.665 105.376V105.385L201.149 107.173Z" fill="#F77A55"/>
<path d="M196.946 108.256C196.946 108.256 197.874 108.625 197.704 109.034C197.534 109.443 196.355 110.004 196.168 109.682C195.981 109.36 196.363 107.909 196.946 108.256Z" fill="#FED9BB"/>
<path d="M199.015 111.658C199.101 111.2 199.163 110.739 199.2 110.274C199.212 109.838 199.263 109.483 199.16 109.47C199.058 109.457 198.983 109.538 198.942 109.681C198.901 109.825 198.739 110.69 198.739 110.69L198.82 111.534L199.015 111.658Z" fill="#FED9BB"/>
<path d="M107.269 111.033L102.014 173.205C102.014 173.205 101.463 176.973 104.28 176.98C108.913 176.991 127.339 176.98 127.339 176.98C127.339 176.98 123.854 176.196 123.895 174.431C123.944 172.349 130.037 110.444 130.037 110.444L107.269 111.033Z" fill="#9487F1"/>
<path d="M129.068 175.877C128.157 175.877 110.318 175.909 105.806 175.852C103.84 175.827 103.496 174.112 103.483 173.003C103.478 172.693 103.498 172.383 103.544 172.077L103.68 170.461L104.028 166.342L104.335 162.704L104.731 158.028L105.064 154.081L108.799 109.903L131.568 109.316C131.568 109.316 129.001 135.223 127.186 154.081C126.983 156.182 126.791 158.197 126.612 160.078C126.554 160.678 126.498 161.265 126.445 161.837C126.276 163.623 126.122 165.26 125.989 166.707C125.918 167.468 125.853 168.177 125.794 168.827C125.563 171.369 125.427 172.993 125.425 173.302C125.423 173.471 125.438 173.639 125.47 173.805C125.839 175.786 128.726 175.877 129.068 175.877Z" fill="#BBB1FA"/>
<path d="M51.9692 77.2007L64.7701 128.36L66.523 135.367L72.4858 159.196H183.257L161.28 77.2007H51.9692Z" fill="#DDD7FC"/>
<path d="M51.9693 77.2007L50.1943 77.789L70.1269 160.975L72.4858 159.196L51.9693 77.2007Z" fill="#BBB1FA"/>
<path d="M70.127 160.985H180.216L183.256 159.196H72.4859L70.127 160.985Z" fill="#9487F1"/>
<path d="M108.786 177.003H132.623V175.87H108.786V177.003Z" fill="#DDD7FC"/>
<path d="M126.564 160.975L126.441 161.837L104.024 166.342L104.331 162.704L104.478 160.975H126.564Z" fill="#7466E3"/>
<path opacity="0.4" d="M129.069 175.877C128.157 175.877 110.319 175.91 105.807 175.852C103.841 175.828 103.496 174.112 103.484 173.003L125.794 168.827C125.563 171.369 125.428 172.993 125.426 173.302C125.424 173.471 125.438 173.64 125.47 173.805C125.84 175.787 128.726 175.877 129.069 175.877Z" fill="#7466E3"/>
<path d="M51.9692 77.2007H161.28L179.016 143.099H68.4585L51.9692 77.2007Z" fill="#DDD7FC"/>
<path d="M173.86 140.243H71.5112L67.8545 125.748L66.4396 120.139L65.862 117.852L62.1029 102.955L61.9087 102.178L59.9214 94.3043L59.0323 90.7807L58.2742 87.7751L56.4971 80.73H157.37L159.323 87.7751L160.155 90.7807L161.131 94.3043L167.563 117.515V117.517L168.108 119.483L168.361 120.396L172.801 136.421L173.86 140.243Z" fill="#9487F1"/>
<path d="M159.323 87.7764H58.2742L56.4971 80.73H157.37L159.323 87.7764Z" fill="#7466E3"/>
<path d="M60.6701 83.919C60.5476 83.4302 60.8454 83.0342 61.3343 83.0342C61.5883 83.0467 61.832 83.1389 62.0306 83.2977C62.2293 83.4566 62.3728 83.674 62.4409 83.919C62.5623 84.4079 62.2645 84.8039 61.7757 84.8039C61.5217 84.7915 61.2781 84.6993 61.0796 84.5405C60.8811 84.3816 60.7378 84.1641 60.6701 83.919Z" fill="#DDD7FC"/>
<path d="M63.612 83.919C63.4895 83.4302 63.7873 83.0342 64.2762 83.0342C64.5302 83.0467 64.7739 83.1389 64.9725 83.2977C65.1712 83.4566 65.3147 83.674 65.3828 83.919C65.5042 84.4079 65.2064 84.8039 64.7176 84.8039C64.4636 84.7915 64.22 84.6993 64.0215 84.5405C63.823 84.3816 63.6797 84.1641 63.612 83.919Z" fill="#DDD7FC"/>
<path d="M66.7786 83.919C66.6572 83.4302 66.9549 83.0342 67.4438 83.0342C67.6978 83.0466 67.9413 83.1388 68.1398 83.2976C68.3383 83.4565 68.4817 83.674 68.5494 83.919C68.6718 84.4079 68.3741 84.8039 67.8852 84.8039C67.6311 84.7914 67.3875 84.6992 67.1888 84.5404C66.9902 84.3815 66.8466 84.1641 66.7786 83.919Z" fill="#DDD7FC"/>
<path d="M137.305 39.7683C141.441 34.9357 147.82 25.2296 152.115 20.2584C152.313 20.0293 152.44 19.7486 152.482 19.4496C152.524 19.1506 152.478 18.8459 152.351 18.5717C152.224 18.2976 152.02 18.0656 151.765 17.9033C151.509 17.741 151.211 17.6552 150.908 17.6562H143.094L150.464 1.07211C150.781 0.364033 149.81 -0.200116 149.343 0.420763L131.519 24.1549C131.403 24.309 131.336 24.4935 131.325 24.6856C131.313 24.8776 131.359 25.0687 131.456 25.235C131.553 25.4014 131.698 25.5357 131.871 25.6212C132.044 25.7067 132.239 25.7397 132.43 25.716L141.278 24.6319L136.014 39.0171C135.725 39.8103 136.755 40.4102 137.305 39.7683Z" fill="#F77A55"/>
<path d="M100.511 69.2013C101.442 64.4518 102.03 55.6315 103.013 50.7317C103.058 50.5061 103.037 50.2722 102.953 50.0579C102.868 49.8437 102.724 49.6581 102.536 49.5233C102.349 49.3885 102.126 49.3101 101.895 49.2975C101.664 49.2849 101.435 49.3386 101.233 49.4522L96.0425 52.3601L94.7036 38.6042C94.6466 38.017 93.7902 38.0023 93.7142 38.5885L90.7967 60.9808C90.7778 61.1262 90.8023 61.2739 90.8671 61.4056C90.9319 61.5372 91.0342 61.647 91.1612 61.7213C91.2882 61.7957 91.4344 61.8312 91.5815 61.8236C91.7287 61.8159 91.8703 61.7654 91.9888 61.6784L97.4574 57.6664L99.3697 69.1803C99.4764 69.8169 100.387 69.8316 100.511 69.2013Z" fill="#DDD7FC"/>
<path d="M178.332 141.645L89.3997 149.104C82.6419 149.671 77.7603 142.821 80.53 136.666L118.207 52.7718C121.066 46.4065 129.852 45.6701 133.741 51.4691L184.99 127.901C188.75 133.513 185.084 141.079 178.332 141.645Z" fill="#F3F1FE"/>
<path d="M178.615 144.993L89.6816 152.452C87.5541 152.63 85.4167 152.253 83.4803 151.359C81.5439 150.464 79.8755 149.082 78.6396 147.35C77.4038 145.618 76.6433 143.595 76.4332 141.481C76.223 139.368 76.5705 137.236 77.4414 135.296L115.12 51.4013C116.971 47.2789 120.776 44.5916 125.298 44.2123C129.819 43.8331 134.024 45.8502 136.542 49.6059L187.798 126.045C188.983 127.813 189.684 129.857 189.832 131.976C189.98 134.096 189.57 136.217 188.643 138.131C187.715 140.044 186.302 141.684 184.543 142.888C182.784 144.093 180.739 144.819 178.611 144.997L178.615 144.993ZM125.865 50.9023C124.878 50.9777 123.93 51.3186 123.123 51.8885C122.316 52.4585 121.68 53.236 121.283 54.138L83.6058 138.032C83.2136 138.905 83.057 139.865 83.1515 140.816C83.246 141.768 83.5884 142.678 84.1447 143.458C84.7011 144.238 85.4522 144.86 86.324 145.262C87.1957 145.665 88.158 145.834 89.1156 145.754L178.048 138.295C179.006 138.214 179.926 137.887 180.717 137.345C181.509 136.803 182.145 136.065 182.562 135.204C182.98 134.343 183.164 133.388 183.097 132.434C183.03 131.48 182.715 130.561 182.181 129.765L130.922 53.329C130.379 52.5064 129.622 51.846 128.731 51.4185C127.84 50.9911 126.85 50.8126 125.865 50.9023Z" fill="#F77A55"/>
<path d="M123.781 128.811C123.678 127.727 123.796 126.634 124.128 125.597C124.443 124.615 124.962 123.709 125.649 122.938C126.365 122.146 127.234 121.505 128.205 121.053C129.22 120.568 130.386 120.27 131.703 120.159C132.92 120.041 134.149 120.141 135.33 120.456C136.372 120.734 137.346 121.221 138.193 121.886C139 122.533 139.663 123.339 140.14 124.254C140.641 125.222 140.941 126.28 141.021 127.365C141.125 128.44 141.006 129.525 140.673 130.552C140.352 131.525 139.833 132.421 139.149 133.186C138.427 133.985 137.549 134.628 136.568 135.077C135.456 135.584 134.262 135.887 133.042 135.973C131.725 136.084 130.526 135.984 129.442 135.674C128.41 135.391 127.445 134.903 126.606 134.241C125.803 133.601 125.141 132.804 124.661 131.899C124.158 130.941 123.859 129.889 123.781 128.811ZM137.531 112.803L124.72 113.877L119.218 70.4818L135.657 69.1035L137.531 112.803Z" fill="#F77A55"/>
<path d="M68.5571 115.465C68.5571 115.465 68.8369 114.841 69.0175 114.545C69.198 114.25 69.9678 113.39 70.1008 113.58C70.2339 113.77 70.7576 115.095 70.4778 115.465C70.198 115.835 70.4957 116.477 69.1051 116.866L68.5571 115.465Z" fill="#FED9BB"/>
<path d="M53.1333 111.525C53.1333 111.525 60.2386 117.425 63.0093 116.883C65.175 116.456 68.6003 115.375 68.6003 115.375C68.6003 115.375 69.5042 116.231 69.2487 117.256C69.2487 117.256 64.8846 121.341 61.776 121.368C56.9188 121.409 54.6253 118.971 54.6253 118.971L53.1333 111.525Z" fill="#F77A55"/>
<path d="M40.6721 173.763C40.6721 173.763 40.8833 177.074 41.5221 177.126C41.6077 177.132 44.7871 177.132 44.7871 177.132L48.8461 177.109C48.8461 177.109 48.8197 176.136 47.6328 175.93C46.4459 175.724 44.465 174.895 43.7428 173.334C42.9867 171.689 40.6721 173.763 40.6721 173.763Z" fill="#191179"/>
<path d="M40.439 173.994C40.439 173.994 41.6723 174.405 42.6353 174.405C43.3289 174.396 44.0185 174.299 44.687 174.114C44.687 174.114 44.9193 171.879 46.1969 166.955C46.8675 164.374 47.8241 161.056 49.1863 156.932C52.9506 145.535 54.0952 138.868 54.1998 138.237C54.1998 138.203 54.2072 138.187 54.2072 138.187L54.1955 138.181L42.6216 133.126C42.6216 133.126 44.0524 148.833 42.2267 154.861C41.9498 155.811 41.7287 156.775 41.5646 157.75C40.4126 164.299 40.439 173.994 40.439 173.994Z" fill="#4838D1"/>
<path d="M46.1968 166.954C46.8673 164.374 47.8239 161.055 49.1861 156.932C52.9504 145.535 54.095 138.868 54.1996 138.237C54.1996 138.218 54.1996 138.2 54.1996 138.181L42.6257 133.126C42.6257 133.126 44.0564 148.833 42.2307 154.861C41.971 155.704 46.1968 166.954 46.1968 166.954Z" fill="#261C96"/>
<path d="M49.7119 173.763C49.7119 173.763 49.9178 177.074 50.5566 177.126C50.6422 177.132 53.8215 177.132 53.8215 177.132L57.8805 177.109C57.8805 177.109 57.853 176.136 56.6672 175.93C55.4814 175.724 53.4995 174.895 52.7762 173.334C52.0254 171.689 49.7119 173.763 49.7119 173.763Z" fill="#7466E3"/>
<path d="M56.2733 133.497C56.2733 133.497 56.4243 143.674 54.6535 156.171C52.8828 168.669 53.4836 173.973 53.4836 173.973C53.4836 173.973 52.2682 174.365 51.7772 174.405C50.527 174.51 49.243 174.113 49.243 174.113C49.243 174.113 46.7088 161.611 47.4353 155.356C48.1618 149.101 43.9688 133.889 43.9688 133.889L56.2733 133.497Z" fill="#4838D1"/>
<path d="M48.0669 109.678L50.3266 111.148L52.3846 110.57C52.7605 110.036 52.8597 109.006 52.8661 108.115C52.8684 107.569 52.8412 107.023 52.7848 106.48L49.7363 105.142L48.5991 104.644C48.5991 104.662 48.6878 105.573 48.7047 105.706C48.9127 108.072 48.0669 109.678 48.0669 109.678Z" fill="#FED9BB"/>
<path d="M56.3249 136.326C53.513 139.028 42.8714 138.573 42.2157 135.597C41.5599 132.621 42.9305 110.263 47.7339 108.858C48.7307 108.567 54.0599 110.281 54.0599 110.281C54.6477 111.892 55.1105 113.546 55.4443 115.228C55.5499 115.767 55.8614 121.481 56.0937 126.826C56.1992 129.325 56.2943 131.746 56.3407 133.518C56.384 135.177 56.3861 136.267 56.3249 136.326Z" fill="#F99746"/>
<path d="M48.9282 105.752C49.5459 106.791 51.7158 107.7 52.8657 108.117C52.868 107.571 52.8409 107.026 52.7844 106.484L49.736 105.147C49.0623 105.138 48.6526 105.288 48.9282 105.752Z" fill="#FAA47F"/>
<path d="M53.9346 106.3C53.9346 106.3 49.0235 107.824 48.1165 104.766C47.2095 101.708 45.9646 99.846 49.0615 98.744C52.1585 97.642 53.1173 98.6285 53.6695 99.5761C54.2218 100.524 55.189 105.824 53.9346 106.3Z" fill="#FED9BB"/>
<path d="M53.4761 99.2809C53.4761 99.2809 53.1593 102.839 52.4201 102.685C51.681 102.53 50.8669 102.199 50.9756 103.272C51.0844 104.344 50.2566 106.183 49.1901 106.179C46.903 106.169 44.4173 100.33 45.0435 99.2231C46.8533 96.0284 56.0873 95.3834 53.4761 99.2809Z" fill="#261C96"/>
<path d="M52.754 108.938C52.6906 108.911 49.0984 107.305 48.6781 107.443C48.2579 107.581 47.7341 108.861 47.7341 108.861L54.0602 110.286C54.0602 110.286 53.5618 109.278 52.754 108.938Z" fill="#F77A55"/>
<path d="M75.1205 126.251L54.982 145.114C54.5871 145.484 54.0887 145.602 53.8754 145.377L53.1953 144.658C52.9842 144.432 53.1299 143.945 53.5248 143.575L73.6633 124.711C74.0583 124.342 74.5566 124.223 74.7699 124.449L75.45 125.168C75.6633 125.394 75.5154 125.881 75.1205 126.251Z" fill="#7466E3"/>
<path d="M63.819 136.837L54.982 145.115C54.5871 145.485 54.0887 145.602 53.8754 145.378L53.1953 144.659C52.9842 144.433 53.1299 143.946 53.5248 143.576L62.3618 135.297L63.819 136.837Z" fill="#9487F1"/>
<path d="M70.4911 119.128C71.1925 121.416 72.4098 123.514 74.0504 125.262C75.6909 127.011 77.7112 128.364 79.9572 129.217C82.2031 130.071 84.6153 130.402 87.0098 130.187C89.4042 129.972 91.7176 129.215 93.7735 127.975C95.8293 126.735 97.5732 125.044 98.8722 123.031C100.171 121.019 100.991 118.737 101.269 116.361C101.546 113.985 101.275 111.578 100.475 109.322C99.6755 107.066 98.3684 105.022 96.6536 103.345C96.5734 103.266 96.49 103.186 96.4065 103.108C93.8718 100.736 90.6204 99.2639 87.1579 98.9203C83.6954 98.5767 80.2158 99.381 77.2601 101.208C74.3045 103.035 72.0384 105.783 70.8143 109.023C69.5901 112.264 69.4765 115.816 70.4911 119.128ZM75.003 104.63C76.9735 102.546 79.5209 101.09 82.3231 100.447C85.1252 99.8032 88.0563 100.001 90.7455 101.015C93.4348 102.028 95.7615 103.813 97.4314 106.142C99.1012 108.472 100.039 111.242 100.127 114.101C100.214 116.961 99.4476 119.783 97.9234 122.209C96.3992 124.635 94.186 126.557 91.5637 127.732C88.9415 128.907 86.028 129.282 83.1916 128.809C80.3553 128.337 77.7236 127.038 75.6292 125.077C74.2372 123.776 73.1166 122.216 72.3316 120.484C71.5466 118.752 71.1126 116.883 71.0545 114.984C70.9963 113.085 71.3151 111.194 71.9927 109.418C72.6702 107.641 73.6932 106.016 75.003 104.633V104.63Z" fill="#7466E3"/>
<g opacity="0.5">
<path opacity="0.5" d="M96.1819 124.456C94.2115 126.541 91.6641 127.997 88.8619 128.64C86.0597 129.284 83.1286 129.086 80.4392 128.073C77.7499 127.059 75.4231 125.274 73.7531 122.945C72.0832 120.615 71.1451 117.845 71.0575 114.985C70.9699 112.125 71.7368 109.304 73.2611 106.877C74.7854 104.451 76.9986 102.529 79.621 101.354C82.2433 100.179 85.1569 99.8047 87.9933 100.277C90.8297 100.75 93.4614 102.049 95.5557 104.01C96.9528 105.308 98.0779 106.868 98.8661 108.6C99.6543 110.332 100.09 112.203 100.148 114.104C100.207 116.004 99.886 117.898 99.2053 119.674C98.5245 121.451 97.497 123.076 96.1819 124.456Z" fill="#BBB1FA"/>
</g>
<path d="M56.3408 133.517C45.2441 125.65 46.167 115.153 46.167 115.153C50.2228 117.428 54.248 122.46 56.0927 126.825C56.2025 129.325 56.2944 131.745 56.3408 133.517Z" fill="#F77A55"/>
<path d="M67.2932 129.934C68.0756 129.755 68.6014 129.166 68.7102 129.063C68.7102 129.063 69.0439 129.087 68.6563 129.799C68.6236 129.858 68.5508 130.009 68.4969 130.114C68.4918 130.124 68.4893 130.136 68.4897 130.147C68.4901 130.158 68.4933 130.169 68.499 130.179C68.5048 130.189 68.5129 130.197 68.5227 130.203C68.5325 130.209 68.5436 130.212 68.555 130.213C69.0069 130.246 69.4599 130.069 70.33 130.25C70.4503 130.275 70.4852 130.565 70.4809 130.682C70.4981 130.954 70.4147 131.222 70.2465 131.437C70.1072 131.621 69.7186 131.818 68.8443 132.167C68.5127 132.3 67.5645 132.2 66.6755 131.896L65.9648 131.568L66.1845 130.255L66.364 130.292C66.647 130.352 66.9975 130.003 67.2932 129.934Z" fill="#FED9BB"/>
<path d="M49.6156 110.28C49.6156 110.28 39.6445 112.171 52.549 126.534C54.6122 128.832 65.7628 131.824 65.7628 131.824C65.7628 131.824 66.8937 130.866 66.3235 130.09C66.3235 130.09 58.6459 124.544 56.9564 123.663C56.1972 123.266 54.0072 114.81 52.7686 112.773C51.53 110.736 49.6156 110.28 49.6156 110.28Z" fill="#F99746"/>
<path d="M68.8271 115.652C68.8271 115.652 69.1534 115.029 69.2178 114.701C69.2822 114.374 69.6919 113.414 69.8608 113.245C69.9284 113.177 70.1523 113.265 70.1776 113.555C70.1655 113.775 70.111 113.99 70.0171 114.189C69.8387 114.636 69.8682 115.245 69.8059 115.443C69.6528 115.939 68.8271 115.652 68.8271 115.652Z" fill="#FED9BB"/>
<path d="M72.7954 91.0267C72.7178 91.112 72.6666 91.2177 72.6478 91.3311C72.6291 91.4446 72.6437 91.5611 72.6898 91.6665C72.845 92.093 73.3571 92.5699 73.9569 93.0458C74.0329 93.1068 74.1005 93.1624 74.1596 93.2139L74.205 93.2549L74.2399 93.2853C74.7953 93.7948 74.5862 93.9157 75.583 94.9452C76.7202 96.1228 77.5037 96.1449 77.7265 96.0377C77.9145 95.9463 77.5322 95.3212 77.1077 94.6195C77.0877 94.5859 77.0676 94.5512 77.0465 94.5145C76.9895 94.421 76.9335 94.3264 76.8775 94.2319C76.3802 93.3914 76.508 92.9912 76.6262 91.7337C76.7223 90.7126 78.226 86.0273 78.226 86.0273L76.0465 85.6533C76.0465 85.6533 75.3887 89.3837 74.6654 89.9604C74.2789 90.2661 73.846 90.2756 73.4743 90.4973C73.4479 90.513 73.4215 90.5288 73.3962 90.5456C73.1752 90.6786 72.9732 90.8404 72.7954 91.0267Z" fill="#FED9BB"/>
<path d="M72.7954 91.027C72.7178 91.1122 72.6666 91.2179 72.6478 91.3313C72.6291 91.4448 72.6437 91.5613 72.6898 91.6667C72.8799 92.0932 73.3793 92.567 73.9569 93.0418C74.0319 93.1038 74.0984 93.1605 74.1575 93.2141L74.2029 93.2551L74.2378 93.2855C74.7932 93.795 74.5841 93.9158 75.5809 94.9453C76.7181 96.1229 77.5016 96.145 77.7244 96.0378C77.9124 95.9464 77.5301 95.3214 77.1056 94.6197C76.3102 94.3101 75.611 93.7974 75.0783 93.1332C74.4194 92.2928 73.9717 91.2265 73.5229 90.571L73.3941 90.5469C73.1739 90.6797 72.9726 90.8411 72.7954 91.027Z" fill="#261C96"/>
<path d="M90.3741 89.678C90.5082 90.3482 91.467 90.2369 92.5388 89.9763C93.6105 89.7158 93.355 90.0257 94.8808 89.8587C96.4066 89.6917 96.8681 89.1233 96.9145 88.8996C96.9557 88.7 96.2028 88.6285 95.394 88.5361L95.0888 88.4993C94.1765 88.3848 93.5049 87.7997 92.6792 87.3175C91.8947 86.8616 90.7236 85.0063 90.7236 85.0063L88.6318 85.1702C88.6318 85.1702 89.7289 86.829 90.1534 87.5497C90.4026 87.9699 90.3889 88.535 90.3583 88.9678C90.3309 89.2042 90.3362 89.4431 90.3741 89.678Z" fill="#FED9BB"/>
<path d="M92.5366 89.9838C93.6084 89.723 93.3528 90.0334 94.8786 89.8655C96.4044 89.6976 96.8659 89.1264 96.9123 88.9015C96.9535 88.7009 96.2006 88.6291 95.3918 88.5361L95.3844 88.552C94.7309 88.9706 93.9765 89.2049 93.2008 89.2299C92.166 89.2542 91.0699 88.9574 90.3561 88.9691C90.3287 89.207 90.334 89.4475 90.372 89.6839C90.5061 90.3576 91.4648 90.2457 92.5366 89.9838Z" fill="#261C96"/>
<path d="M82.3618 76.3717L80.4052 81.6043L77.8499 88.4326C77.3942 88.4661 76.9361 88.4246 76.4941 88.3097C75.8837 88.1332 75.1826 87.6794 75.1826 87.6794C75.1826 87.6794 75.8943 80.3416 77.2174 76.1301C77.5574 75.0491 77.9375 74.1751 78.3567 73.6824C80.4063 71.2768 82.3618 76.3717 82.3618 76.3717Z" fill="#261C96"/>
<path d="M80.3769 68.0575C79.2639 67.6993 76.3644 68.0502 73.2114 68.6164C72.7861 68.6925 72.3475 68.6385 71.9537 68.4614C71.5598 68.2844 71.2293 67.9926 71.0056 67.6247L63.0799 67.0059C63.0799 67.0059 60.4622 72.7758 61.893 76.454C62.1042 76.994 62.5646 77.3312 63.2773 77.3428C63.2773 77.3428 68.067 77.3512 69.5991 77.3522C73.5408 77.3522 77.9409 74.6585 78.5111 74.5461C79.4434 74.3612 79.8151 76.2155 80.7464 78.1623C81.6777 80.109 89.501 86.7867 89.501 86.7867C89.501 86.7867 90.7048 86.7993 91.2011 86.6133C91.7354 86.4148 91.9318 86.1553 91.9318 86.1553C91.9318 86.1553 83.2648 68.9852 80.3769 68.0575Z" fill="#4838D1"/>
<path d="M70.1716 44.4683C69.7143 44.1977 69.1893 44.0615 68.6574 44.0754C68.413 44.0823 68.1685 44.0675 67.9267 44.0313C64.9015 43.589 63.0789 47.9605 62.9712 49.2842C62.7748 51.71 61.4845 52.0788 59.6694 53.5969C56.0285 56.6436 57.095 60.1809 59.0844 61.4963C60.2786 62.2853 62.3831 61.4963 62.3831 61.4963C62.4127 61.5162 68.14 58.313 70.9625 56.7686C75.1946 56.1687 71.8716 45.4758 70.1716 44.4683Z" fill="#261C96"/>
<path d="M68.5968 55.4488C68.6095 55.4572 67.2083 55.932 66.2738 55.5192C65.3921 55.1315 64.7248 53.688 64.7385 53.687C65.1397 53.6691 65.5832 53.3203 65.919 51.0322L66.0901 51.0932L68.9601 52.1217C68.9601 52.1217 68.7489 53.0388 68.6169 53.9076C68.5018 54.643 68.4406 55.3448 68.5968 55.4488Z" fill="#FED9BB"/>
<path d="M68.9581 52.127C68.9581 52.127 68.8441 52.6243 68.6762 53.5525C67.0279 53.2547 66.3204 51.9845 66.0881 51.0933L68.9581 52.127Z" fill="#FCBE99"/>
<path d="M69.3856 53.0313C69.3856 53.0313 65.4576 52.5061 65.825 50.0773C66.1925 47.6485 65.9306 45.9467 68.4543 46.1789C70.9779 46.411 71.3242 47.4111 71.3992 48.2515C71.4742 49.0919 70.4172 53.1017 69.3856 53.0313Z" fill="#FED9BB"/>
<path d="M71.2622 46.9207C71.2622 46.9207 68.747 49.0751 67.0385 49.2484C65.3301 49.4217 64.6807 48.8755 64.6807 48.8755C65.3635 48.2683 65.9134 47.5278 66.2962 46.7001C66.3832 46.5053 66.521 46.3372 66.6954 46.2133C66.8697 46.0893 67.0743 46.0141 67.2877 45.9953C68.5031 45.8903 70.8177 45.843 71.2622 46.9207Z" fill="#261C96"/>
<path d="M69.6855 46.7267C69.6855 46.7267 70.5303 47.5357 70.7911 48.1366C71.0466 48.7155 71.1227 50.1002 70.9189 50.6508C70.9189 50.6508 72.2303 48.1156 71.4891 46.8832C70.7024 45.5773 69.6855 46.7267 69.6855 46.7267Z" fill="#261C96"/>
<path d="M71.902 61.2061C71.7806 69.1159 71.8682 67.4633 70.9982 68.2134C70.787 68.3941 70.1988 68.5013 69.4238 68.5528C66.9857 68.7124 62.7007 68.3111 62.5381 67.8636C61.9764 66.3119 62.3734 65.8307 61.9046 63.4512C61.856 63.199 61.799 62.9259 61.725 62.6275C61.3344 60.997 60.9532 60.4423 62.3428 57.8222C63.6014 55.45 64.9097 53.5233 65.0269 53.5937C68.3467 55.5551 68.6171 53.9088 68.6171 53.9088C68.6171 53.9088 71.9622 57.3484 71.902 61.2061Z" fill="#F99746"/>
<path d="M80.4052 81.6043L77.8498 88.4328C77.3942 88.4664 76.9361 88.4248 76.4941 88.3099C75.8837 88.1334 75.1826 87.6796 75.1826 87.6796C75.1826 87.6796 75.8943 80.3415 77.2174 76.1299L80.4052 81.6043Z" fill="#4838D1"/>
<path d="M68.6147 53.9111C68.6147 53.9111 72.0317 54.4889 72.4319 55.9523C72.8321 57.4157 74.1499 66.299 74.1499 66.299C74.1499 66.299 73.1869 67.2351 72.3844 66.4367C71.5819 65.6383 69.8618 58.1238 69.8618 58.1238L68.6147 53.9111Z" fill="#F99746"/>
<path d="M69.424 68.5525C66.9858 68.7122 62.7009 68.3109 62.5383 67.8634C61.9766 66.3117 62.3736 65.8306 61.9048 63.4511L63.0821 60.1577C63.0821 60.1577 62.8868 63.8262 63.9733 64.7916C65.0599 65.7571 68.4251 66.6553 68.953 67.461C69.1826 67.7894 69.3428 68.1607 69.424 68.5525Z" fill="#F77A55"/>
<path d="M66.6309 67.0095C66.6309 67.0095 69.0362 66.4752 69.4248 66.6927C69.8134 66.9102 70.7606 67.6842 70.8788 67.9545C70.9971 68.2248 70.0151 67.7486 69.6962 67.6631C69.485 67.6071 68.9433 67.7961 68.6741 67.8869C67.5389 68.265 66.8431 68.0696 66.8431 68.0696L66.6309 67.0095Z" fill="#FED9BB"/>
<path d="M65.0248 53.5957C65.0248 53.5957 61.7958 53.7922 60.6775 55.3438C59.1032 57.5268 55.9776 66.8315 57.7664 68.0733C59.7811 69.4726 66.9328 68.4399 66.9328 68.4399C66.9328 68.4399 67.1714 67.3337 66.8409 66.7979C66.5104 66.2621 61.1253 65.3933 60.8813 65.1496C60.6374 64.9059 63.9889 60.3297 63.9889 59.588C63.9889 58.8463 65.0248 53.5957 65.0248 53.5957Z" fill="#F99746"/>
<path d="M69.541 67.355C69.541 67.355 70.0447 68.0054 70.2094 68.0825C70.2927 68.1278 70.3872 68.1484 70.4818 68.1416L70.1418 67.5303L69.541 67.355Z" fill="#FED9BB"/>
<path d="M69.4248 66.688L70.8894 67.3997C70.8607 67.4352 70.8231 67.4626 70.7805 67.4791C70.7379 67.4956 70.6917 67.5006 70.6465 67.4937C70.4303 67.4555 70.2182 67.3971 70.013 67.3194L69.4248 66.688Z" fill="#FED9BB"/>
<path d="M81.9354 68.3588L66.6309 68.3535V68.6914L81.7991 68.6967L81.9354 68.3588Z" fill="#261C96"/>
<path d="M70.2092 68.6901L81.7991 68.6943L85.2878 60.0691L73.716 60.0649L70.2092 68.6901Z" fill="#261C96"/>
<path d="M78.875 64.3828C78.9616 64.0776 78.7863 63.8306 78.4812 63.8306C78.3206 63.8395 78.1666 63.8971 78.0396 63.9958C77.9127 64.0944 77.8188 64.2294 77.7705 64.3828C77.6829 64.6869 77.8592 64.934 78.1644 64.934C78.3247 64.9249 78.4785 64.8673 78.6054 64.7689C78.7323 64.6705 78.8263 64.5358 78.875 64.3828Z" fill="white"/>
<path d="M157.31 101.216C155.748 100.7 154.67 101.352 154.67 101.352C150.174 101.536 150.007 106.121 150.535 107.827C151.274 110.222 148.654 112.112 151.563 113.08C154.942 114.205 157.769 112.87 157.581 113.449C168.245 114.287 160.861 102.389 157.31 101.216Z" fill="#261C96"/>
<path d="M152.647 123.513C152.304 124.151 151.901 124.757 151.445 125.322C150.512 126.485 145.61 123.723 146.033 123.513C146.455 123.303 148.918 116.244 149.504 115.357C150.09 114.469 152.09 114.009 152.09 114.009L152.647 123.513Z" fill="#F99746"/>
<path d="M169.187 171.126C169.187 171.126 170.54 172.354 170.276 173.227C170.012 174.1 168.791 174.681 168.626 175.748C168.462 176.816 167.802 177.397 167.207 177.397H164.376C164.376 177.397 163.939 176.646 164.995 176.42C166.051 176.194 166.449 174.939 166.383 173.776C166.316 172.613 166.482 171.06 166.482 171.06L168.726 170.543L169.187 171.126Z" fill="#7466E3"/>
<path d="M157.742 171.646C157.742 171.646 158.229 176.85 157.636 177.141L150.034 177.125C150.034 177.125 150.034 176.253 151.254 176.059C152.475 175.864 154.621 175.154 154.983 173.57C155.345 171.986 157.742 171.646 157.742 171.646Z" fill="#3528B3"/>
<path d="M163.585 120.003C163.652 121.168 163.652 122.335 163.585 123.499C163.51 124.759 162.224 126.456 162.042 126.874C161.585 127.925 161.069 128.095 161.069 128.095L157.078 129.069L155.675 129.41L151.25 128.095C151.25 128.095 149.235 122.499 150.044 119.348C150.854 116.197 152.09 114.009 152.09 114.009C152.09 114.009 155.097 113.336 160.402 113.711L163.585 120.003Z" fill="#F99746"/>
<path d="M163.964 123.543C163.89 124.804 162.224 126.456 162.042 126.874C161.584 127.925 161.069 128.095 161.069 128.095L157.078 129.069L156.358 127.014C156.358 127.014 162.188 125.49 161.251 120.12L163.964 123.543Z" fill="#F77A55"/>
<path d="M151.531 128.944C151.531 128.944 149.34 135.73 149.199 138.041C149.059 140.352 153.388 170.862 153.562 171.926C153.726 172.93 154.978 173.57 154.978 173.57C155.414 173.781 155.914 173.819 156.376 173.675C157.518 173.359 157.878 172.971 157.878 172.971C157.878 172.971 159.583 151.211 158.528 143.438C157.886 138.63 157.529 133.789 157.46 128.94L151.531 128.944Z" fill="#261C96"/>
<path d="M160.816 128.742C160.816 128.742 164.158 133.204 164.469 136.221C164.781 139.237 164.958 149.832 165.622 152.772C166.286 155.713 168.723 161.372 168.723 170.543C168.723 170.543 168.47 171.068 167.686 171.349C167.388 171.449 167.083 171.533 166.775 171.6C166.461 171.671 166.133 171.635 165.842 171.498C165.551 171.36 165.315 171.13 165.172 170.843C163.524 167.54 158.271 156.885 158.002 154.674C157.811 153.108 156.153 142.75 152.534 136.672C151.666 135.213 153.062 129.41 153.062 129.41L160.816 128.742Z" fill="#4838D1"/>
<path d="M151.182 127.901C151.182 127.901 152.061 128.598 153.809 128.632C155.896 128.675 161.068 128.104 161.068 128.104C161.211 128.53 161.285 128.976 161.289 129.425C161.289 129.425 154.971 131.019 151.311 129.658C151.311 129.65 150.839 128.761 151.182 127.901Z" fill="#261C96"/>
<path d="M153.307 130.425C152.779 130.425 152.357 129.941 152.357 129.347C152.357 128.752 152.779 128.269 153.307 128.269C153.835 128.269 154.258 128.752 154.258 129.347C154.258 129.941 153.835 130.425 153.307 130.425ZM153.307 128.584C152.956 128.584 152.674 128.926 152.674 129.347C152.674 129.767 152.959 130.109 153.307 130.109C153.656 130.109 153.941 129.767 153.941 129.347C153.941 128.926 153.659 128.584 153.307 128.584Z" fill="white"/>
<path d="M157.872 132.365L148.377 132.453L143.705 121.529L153.199 121.44L157.872 132.365Z" fill="#F77A55"/>
<path d="M156.63 127.429L155.934 126.578C155.934 126.578 155.463 126.158 155.121 126.089C154.779 126.019 154.058 125.604 153.988 125.721C153.918 125.837 154.543 126.667 154.543 126.667H154.574C153.857 127.204 152.047 126.73 151.829 126.948C151.558 127.214 152.202 127.789 152.547 128.104C152.892 128.419 153.879 128.964 154.649 128.725C155.212 128.551 156.097 128.373 156.097 128.373L156.63 127.429Z" fill="#FED9BB"/>
<path d="M144.418 123.454C144.418 123.454 145.016 122.775 145.395 123.101C145.774 123.427 145.296 125.026 144.935 124.863C144.574 124.701 144.211 123.652 144.418 123.454Z" fill="#FED9BB"/>
<path d="M160.402 113.712C160.402 113.712 163.12 114.009 165.07 117.536C166.608 120.317 169.238 125.442 168.245 126.885C167.81 127.521 163.635 129.783 155.58 128.491C155.58 128.491 155.707 127.478 156.357 127.009C156.357 127.009 163.134 124.844 163.124 124.414C163.102 123.599 162.207 122.896 158.422 119.127C157.392 118.107 160.402 113.712 160.402 113.712Z" fill="#F99746"/>
<path d="M158.31 113.854C158.403 113.729 158.282 113.329 158.134 112.593C157.998 111.923 157.769 110.886 157.774 109.72L157.574 109.754L154.205 110.317C154.205 110.317 154.282 111.213 154.284 112.058V112.079C154.284 112.814 154.085 113.92 154.333 114.064C155.61 114.808 157.953 114.333 158.31 113.854Z" fill="#FED9BB"/>
<path d="M154.205 110.317C154.205 110.317 154.272 111.579 154.274 112.428C156.159 112.383 157.165 110.559 157.574 109.753L154.205 110.317Z" fill="#FED9BB"/>
<path d="M154.002 111.827C154.002 111.827 158.418 111.197 157.984 108.466C157.55 105.734 157.828 103.816 154.989 104.101C152.151 104.385 151.771 105.513 151.693 106.459C151.614 107.406 152.841 111.916 154.002 111.827Z" fill="#FED9BB"/>
<path d="M152.972 104.353C152.972 104.353 154.691 107.364 156.617 107.544C158.543 107.725 159.267 107.103 159.267 107.103C158.227 106.45 157.447 105.458 157.061 104.295C157.061 104.295 153.638 102.688 152.972 104.353Z" fill="#261C96"/>
<path d="M153.313 104.565C153.313 104.565 152.469 105.04 152.208 105.747C151.884 106.575 151.817 107.481 152.014 108.347C152.014 108.347 150.757 106.314 151.581 104.921C152.454 103.444 153.313 104.565 153.313 104.565Z" fill="#261C96"/>
<path d="M250.609 177.003H5.8111C5.64198 177.003 5.50488 177.14 5.50488 177.309V177.485C5.50488 177.655 5.64198 177.792 5.8111 177.792H250.609C250.778 177.792 250.915 177.655 250.915 177.485V177.309C250.915 177.14 250.778 177.003 250.609 177.003Z" fill="#261C96"/>
</g>
<defs>
<filter id="filter0_d_613_8158" x="0" y="0.153809" width="256.062" height="185.638" filterUnits="userSpaceOnUse" color-interpolation-filters="sRGB">
<feFlood flood-opacity="0" result="BackgroundImageFix"/>
<feColorMatrix in="SourceAlpha" type="matrix" values="0 0 0 0 0 0 0 0 0 0 0 0 0 0 0 0 0 0 127 0" result="hardAlpha"/>
<feOffset dy="4"/>
<feGaussianBlur stdDeviation="2"/>
<feComposite in2="hardAlpha" operator="out"/>
<feColorMatrix type="matrix" values="0 0 0 0 0 0 0 0 0 0 0 0 0 0 0 0 0 0 0.25 0"/>
<feBlend mode="normal" in2="BackgroundImageFix" result="effect1_dropShadow_613_8158"/>
<feBlend mode="normal" in="SourceGraphic" in2="effect1_dropShadow_613_8158" result="shape"/>
</filter>
</defs>
</svg>
