<svg width="196" height="187" viewBox="0 0 196 187" fill="none" xmlns="http://www.w3.org/2000/svg">
<path d="M181.772 177.808C201.735 165.068 203.04 103.308 164.432 88.8518C125.824 74.3956 132.977 37.9168 100.497 10.6485C70.8916 -14.207 21.9113 6.86289 5.59872 71.5029C-6.03385 117.595 7.53873 175.415 16.8013 177.808H181.772Z" fill="#1C1C4D"/>
<path d="M152.427 176.572C152.427 176.572 172.247 166.849 175.655 161.777C179.062 156.706 174.052 156.42 174.052 156.42C174.052 156.42 182.897 147.861 181.652 144.259C180.407 140.657 175.765 144.097 175.765 144.097C175.765 144.097 181.515 131.365 178.832 130.099C173.832 127.741 166.832 141.292 166.832 141.292C166.832 141.292 168.332 135.404 164.897 135.596C159.71 135.884 159.925 149.201 159.925 149.201C159.925 149.201 159.34 144.095 156.212 145.754C150.595 148.729 152.427 176.572 152.427 176.572Z" fill="#948BE4"/>
<path d="M155.718 143.712C159.11 142.697 159.898 146.448 159.898 146.448C159.898 146.448 159.7 135.897 164.898 135.608C168.338 135.417 166.833 141.304 166.833 141.304C166.833 141.304 173.833 127.754 178.833 130.111L152.405 176.375C152.208 173.132 150.838 145.175 155.718 143.712Z" fill="#BAB4EE"/>
<path d="M152.927 176.691C152.927 176.691 169.137 178.681 173.332 176.91C177.527 175.139 174.522 172.93 174.522 172.93C174.522 172.93 183.522 171.166 184.23 168.415C184.937 165.664 180.622 165.928 180.622 165.928C180.622 165.928 189.41 160.309 188.252 158.436C186.102 154.954 176.197 160.565 176.197 160.565C176.197 160.565 179.54 157.503 177.317 156.232C173.965 154.315 168.657 162.699 168.657 162.699C168.657 162.699 168.987 160.632 166.36 160.404C161.65 159.996 152.927 176.691 152.927 176.691Z" fill="#948BE4"/>
<path d="M166.132 159.86C168.76 160.089 168.66 162.705 168.66 162.705C168.66 162.705 173.968 154.313 177.32 156.238C179.543 157.509 176.2 160.571 176.2 160.571C176.2 160.571 186.105 154.952 188.255 158.442L152.88 176.599C154.082 174.513 161.73 159.477 166.132 159.86Z" fill="#4838D1"/>
<path d="M194.928 177.613C194.928 177.235 194.728 176.933 194.483 176.933H0.551395C0.395448 176.966 0.255553 177.051 0.155168 177.175C0.0547818 177.299 0 177.453 0 177.613C0 177.772 0.0547818 177.927 0.155168 178.05C0.255553 178.174 0.395448 178.26 0.551395 178.293H194.475C194.725 178.293 194.92 177.988 194.92 177.613H194.928Z" fill="#291F85"/>
<path d="M47.9466 176.614C47.9466 176.614 22.1114 163.929 17.6689 157.33C13.2264 150.731 19.7564 150.346 19.7564 150.346C19.7564 150.346 8.22635 139.19 9.84886 134.494C11.4714 129.798 17.5239 134.285 17.5239 134.285C17.5239 134.285 10.0239 117.688 13.5239 116.036C20.0239 112.962 29.1665 130.627 29.1665 130.627C29.1665 130.627 27.204 122.953 31.6865 123.202C38.449 123.578 38.169 140.936 38.169 140.936C38.169 140.936 38.934 134.28 43.0091 136.444C50.3216 140.322 47.9466 176.614 47.9466 176.614Z" fill="#948BE4"/>
<path d="M44.3941 134.623C40.829 132.529 38.109 137.461 38.109 137.461C38.109 137.461 38.4515 123.577 31.689 123.202C27.2064 122.953 29.169 130.626 29.169 130.626C29.169 130.626 20.0364 112.966 13.5264 116.036L47.9766 176.333C48.2191 172.122 49.1291 137.409 44.3941 134.623Z" fill="#BAB4EE"/>
<path d="M47.2794 176.771C47.2794 176.771 26.1492 179.382 20.6792 177.054C15.2092 174.726 19.1267 171.853 19.1267 171.853C19.1267 171.853 7.37663 169.558 6.47413 165.971C5.57162 162.384 11.1767 162.738 11.1767 162.738C11.1767 162.738 -0.275909 155.413 1.2291 152.97C4.03412 148.421 16.9467 155.748 16.9467 155.748C16.9467 155.748 12.5867 151.754 15.4867 150.097C19.8567 147.598 26.7717 158.539 26.7717 158.539C26.7717 158.539 26.3417 155.843 29.7718 155.554C35.9118 155.01 47.2794 176.771 47.2794 176.771Z" fill="#948BE4"/>
<path d="M29.7517 153.731C26.3267 154.029 26.7717 158.546 26.7717 158.546C26.7717 158.546 20.6491 146.876 15.4666 149.938C12.5916 151.637 16.5791 155.601 16.5791 155.601C16.5791 155.601 4.03402 148.428 1.229 152.977L47.3418 176.659C45.7743 173.93 35.4917 153.233 29.7517 153.731Z" fill="#4838D1"/>
<path d="M155.712 156.964H43.9618C39.6917 156.964 36.2317 153.965 36.2317 150.269V146.289C36.2317 142.593 39.6917 139.596 43.9618 139.596H155.712C150.602 144.436 150.512 151.833 155.507 156.758L155.712 156.964Z" fill="#4838D1"/>
<path d="M154.147 141.593H97.927C94.0545 141.593 90.927 144.578 90.927 148.289C90.927 151.985 94.0645 154.982 97.927 154.982H154.177C152.889 152.986 152.202 150.664 152.197 148.292C152.191 145.919 152.868 143.595 154.147 141.593Z" fill="white"/>
<path d="M172.427 156.058H31.6465C27.2765 156.058 23.7314 159.376 23.7314 163.468V169.702C23.7314 173.796 27.2765 177.112 31.6465 177.112H172.427L172.352 177.042C166.322 171.172 166.355 161.889 172.427 156.058Z" fill="#F77A55"/>
<path d="M169.927 159.176H94.677C90.307 159.176 86.762 162.494 86.762 166.586C86.762 170.68 90.307 173.995 94.677 173.995H169.927C168.571 171.759 167.854 169.197 167.854 166.586C167.854 163.974 168.571 161.412 169.927 159.176Z" fill="white"/>
<path d="M126.535 166.625H120.785C120.191 166.625 119.62 166.86 119.199 167.279C118.777 167.698 118.539 168.267 118.535 168.861V169.061H126.515L126.535 166.625Z" fill="#4838D1"/>
<path d="M121.027 166.633C122.4 166.633 124.45 167.787 125.605 169.215L139.227 186.021H147.227L134.272 170.038C132.75 168.158 130.047 166.633 128.237 166.633H121.027Z" fill="#948BE4"/>
<path d="M30.6166 51.5946C30.5985 51.6523 30.5645 51.7038 30.5184 51.7431C30.4722 51.7824 30.4159 51.8079 30.3558 51.8167C30.2957 51.8256 30.2343 51.8174 30.1788 51.793C30.1232 51.7687 30.0756 51.7292 30.0416 51.6792L28.6966 49.7441H26.3315C26.2707 49.7453 26.2107 49.7291 26.1589 49.6973C26.107 49.6656 26.0654 49.6197 26.039 49.565C26.0121 49.5113 26.0008 49.4511 26.0066 49.3913C26.0123 49.3315 26.0348 49.2745 26.0715 49.2268L27.5066 47.3539L26.7715 45.1153C26.7525 45.0579 26.7498 44.9963 26.764 44.9374C26.7781 44.8785 26.8084 44.8247 26.8516 44.7821C26.8953 44.7405 26.9496 44.7116 27.0086 44.6984C27.0677 44.6853 27.1292 44.6884 27.1865 44.7075L29.4191 45.4884L31.3291 44.1006C31.3781 44.065 31.4362 44.0438 31.4968 44.0394C31.5573 44.035 31.6178 44.0476 31.6716 44.0757C31.7253 44.1034 31.77 44.1456 31.8005 44.1976C31.831 44.2495 31.8461 44.309 31.8441 44.3692L31.7891 46.7221L33.7066 48.1C33.7558 48.1354 33.7941 48.1838 33.8171 48.2396C33.8401 48.2955 33.8469 48.3567 33.8368 48.4163C33.8266 48.4758 33.7999 48.5314 33.7597 48.5766C33.7194 48.6218 33.6673 48.6549 33.6091 48.6721L31.3441 49.3462L30.6166 51.5946Z" fill="#F77A55"/>
<path d="M115.465 23.4976C115.622 23.0922 115.567 21.6421 117.595 20.2467C118.427 19.6796 119.11 19.1971 119.292 18.5355C119.612 17.3938 118.405 16.8441 117.2 16.8515C116.9 16.851 116.612 16.7344 116.397 16.5263C116.183 16.3183 116.058 16.0353 116.05 15.7372C116.041 15.4353 116.151 15.1419 116.357 14.92C116.563 14.6982 116.849 14.5656 117.152 14.5508C117.946 14.5171 118.741 14.6078 119.507 14.8194C122.09 15.5333 122.87 17.2794 122.417 18.8961C122.005 20.3736 120.812 21.0949 119.842 21.7068C118.205 22.7415 118.207 23.8931 118.067 24.214L115.465 23.4976ZM114.215 26.0422C114.266 25.8058 114.367 25.5827 114.51 25.3871C114.653 25.1916 114.836 25.0279 115.046 24.9064C115.256 24.785 115.49 24.7084 115.731 24.6817C115.973 24.655 116.218 24.6787 116.45 24.7513C117.507 25.0448 117.985 25.9725 117.717 27.0097C117.66 27.2461 117.556 27.4686 117.411 27.664C117.266 27.8595 117.083 28.0238 116.872 28.1472C116.662 28.2705 116.429 28.3505 116.186 28.3821C115.944 28.4138 115.698 28.3966 115.463 28.3316C115.227 28.2665 115.008 28.1549 114.817 28.0035C114.626 27.8521 114.467 27.6639 114.351 27.4502C114.235 27.2365 114.163 27.0017 114.14 26.7598C114.117 26.5178 114.143 26.2738 114.217 26.0422H114.215Z" fill="#948BE4"/>
<path d="M180.742 49.744L181.702 51.3334C181.727 51.3701 181.762 51.3995 181.802 51.4185C181.842 51.4376 181.887 51.4456 181.931 51.4418C181.975 51.438 182.018 51.4225 182.054 51.3969C182.09 51.3713 182.119 51.3365 182.137 51.2961L182.82 49.5724L184.635 49.1545C184.678 49.1426 184.718 49.1194 184.749 49.0871C184.78 49.0549 184.802 49.0149 184.812 48.9714C184.822 48.9279 184.82 48.8824 184.807 48.8398C184.793 48.7972 184.768 48.7589 184.735 48.7292L183.297 47.5527L183.457 45.7045C183.459 45.6605 183.448 45.617 183.427 45.5783C183.406 45.5397 183.375 45.5073 183.337 45.4846C183.299 45.4618 183.256 45.4494 183.211 45.4488C183.167 45.4481 183.124 45.4591 183.085 45.4807L181.515 46.4756L179.797 45.7518C179.755 45.7366 179.71 45.7329 179.666 45.741C179.622 45.7491 179.581 45.7688 179.548 45.798C179.514 45.8272 179.489 45.8648 179.475 45.907C179.461 45.9492 179.458 45.9944 179.467 46.0379L179.935 47.8312L178.712 49.2316C178.685 49.2666 178.667 49.3082 178.662 49.3521C178.656 49.3961 178.662 49.4407 178.679 49.4816C178.696 49.5224 178.724 49.5579 178.76 49.5844C178.796 49.6108 178.838 49.6273 178.882 49.6321L180.742 49.744Z" fill="#F77A55"/>
<path d="M137.012 26.0995L134.91 24.6121L135.492 22.0527L136.177 22.2069L135.697 24.3137L137.87 25.8508L136.75 28.5992L139.202 29.915L138.087 32.3425L137.25 32.4893L138.292 30.2184L135.865 28.9151L137.012 26.0995Z" fill="#F77A55"/>
<path d="M40.1867 36.7778L41.4893 37.9169L43.1093 37.2131L44.4768 38.5934L45.9668 37.3125L47.5843 38.8048L49.1043 37.7926L50.8943 38.9764L50.4443 39.6529L49.1043 38.7675L47.5018 39.8345L45.9468 38.3994L44.4318 39.7002L42.9218 38.1781L41.3393 38.867L40.1343 37.81L39.1917 38.479L38.7192 37.8199L40.1867 36.7778Z" fill="#948BE4"/>
<path d="M187.1 60.9544C187.741 61.5681 188.184 62.3569 188.374 63.2211C188.565 64.0854 188.493 64.9864 188.169 65.8103C187.845 66.6343 187.283 67.3442 186.554 67.8506C185.825 68.357 184.961 68.637 184.072 68.6554C183.183 68.6738 182.308 68.4297 181.559 67.9539C180.809 67.4781 180.218 66.792 179.86 65.9821C179.501 65.1723 179.393 64.2751 179.547 63.4037C179.701 62.5323 180.111 61.7259 180.725 61.0862C181.134 60.6601 181.624 60.3185 182.166 60.0812C182.709 59.8438 183.293 59.7154 183.885 59.7031C184.477 59.6909 185.066 59.7951 185.618 60.0098C186.17 60.2245 186.673 60.5456 187.1 60.9544Z" fill="#E0DEF7"/>
<path d="M187 64.7071L185.083 65.2941L184.48 67.1992C184.469 67.2336 184.449 67.2641 184.421 67.2875C184.393 67.3108 184.36 67.3261 184.324 67.3315C184.288 67.337 184.251 67.3323 184.218 67.3182C184.185 67.3041 184.156 67.2809 184.135 67.2515L182.98 65.6174L180.98 65.6373C180.944 65.6381 180.907 65.6287 180.876 65.61C180.844 65.5913 180.819 65.5642 180.802 65.5318C180.785 65.4993 180.778 65.4629 180.781 65.4265C180.785 65.3902 180.798 65.3555 180.82 65.3264L182.028 63.7297L181.388 61.8369C181.376 61.8023 181.374 61.7651 181.383 61.7295C181.391 61.694 181.409 61.6614 181.435 61.6356C181.461 61.6098 181.494 61.5916 181.53 61.5833C181.565 61.5749 181.603 61.5766 181.638 61.5882L183.535 62.2349L185.148 61.046C185.177 61.025 185.212 61.0125 185.248 61.0098C185.284 61.0071 185.32 61.0144 185.353 61.0309C185.385 61.0473 185.412 61.0723 185.431 61.103C185.45 61.1338 185.46 61.1691 185.46 61.2052L185.428 63.1949L187.063 64.3539C187.095 64.3745 187.121 64.4043 187.137 64.4394C187.152 64.4746 187.157 64.5135 187.15 64.5513C187.143 64.5891 187.126 64.6241 187.099 64.6519C187.072 64.6796 187.038 64.6988 187 64.7071Z" fill="#948BE4"/>
<path d="M54.5417 23.0653C52.0167 24.4905 52.5142 28.2887 55.3317 29.0473C55.8368 29.1869 56.275 29.5019 56.5667 29.9353L57.5667 31.4277C57.7003 31.6233 57.9028 31.7621 58.1343 31.8164C58.3657 31.8707 58.6092 31.8368 58.8167 31.7212L59.7742 31.1814C59.9826 31.0641 60.1389 30.8731 60.2121 30.6463C60.2853 30.4196 60.27 30.1737 60.1692 29.9577C59.4042 28.3235 59.0042 27.7738 59.2767 26.8212C60.0917 24.0229 57.0717 21.6401 54.5417 23.0653Z" fill="#BAB4EE"/>
<path d="M57.4568 30.1117C56.7468 28.7312 55.9368 27.296 55.7068 26.8931C54.2068 27.5423 54.1843 25.7116 55.1393 26.1071C55.4039 26.2354 55.6229 26.4411 55.7668 26.6966C56.2625 26.4629 56.7075 26.1351 57.0768 25.7315C56.9201 25.4667 56.8261 25.1698 56.8018 24.8634C56.8268 24.463 57.2293 24.2092 57.5318 24.4804C57.5891 24.5327 57.6353 24.5961 57.6675 24.6666C57.6997 24.7371 57.7173 24.8133 57.7193 24.8908C57.7193 25.2116 57.4693 25.5151 57.2618 25.7613C57.7618 26.8806 58.3068 27.9999 58.8693 29.0844L58.7318 29.1565C58.1768 28.0845 57.6468 26.9876 57.1468 25.8857C56.7765 26.277 56.3366 26.5966 55.8493 26.8284C56.1593 27.3433 56.9418 28.7461 57.5993 30.042L57.4568 30.1117ZM54.8368 26.821C54.9621 26.8677 55.0962 26.8865 55.2297 26.8762C55.3631 26.8659 55.4927 26.8267 55.6093 26.7613C55.4829 26.5449 55.2938 26.3715 55.0668 26.2638C54.5518 26.03 54.5143 26.6518 54.8368 26.8135V26.821ZM56.9468 24.8734C56.9671 25.1316 57.0466 25.3818 57.1793 25.6046C57.3786 25.4139 57.5087 25.1629 57.5493 24.8908C57.5493 24.7092 57.3993 24.5077 57.2193 24.5251C57.2018 24.5202 56.9543 24.7092 56.9468 24.8659V24.8734Z" fill="white"/>
<path d="M56.5393 29.9002C56.5477 29.9124 56.5569 29.924 56.5668 29.935L57.5668 31.4277C57.7004 31.6234 57.903 31.7622 58.1344 31.8165C58.3658 31.8709 58.6093 31.8369 58.8168 31.7213L59.7743 31.1814C59.9827 31.0641 60.139 30.873 60.2122 30.6462C60.2854 30.4194 60.2701 30.1735 60.1693 29.9574C59.8293 29.2309 59.5618 28.7135 59.3918 28.2905L56.5393 29.9002Z" fill="#948BE4"/>
<path d="M52.0993 22.5838L50.7543 21.4088C50.7233 21.3817 50.6979 21.3487 50.6796 21.3118C50.6613 21.275 50.6505 21.2348 50.6477 21.1937C50.6449 21.1526 50.6502 21.1114 50.6634 21.0724C50.6765 21.0333 50.6973 20.9973 50.7243 20.9662C50.7514 20.9352 50.7843 20.9098 50.8212 20.8915C50.8581 20.8732 50.8983 20.8624 50.9394 20.8596C50.9805 20.8568 51.0217 20.8622 51.0607 20.8753C51.0998 20.8885 51.1358 20.9092 51.1668 20.9363L52.5094 22.1088C52.572 22.1631 52.6105 22.2402 52.6164 22.3229C52.6222 22.4057 52.595 22.4874 52.5406 22.55C52.4862 22.6127 52.4092 22.6512 52.3264 22.657C52.2437 22.6629 52.162 22.6356 52.0993 22.5813V22.5838Z" fill="#BAB4EE"/>
<path d="M51.6467 26.7537L49.8367 27.2537C49.7958 27.2642 49.7533 27.2665 49.7115 27.2606C49.6697 27.2547 49.6295 27.2406 49.5932 27.2191C49.5198 27.1757 49.4666 27.105 49.4454 27.0224C49.4242 26.9399 49.4366 26.8523 49.48 26.7789C49.5234 26.7055 49.5941 26.6524 49.6767 26.6312L51.4867 26.1312C51.5264 26.1203 51.5679 26.1174 51.6087 26.1226C51.6496 26.1278 51.689 26.141 51.7247 26.1614C51.7605 26.1819 51.7919 26.2091 51.8171 26.2417C51.8423 26.2742 51.8609 26.3114 51.8717 26.3512C51.8825 26.3909 51.8854 26.4324 51.8802 26.4732C51.875 26.5141 51.8618 26.5535 51.8414 26.5892C51.821 26.625 51.7937 26.6564 51.7612 26.6816C51.7286 26.7068 51.6914 26.7253 51.6517 26.7362L51.6467 26.7537Z" fill="#BAB4EE"/>
<path d="M51.8843 32.7442C51.847 32.727 51.8135 32.7026 51.7858 32.6723C51.758 32.6421 51.7365 32.6067 51.7226 32.5681C51.7086 32.5294 51.7025 32.4884 51.7045 32.4474C51.7065 32.4064 51.7166 32.3662 51.7343 32.3292C52.0093 31.7435 52.3391 31.1852 52.7193 30.6617C52.7716 30.606 52.8425 30.5713 52.9186 30.5643C52.9947 30.5573 53.0707 30.5784 53.1323 30.6237C53.1939 30.6689 53.2367 30.7352 53.2528 30.8099C53.2688 30.8846 53.2569 30.9626 53.2193 31.0292C52.8629 31.5209 52.5532 32.0449 52.2943 32.5942C52.2596 32.6682 52.197 32.7255 52.1202 32.7536C52.0434 32.7817 51.9586 32.7783 51.8843 32.7442Z" fill="#BAB4EE"/>
<path d="M56.4017 20.9072C56.3608 20.911 56.3196 20.9067 56.2804 20.8946C56.2412 20.8826 56.2047 20.8629 56.1732 20.8368C56.1416 20.8107 56.1155 20.7787 56.0964 20.7426C56.0772 20.7065 56.0654 20.667 56.0617 20.6263C55.9865 19.8133 55.8273 19.0102 55.5867 18.2296C55.5707 18.1898 55.5632 18.1472 55.5646 18.1043C55.566 18.0615 55.5763 18.0194 55.5949 17.9807C55.6134 17.942 55.6398 17.9076 55.6724 17.8795C55.705 17.8515 55.743 17.8304 55.7842 17.8177C55.8253 17.805 55.8687 17.8009 55.9115 17.8056C55.9543 17.8104 55.9957 17.8238 56.033 17.8453C56.0704 17.8667 56.1028 17.8955 56.1284 17.93C56.154 17.9645 56.1721 18.0038 56.1817 18.0456C56.4354 18.8674 56.603 19.7131 56.6817 20.5691C56.6894 20.6508 56.6642 20.7322 56.6118 20.7956C56.5593 20.8589 56.4838 20.8991 56.4017 20.9072Z" fill="#BAB4EE"/>
<path d="M59.0342 22.502C58.9851 22.4355 58.9641 22.3523 58.9758 22.2705C58.9875 22.1886 59.0309 22.1146 59.0967 22.0645L60.7167 20.8445C60.783 20.7944 60.8665 20.7728 60.9488 20.7843C61.031 20.7957 61.1054 20.8394 61.1554 20.9058C61.2055 20.9721 61.2272 21.0555 61.2157 21.1378C61.2042 21.2201 61.1605 21.2944 61.0942 21.3445L59.4717 22.5645C59.4051 22.6136 59.322 22.6346 59.2401 22.6229C59.1583 22.6112 59.0843 22.5678 59.0342 22.502Z" fill="#BAB4EE"/>
<path d="M63.8117 26.2279C63.7851 26.2373 63.7573 26.2432 63.7292 26.2454C63.0307 26.3005 62.3284 26.2804 61.6342 26.1854C61.5935 26.1798 61.5542 26.1663 61.5188 26.1455C61.4833 26.1248 61.4523 26.0973 61.4274 26.0646C61.4026 26.0318 61.3844 25.9945 61.374 25.9548C61.3636 25.915 61.3611 25.8736 61.3667 25.8329C61.3723 25.7922 61.3858 25.753 61.4065 25.7175C61.4273 25.682 61.4548 25.651 61.4875 25.6261C61.5203 25.6013 61.5576 25.5832 61.5973 25.5727C61.6371 25.5623 61.6785 25.5598 61.7192 25.5654C62.3674 25.6573 63.0235 25.6807 63.6767 25.6354C63.752 25.6293 63.8271 25.6507 63.8879 25.6957C63.9486 25.7407 63.991 25.8062 64.0072 25.88C64.0234 25.9539 64.0122 26.0311 63.9758 26.0974C63.9394 26.1637 63.8802 26.2145 63.8092 26.2404L63.8117 26.2279Z" fill="#BAB4EE"/>
<path d="M159.025 25.4331L158.225 26.9056C156.288 30.4393 153.734 33.6013 150.682 36.243L150.342 36.5365C150.342 36.5365 150.997 39.5213 154.002 38.9865C156.324 35.4532 159.078 32.2214 162.202 29.3656L163.377 28.4129L159.025 25.4331Z" fill="#BAB4EE"/>
<path d="M163.382 28.4108C163.202 28.6247 162.087 28.1297 160.882 27.3038C159.677 26.478 158.845 25.6372 159.025 25.4258C159.205 25.2143 160.327 25.7093 161.525 26.5327C162.722 27.3561 163.56 28.1968 163.382 28.4108Z" fill="#BAB4EE"/>
<path d="M163.375 28.431C163.375 28.431 160.625 26.8878 160.125 26.0449L159.795 26.4626C160.146 26.7681 160.515 27.0529 160.9 27.3155C162.075 28.1334 163.177 28.6336 163.375 28.431Z" fill="#948BE4"/>
<path d="M158.377 33.2652C158.025 33.3826 156.46 33.7645 155.08 31.6523C154.9 31.877 154.72 32.0993 154.535 32.3215C155.482 33.6272 156.52 34.0192 157.242 34.1116C157.357 34.1266 157.507 34.139 157.622 34.144C157.87 33.8519 158.122 33.5548 158.377 33.2652Z" fill="#F77A55"/>
<path d="M155.597 31.7113L154.632 28.2861L154.142 29.3283L153.027 29.1592L154.967 32.0695L155.597 31.7113Z" fill="#F77A55"/>
<path d="M154.83 32.3003L152.127 31.8403L152.757 32.5728L152.13 33.1378L154.742 32.9203L154.83 32.3003Z" fill="#F77A55"/>
<path d="M154.353 32.9683C154.301 32.8188 154.28 32.6606 154.289 32.5027C154.299 32.3449 154.34 32.1906 154.41 32.0486C154.48 31.9067 154.577 31.7799 154.696 31.6756C154.814 31.5713 154.953 31.4915 155.103 31.4408C155.765 31.1783 156.495 31.4408 156.733 32.0208C156.97 32.6008 156.63 33.2858 155.983 33.5483C155.335 33.8108 154.59 33.5483 154.353 32.9683Z" fill="#F77A55"/>
<path d="M165.46 45.7817L166.777 45.3539L167.705 47.386L169.707 46.998L170.65 48.4059L171.367 47.9308L170.105 46.0479L168.207 46.416L167.245 44.3018L165.262 44.9435L165.46 45.7817Z" fill="#BAB4EE"/>
<path d="M169.565 121.709L170.882 121.281L171.81 123.313L173.812 122.925L174.755 124.333L175.472 123.858L174.21 121.975L172.312 122.343L171.347 120.229L169.367 120.871L169.565 121.709Z" fill="#F77A55"/>
<path d="M92.4944 19.7593C92.3005 20.712 91.827 21.5861 91.1338 22.2711C90.4406 22.956 89.5588 23.4211 88.6 23.6075C87.6411 23.7939 86.6482 23.6932 85.7469 23.3182C84.8455 22.9432 84.0762 22.3107 83.5361 21.5007C82.996 20.6907 82.7095 19.7395 82.7127 18.7675C82.7159 17.7955 83.0087 16.8462 83.5542 16.0397C84.0996 15.2333 84.8731 14.6058 85.7769 14.2367C86.6808 13.8677 87.6743 13.7735 88.6319 13.9662C89.2679 14.0941 89.8723 14.3455 90.4106 14.7059C90.9489 15.0663 91.4106 15.5287 91.7693 16.0667C92.128 16.6046 92.3766 17.2076 92.501 17.8412C92.6255 18.4748 92.6232 19.1265 92.4944 19.7593Z" fill="#BAB4EE"/>
<path d="M84.9069 19.0259C84.8382 19.3641 84.837 19.7125 84.9036 20.0512C84.9701 20.3899 85.1031 20.7122 85.2948 20.9998C85.4866 21.2873 85.7334 21.5345 86.0211 21.7271C86.3089 21.9198 86.632 22.0542 86.972 22.1226C87.3119 22.1911 87.6621 22.1922 88.0025 22.126C88.3429 22.0598 88.6669 21.9275 88.9559 21.7367C89.2449 21.5459 89.4933 21.3004 89.687 21.0141C89.8806 20.7278 90.0157 20.4063 90.0845 20.0681L84.9069 19.0259Z" fill="white"/>
<path d="M18.889 75.4474C18.4865 74.9151 18.0415 74.6465 17.569 74.6465C14.8789 74.6465 14.2739 82.5315 14.2739 85.2924C14.2739 88.444 14.6239 91.1527 15.2889 93.1277C15.9014 94.9484 16.7165 95.9484 17.589 95.9484C18.514 95.9484 19.359 94.7992 19.9665 92.7148C21.524 87.3719 20.949 78.1761 18.889 75.4474ZM19.4315 92.6451C18.9115 94.3739 18.2165 95.4061 17.569 95.4061C16.9214 95.4061 16.2264 94.3739 15.7064 92.6451C15.1289 90.7174 14.8089 88.1057 14.8089 85.2924C14.8089 82.4792 15.1289 79.8675 15.7064 77.9398C16.2264 76.1986 16.9214 75.1788 17.569 75.1788C18.2165 75.1788 18.9115 76.211 19.4315 77.9398C20.0115 79.8675 20.329 82.4792 20.329 85.2924C20.329 88.1057 20.0115 90.7174 19.4265 92.6451H19.4315Z" fill="#F77A55"/>
<path d="M26.7114 88.2374C24.5614 84.6857 14.6164 79.4004 10.0863 79.4004C9.04383 79.4004 8.36132 79.6864 8.06382 80.2485C7.76631 80.8106 7.87881 81.4275 8.34131 82.1935C10.4988 85.7552 20.4289 91.0554 24.9414 91.0554C25.9964 91.0554 26.6914 90.7644 26.9889 90.1949C27.2689 89.6626 27.1764 89.0059 26.7114 88.2374ZM26.5739 89.8541C26.4114 90.2545 25.8514 90.466 24.9564 90.466C21.8214 90.466 14.6864 87.8096 10.1888 83.4844C8.47382 81.8353 8.31133 80.9972 8.47883 80.5917C8.64633 80.1863 9.19882 79.9824 10.0913 79.9824C11.7613 79.9824 14.3689 80.7012 17.0689 81.9025C20.1164 83.2605 22.8839 85.0538 24.8614 86.9565C26.5789 88.608 26.7414 89.4437 26.5739 89.8541Z" fill="#F77A55"/>
<path d="M26.8042 80.1311C26.4942 79.559 25.8042 79.2705 24.7867 79.2705C22.7317 79.2705 19.2391 80.4893 15.6691 82.4543C12.0991 84.4193 9.26407 86.6828 8.26156 88.3568C7.80156 89.1229 7.71155 89.7696 7.98905 90.2795C8.29155 90.8367 8.96406 91.1202 9.98907 91.1202C14.4716 91.1202 24.3692 85.7252 26.5392 82.1011C27.0017 81.3226 27.0917 80.6584 26.8042 80.1311ZM21.7867 85.75C18.6166 87.9513 14.9116 89.6577 11.8741 90.3143C11.2513 90.4638 10.6145 90.5472 9.97407 90.5631C9.17156 90.5631 8.64656 90.3815 8.45906 90.0358C8.27155 89.69 8.35906 89.2323 8.70906 88.6528C9.62406 87.1255 12.3416 84.9218 15.6316 83.0687C19.1691 81.0639 22.6042 79.8675 24.8242 79.8675C25.8417 79.8675 26.3867 80.1336 26.4442 80.6584C26.5542 81.7056 24.7267 83.7079 21.7867 85.75Z" fill="#F77A55"/>
<path d="M19.2917 84.9713C19.2917 85.3082 19.1913 85.6376 19.0031 85.9178C18.815 86.1979 18.5475 86.4163 18.2346 86.5452C17.9217 86.6742 17.5773 86.7079 17.2451 86.6422C16.9129 86.5765 16.6078 86.4142 16.3683 86.1759C16.1288 85.9377 15.9657 85.6341 15.8996 85.3036C15.8335 84.9732 15.8674 84.6306 15.9971 84.3193C16.1267 84.008 16.3462 83.7419 16.6278 83.5547C16.9094 83.3675 17.2405 83.2676 17.5792 83.2676C18.0332 83.2682 18.4684 83.448 18.7894 83.7673C19.1104 84.0867 19.2911 84.5196 19.2917 84.9713Z" fill="#F77A55"/>
<path d="M17.0788 76.992C17.0793 77.2465 17.0043 77.4954 16.8633 77.7072C16.7223 77.919 16.5216 78.0841 16.2867 78.1817C16.0518 78.2793 15.7932 78.305 15.5437 78.2555C15.2942 78.2059 15.065 78.0834 14.8852 77.9035C14.7053 77.7236 14.5829 77.4943 14.5334 77.2447C14.4839 76.9951 14.5095 76.7364 14.6071 76.5014C14.7047 76.2664 14.8697 76.0657 15.0814 75.9246C15.2931 75.7836 15.5419 75.7085 15.7963 75.709C16.1362 75.7096 16.4621 75.845 16.7024 76.0855C16.9428 76.326 17.0781 76.6519 17.0788 76.992Z" fill="#F77A55"/>
<path d="M21.0415 92.1481C21.042 92.3604 20.9795 92.568 20.862 92.7447C20.7444 92.9214 20.5771 93.0592 20.3812 93.1408C20.1852 93.2223 19.9695 93.2439 19.7613 93.2028C19.5531 93.1617 19.3617 93.0598 19.2115 92.9099C19.0613 92.76 18.9589 92.5689 18.9173 92.3608C18.8757 92.1527 18.8968 91.9369 18.9779 91.7408C19.059 91.5447 19.1964 91.377 19.3729 91.2591C19.5493 91.1411 19.7568 91.0781 19.969 91.0781C20.253 91.0781 20.5254 91.1908 20.7265 91.3914C20.9275 91.592 21.0408 91.8641 21.0415 92.1481Z" fill="#F77A55"/>
<path d="M9.55129 88.1416C10.1616 88.1416 10.6563 87.6469 10.6563 87.0366C10.6563 86.4263 10.1616 85.9316 9.55129 85.9316C8.94101 85.9316 8.44629 86.4263 8.44629 87.0366C8.44629 87.6469 8.94101 88.1416 9.55129 88.1416Z" fill="#F77A55"/>
<path d="M27.0341 82.1209C27.0341 82.3009 26.9807 82.4769 26.8807 82.6265C26.7808 82.7762 26.6386 82.8928 26.4724 82.9617C26.3061 83.0306 26.1231 83.0486 25.9466 83.0135C25.7701 82.9784 25.6079 82.8917 25.4806 82.7644C25.3534 82.6371 25.2667 82.475 25.2316 82.2985C25.1965 82.122 25.2145 81.939 25.2834 81.7727C25.3522 81.6064 25.4689 81.4643 25.6185 81.3643C25.7682 81.2643 25.9441 81.2109 26.1241 81.2109C26.2436 81.2109 26.362 81.2345 26.4724 81.2802C26.5828 81.3259 26.6831 81.393 26.7676 81.4775C26.8521 81.562 26.9191 81.6623 26.9648 81.7727C27.0106 81.8831 27.0341 82.0014 27.0341 82.1209Z" fill="#F77A55"/>
<path d="M13.5588 80.2225C13.5588 80.4026 13.5053 80.5786 13.4052 80.7283C13.3051 80.878 13.1629 80.9947 12.9964 81.0635C12.83 81.1323 12.6469 81.1501 12.4703 81.1148C12.2937 81.0795 12.1316 80.9926 12.0044 80.8651C11.8773 80.7375 11.7908 80.5752 11.756 80.3985C11.7211 80.2218 11.7395 80.0387 11.8088 79.8725C11.878 79.7063 11.995 79.5643 12.145 79.4646C12.295 79.3649 12.4712 79.312 12.6513 79.3125C12.8922 79.3132 13.123 79.4093 13.2931 79.5799C13.4632 79.7505 13.5588 79.9816 13.5588 80.2225Z" fill="#F77A55"/>
<path d="M191.962 100.124L187.669 101.521L187.912 102.26L192.205 100.863L191.962 100.124Z" fill="#948BE4"/>
<path d="M184.234 91.6221L181.981 95.7881L182.666 96.1546L184.919 91.9886L184.234 91.6221Z" fill="#948BE4"/>
<path d="M185.802 109.33L185.21 109.833L188.441 113.595L189.033 113.092L185.802 109.33Z" fill="#948BE4"/>
<path d="M185.765 109.659L177.955 111.758L172.058 106.883L172.553 106.288L178.143 110.907L185.135 109.027L187.133 101.868L181.973 96.3736L182.54 95.8438L187.998 101.657L185.765 109.659Z" fill="#948BE4"/>
<path d="M173.927 105.945C174.051 106.293 174.068 106.67 173.976 107.028C173.884 107.386 173.688 107.709 173.412 107.956C173.136 108.203 172.792 108.363 172.425 108.415C172.058 108.468 171.683 108.411 171.348 108.252C171.013 108.093 170.733 107.838 170.543 107.521C170.353 107.203 170.262 106.837 170.282 106.468C170.301 106.099 170.43 105.744 170.652 105.448C170.875 105.152 171.18 104.929 171.53 104.805C172 104.64 172.516 104.668 172.965 104.881C173.415 105.095 173.761 105.477 173.927 105.945Z" fill="#BAB4EE"/>
<path d="M179.845 110.974C179.969 111.323 179.986 111.7 179.894 112.057C179.802 112.415 179.606 112.738 179.33 112.985C179.054 113.232 178.71 113.392 178.343 113.445C177.975 113.497 177.6 113.441 177.265 113.282C176.93 113.122 176.65 112.868 176.461 112.55C176.271 112.233 176.18 111.867 176.2 111.498C176.219 111.129 176.348 110.774 176.57 110.478C176.792 110.182 177.098 109.958 177.448 109.835C177.917 109.67 178.434 109.698 178.883 109.911C179.333 110.125 179.679 110.507 179.845 110.974Z" fill="#BAB4EE"/>
<path d="M187.248 108.733C187.371 109.082 187.388 109.458 187.296 109.816C187.205 110.174 187.008 110.497 186.732 110.744C186.456 110.991 186.113 111.151 185.745 111.203C185.378 111.256 185.003 111.199 184.668 111.04C184.333 110.881 184.053 110.627 183.863 110.309C183.674 109.992 183.583 109.626 183.602 109.257C183.622 108.888 183.751 108.533 183.973 108.237C184.195 107.941 184.5 107.718 184.85 107.594C185.083 107.512 185.329 107.476 185.576 107.489C185.822 107.502 186.064 107.563 186.287 107.668C186.509 107.774 186.709 107.923 186.874 108.106C187.039 108.288 187.166 108.502 187.248 108.733Z" fill="#BAB4EE"/>
<path d="M191.04 113.21C191.164 113.559 191.181 113.936 191.089 114.294C190.997 114.651 190.801 114.974 190.525 115.221C190.249 115.468 189.905 115.628 189.538 115.681C189.17 115.733 188.795 115.677 188.46 115.517C188.125 115.358 187.845 115.104 187.656 114.786C187.466 114.469 187.375 114.103 187.395 113.734C187.414 113.365 187.543 113.01 187.765 112.714C187.987 112.418 188.293 112.195 188.643 112.071C189.112 111.907 189.629 111.934 190.078 112.147C190.528 112.361 190.874 112.743 191.04 113.21Z" fill="#BAB4EE"/>
<path d="M195.073 99.6192C195.197 99.9679 195.215 100.345 195.124 100.704C195.033 101.063 194.837 101.387 194.561 101.635C194.284 101.882 193.94 102.043 193.572 102.097C193.204 102.15 192.828 102.093 192.493 101.934C192.157 101.775 191.876 101.52 191.686 101.202C191.496 100.884 191.404 100.517 191.424 100.148C191.444 99.7783 191.573 99.4228 191.796 99.1264C192.018 98.83 192.324 98.606 192.675 98.4828C193.145 98.3178 193.661 98.3448 194.11 98.5579C194.56 98.7709 194.906 99.1526 195.073 99.6192Z" fill="#BAB4EE"/>
<path d="M187.077 90.4689C187.201 90.8171 187.218 91.194 187.126 91.5519C187.035 91.9098 186.838 92.2326 186.562 92.4795C186.286 92.7264 185.943 92.8863 185.575 92.9391C185.208 92.9919 184.833 92.9351 184.498 92.7759C184.163 92.6167 183.883 92.3624 183.693 92.0449C183.503 91.7274 183.413 91.3611 183.432 90.9923C183.452 90.6235 183.58 90.2687 183.803 89.9727C184.025 89.6768 184.33 89.453 184.68 89.3297C185.15 89.1648 185.666 89.1922 186.116 89.4057C186.565 89.6193 186.911 90.0017 187.077 90.4689Z" fill="#BAB4EE"/>
<path d="M189.648 101.052C189.771 101.4 189.788 101.777 189.696 102.135C189.605 102.493 189.408 102.816 189.132 103.063C188.856 103.31 188.513 103.47 188.145 103.523C187.778 103.575 187.403 103.519 187.068 103.359C186.733 103.2 186.453 102.946 186.263 102.628C186.073 102.311 185.983 101.945 186.002 101.576C186.022 101.207 186.151 100.852 186.373 100.556C186.595 100.26 186.9 100.036 187.25 99.9129C187.483 99.8309 187.729 99.7953 187.976 99.8082C188.222 99.8211 188.463 99.8822 188.686 99.988C188.909 100.094 189.108 100.242 189.273 100.425C189.438 100.607 189.565 100.821 189.648 101.052Z" fill="#BAB4EE"/>
<path d="M184.092 95.3481C184.216 95.6966 184.233 96.0736 184.141 96.4316C184.049 96.7896 183.853 97.1126 183.577 97.3596C183.301 97.6066 182.958 97.7666 182.59 97.8193C182.223 97.8721 181.848 97.8153 181.513 97.6561C181.178 97.4968 180.898 97.2424 180.708 96.9248C180.518 96.6072 180.427 96.2407 180.447 95.8718C180.466 95.5028 180.595 95.1479 180.818 94.8518C181.04 94.5558 181.345 94.3319 181.695 94.2085C181.927 94.1262 182.174 94.0904 182.421 94.1031C182.667 94.1158 182.909 94.1769 183.131 94.2828C183.354 94.3887 183.554 94.5373 183.719 94.7201C183.884 94.9029 184.011 95.1163 184.092 95.3481Z" fill="#BAB4EE"/>
<path d="M193.033 81.6205L190.513 81.0957L191.048 79.0591L191.8 79.2565L191.473 80.501L193.193 80.8583L193.033 81.6205Z" fill="#F77A55"/>
<path d="M22.5963 104.01L22.0288 105.574L19.3963 104.945L18.2813 107.134L16.2338 106.982L16.1562 108.014L18.8963 108.216L19.9513 106.141L22.6913 106.798L23.5438 104.443L22.5963 104.01Z" fill="#BAB4EE"/>
<path d="M20.1865 60.4941L21.564 60.6358L21.579 62.8668L23.569 63.322L23.854 64.9908L24.704 64.8466L24.3215 62.6156L22.4365 62.1853L22.419 59.8623L20.3465 59.6484L20.1865 60.4941Z" fill="#948BE4"/>
<path d="M75.1468 93.1423L71.3818 105.176L59.5292 87.9214V87.9064C59.5292 87.9064 55.1792 85.7051 54.0892 85.5012C53.1141 85.3171 49.9891 85.0236 49.5016 85.5434C49.4778 85.5079 49.4426 85.4816 49.4016 85.4688C48.9866 85.3644 48.2241 86.7573 48.1166 87.0955C48.0091 87.4338 48.8666 89.3963 48.9466 89.5431C49.0266 89.6898 48.7266 89.7719 48.3491 89.6277C47.9716 89.4834 46.7866 88.1353 46.7866 88.1353C46.7866 88.1353 46.6716 85.9364 45.9616 85.9489C45.2516 85.9613 45.8966 88.7098 45.8966 88.7098L46.5866 89.6302L45.5641 89.0158C45.5641 89.0158 44.8641 87.5234 44.6766 87.6129C44.4891 87.7025 44.2416 88.4412 44.6316 89.2172C44.968 89.808 45.3807 90.3523 45.8591 90.8365L47.4091 91.6299C47.4091 91.6299 45.6066 91.4757 45.0741 91.0753C44.5416 90.6748 44.3241 91.237 44.7491 91.7145C45.1741 92.1921 47.5466 93.0079 49.0491 93.1696C50.5516 93.3313 55.2341 93.2119 55.9067 93.09C56.4542 92.988 57.4742 92.8413 57.9792 93.1149C58.6467 95.0501 64.4292 116.026 71.4242 118.486C71.4242 118.486 74.6543 118.063 78.3368 109.728C82.0193 101.393 83.9918 96.3808 83.9918 96.3808L75.1468 93.1423ZM53.3966 88.869C52.8766 89.0655 51.0041 89.1725 50.5116 88.9934C50.0191 88.8143 49.2766 86.9264 49.2766 86.9264C49.4024 86.6053 49.4938 86.2718 49.5491 85.9315C50.0966 86.526 52.4216 86.2623 52.9441 86.5981C53.5191 86.9662 53.9267 88.675 53.4016 88.869H53.3966Z" fill="#FBC6B6"/>
<path d="M117.242 95.7761C117.242 95.7761 119.387 100.718 123.357 108.922C127.327 117.125 130.57 117.438 130.57 117.438C137.475 114.752 142.527 93.5898 143.125 91.6323C143.625 91.3313 144.645 91.4532 145.195 91.5353C145.872 91.6348 150.557 91.5925 152.052 91.3786C153.547 91.1647 155.895 90.2692 156.302 89.7768C156.71 89.2843 156.47 88.7296 155.952 89.15C155.435 89.5703 153.64 89.7842 153.64 89.7842L155.162 88.9385C155.624 88.4382 156.017 87.8796 156.332 87.277C156.695 86.4885 156.42 85.7473 156.23 85.6752C156.04 85.6031 155.392 87.1079 155.392 87.1079L154.392 87.7596L155.05 86.8144C155.05 86.8144 155.602 84.046 154.89 84.0559C154.177 84.0659 154.14 86.2697 154.14 86.2697C154.14 86.2697 153.002 87.67 152.64 87.8267C152.277 87.9834 151.967 87.9113 152.04 87.762C152.112 87.6128 152.902 85.6205 152.79 85.2747C152.677 84.929 151.86 83.5759 151.45 83.6928C151.409 83.7068 151.374 83.735 151.352 83.7724C150.852 83.2749 147.735 83.6704 146.767 83.8868C145.685 84.1355 141.415 86.4786 141.415 86.4786L130.165 104.138L125.985 92.2417L117.242 95.7761ZM147.927 84.9663C148.427 84.6156 150.772 84.7997 151.3 84.1853C151.366 84.5219 151.468 84.8504 151.605 85.1653C151.605 85.1653 150.925 87.0805 150.442 87.2745C149.96 87.4685 148.082 87.4262 147.555 87.2496C147.027 87.073 147.375 85.3494 147.927 84.9663Z" fill="#FBC6B6"/>
<path d="M98.427 126.599C94.421 124.639 90.2542 123.022 85.9719 121.767C76.3444 118.928 63.3793 117.041 56.0218 123.152C51.6917 126.741 96.4695 131.477 96.4695 131.477L98.427 126.599Z" fill="#948BE4"/>
<path d="M146.825 125.42C146.825 125.42 142.575 119.202 131.6 119.344C127.33 119.401 121.412 120.247 116.02 121.306C106.397 123.199 97.3244 126.383 97.3244 126.383L96.4719 131.477L146.825 125.42Z" fill="#948BE4"/>
<path d="M84.4719 134.27L103.952 143.709L119.192 131.586L114.192 120.702L86.5744 122.425L84.4719 134.27Z" fill="#948BE4"/>
<path d="M88.7243 65.3421C86.5418 60.9197 86.4268 52.5648 88.1368 47.6598C89.5193 43.6801 92.8319 41.4266 97.0969 40.9664C102.042 40.4292 105.197 41.3967 109.052 43.9014C113.052 46.5106 117.862 49.3388 122.477 50.4904C128.492 51.9828 134.702 53.0971 140.207 55.9401C143.842 57.818 147.22 60.6063 148.672 64.4144C150.752 69.8666 148.372 76.1421 144.532 80.5446C138.74 87.1858 129.567 90.7426 120.782 89.7676C113.945 89.004 107.497 85.5093 103.009 80.3431C100.987 78.015 99.4519 76.2814 97.0369 74.396C93.9494 71.9808 90.4793 68.9139 88.7243 65.3421Z" fill="#7466E3"/>
<path d="M114.677 71.1525C114.677 71.1525 107.07 70.4063 99.5745 70.1575C92.8845 69.9436 85.7244 71.1748 85.2544 71.6499C83.3819 73.5776 82.7069 90.143 83.7544 93.1999C84.8019 96.2568 89.6844 104.189 88.7819 109.367C87.8794 114.546 86.0094 121.759 86.0094 121.759C86.0094 121.759 92.3695 125.376 100.395 125.318C105.212 125.284 111.877 124.323 116.015 121.289C116.015 121.289 113.602 114.869 113.845 109.815C114.087 104.761 116.697 96.1349 118.08 93.0507C119.462 89.9664 117.23 71.6624 114.677 71.1525Z" fill="#F77A55"/>
<path d="M88.262 73.0399L85.3969 71.5923C85.3969 71.5923 82.1469 72.5126 80.4594 74.9302C79.0744 76.9201 72.8594 94.9382 72.8594 94.9382C72.8594 94.9382 81.5269 98.3035 84.2844 98.1468L88.507 87.0907L88.262 73.0399Z" fill="#F77A55"/>
<path d="M111.655 72.6447L114.732 71.1523C114.732 71.1523 116.69 71.5503 119.202 74.4505C120.787 76.2812 127.81 93.9883 127.81 93.9883C127.81 93.9883 119.265 97.6497 116.505 97.5875L111.9 86.6856L111.655 72.6447Z" fill="#F77A55"/>
<path d="M102.927 60.6032C102.927 60.6032 103.447 67.9981 103.927 70.3535C104.427 72.7886 105.067 83.9791 99.9845 85.3098C94.902 86.6405 96.157 72.6643 96.0295 70.1968C95.902 67.7294 94.7395 59.27 94.7395 59.27L102.927 60.6032Z" fill="#FBC6B6"/>
<path d="M94.7446 59.27C94.7446 59.27 94.9796 60.9763 95.2446 63.0806C97.1471 64.5132 99.7447 64.8689 102.745 63.1154C102.872 63.0382 102.995 62.9587 103.117 62.8666C103.01 61.5409 102.942 60.5908 102.942 60.5908L94.7446 59.27Z" fill="#F77A55"/>
<path d="M100.552 43.2945C102.535 43.9155 104.23 45.2199 105.332 46.9733C107.11 49.8734 108.117 58.2755 101.832 61.9742C95.547 65.6728 90.937 59.9993 91.0345 54.6142C91.132 49.2292 92.527 42.0932 100.552 43.2945Z" fill="#FBC6B6"/>
<path d="M89.677 52.8926C90.1596 54.2087 91.1771 55.0497 91.9471 54.771C92.7171 54.4924 92.9471 53.1961 92.4696 51.88C91.9921 50.5639 90.9696 49.7229 90.1996 50.0016C89.4296 50.2802 89.1945 51.5765 89.677 52.8926Z" fill="#FBC6B6"/>
<path d="M99.647 43.1011C99.647 43.1011 103.224 51.8412 106.592 52.7217C109.96 53.6021 109.765 57.9448 109.765 57.9448C109.765 57.9448 110.015 47.9313 106.917 45.5311C103.819 43.1309 99.647 43.1011 99.647 43.1011Z" fill="#7466E3"/>
<path d="M105.177 54.4698C104.677 55.8527 105.047 57.2457 105.987 57.5765C106.927 57.9073 108.09 57.0541 108.582 55.6687C109.075 54.2832 108.712 52.8928 107.772 52.5619C106.832 52.2311 105.677 53.0843 105.177 54.4698Z" fill="#FBC6B6"/>
<path d="M68.1193 138.443C68.1193 138.443 65.8693 136.6 63.2043 135.896C60.5393 135.192 60.5893 137.14 59.9042 140.125C59.2192 143.109 58.0642 145.099 56.6042 148C55.1442 150.9 56.9317 157.531 57.7517 157.618C59.7292 157.824 60.6468 153.611 62.5193 150.014C64.3918 146.418 69.6118 145.211 71.1318 145.052C76.4865 144.313 81.8887 143.968 87.2944 144.02C85.3869 140.406 82.6269 137.458 79.7944 134.319C72.8843 136.707 68.1193 138.443 68.1193 138.443Z" fill="#FBC6B6"/>
<path d="M148.285 128.744C147.355 124.075 143.422 122.17 138.882 122.277C128.417 122.545 98.9144 129.253 81.3518 134.735C82.4018 138.496 81.6018 140.953 82.8518 144.821C101.454 143.826 136.352 140.953 146.455 135.168C148.025 134.275 148.735 131 148.285 128.744Z" fill="#BAB4EE"/>
<path d="M136.075 149.199C134.752 146.214 133.425 144.264 132.882 141.239C132.24 137.655 132.54 135.653 128.132 137.352C125.603 138.339 122.791 138.325 120.272 137.312C118.62 136.64 116.577 135.82 114.257 134.884C112.742 138.003 111.832 141.379 111.574 144.834C117.074 145.398 121.075 145.948 121.275 145.97C122.157 146.06 128.112 147.311 129.812 150.99C131.512 154.669 132.277 159.248 134.217 158.805C135.335 158.554 137.397 152.174 136.075 149.199Z" fill="#FBC6B6"/>
<path d="M66.5442 120.65C62.4267 120.535 55.3116 121.306 54.2466 125.933C53.7316 128.171 53.9241 131.32 54.8416 133.432C55.9866 136.071 58.6217 137.506 61.2392 138.623C66.2392 140.725 97.1169 143.988 113.032 145.617C114.91 142.235 116.462 138.474 116.347 135.183C100.982 129.034 74.4267 120.858 66.5442 120.65Z" fill="#BAB4EE"/>
</svg>
