<svg width="196" height="186" viewBox="0 0 196 186" fill="none" xmlns="http://www.w3.org/2000/svg">
<path d="M181.772 177.485C201.735 164.745 203.04 102.986 164.432 88.5293C125.824 74.073 132.977 37.5942 100.497 10.3258C70.8916 -14.5298 21.9113 6.54015 5.59872 71.1803C-6.03385 117.273 7.53873 175.093 16.8013 177.485H181.772Z" fill="#F8F8FD"/>
<path d="M152.427 176.249C152.427 176.249 172.247 166.526 175.655 161.455C179.062 156.383 174.052 156.097 174.052 156.097C174.052 156.097 182.897 147.538 181.652 143.936C180.407 140.335 175.765 143.775 175.765 143.775C175.765 143.775 181.515 131.042 178.832 129.776C173.832 127.418 166.832 140.969 166.832 140.969C166.832 140.969 168.332 135.081 164.897 135.273C159.71 135.562 159.925 148.879 159.925 148.879C159.925 148.879 159.34 143.772 156.212 145.431C150.595 148.406 152.427 176.249 152.427 176.249Z" fill="#948BE4"/>
<path d="M155.718 143.389C159.11 142.374 159.898 146.125 159.898 146.125C159.898 146.125 159.7 135.574 164.898 135.286C168.338 135.094 166.833 140.982 166.833 140.982C166.833 140.982 173.833 127.431 178.833 129.789L152.405 176.052C152.208 172.809 150.838 144.852 155.718 143.389Z" fill="#BAB4EE"/>
<path d="M152.927 176.369C152.927 176.369 169.137 178.358 173.332 176.587C177.527 174.817 174.522 172.608 174.522 172.608C174.522 172.608 183.522 170.845 184.23 168.094C184.937 165.343 180.622 165.607 180.622 165.607C180.622 165.607 189.41 159.988 188.252 158.116C186.102 154.634 176.197 160.245 176.197 160.245C176.197 160.245 179.54 157.183 177.317 155.912C173.965 153.994 168.657 162.379 168.657 162.379C168.657 162.379 168.987 160.312 166.36 160.083C161.65 159.675 152.927 176.369 152.927 176.369Z" fill="#948BE4"/>
<path d="M166.132 159.536C168.76 159.765 168.66 162.382 168.66 162.382C168.66 162.382 173.968 153.99 177.32 155.915C179.543 157.186 176.2 160.248 176.2 160.248C176.2 160.248 186.105 154.629 188.255 158.119L152.88 176.276C154.082 174.189 161.73 159.153 166.132 159.536Z" fill="#4838D1"/>
<path d="M194.928 177.29C194.928 176.912 194.728 176.61 194.483 176.61H0.551395C0.395448 176.643 0.255553 176.728 0.155168 176.852C0.0547818 176.976 0 177.13 0 177.29C0 177.449 0.0547818 177.604 0.155168 177.728C0.255553 177.851 0.395448 177.937 0.551395 177.97H194.475C194.725 177.97 194.92 177.665 194.92 177.29H194.928Z" fill="#291F85"/>
<path d="M47.9466 176.291C47.9466 176.291 22.1114 163.606 17.6689 157.007C13.2264 150.409 19.7564 150.023 19.7564 150.023C19.7564 150.023 8.22635 138.868 9.84886 134.172C11.4714 129.476 17.5239 133.963 17.5239 133.963C17.5239 133.963 10.0239 117.365 13.5239 115.714C20.0239 112.64 29.1665 130.304 29.1665 130.304C29.1665 130.304 27.204 122.631 31.6865 122.88C38.449 123.255 38.169 140.614 38.169 140.614C38.169 140.614 38.934 133.958 43.0091 136.122C50.3216 139.999 47.9466 176.291 47.9466 176.291Z" fill="#948BE4"/>
<path d="M44.3941 134.301C40.829 132.206 38.109 137.139 38.109 137.139C38.109 137.139 38.4515 123.254 31.689 122.879C27.2064 122.63 29.169 130.303 29.169 130.303C29.169 130.303 20.0364 112.643 13.5264 115.713L47.9766 176.01C48.2191 171.799 49.1291 137.086 44.3941 134.301Z" fill="#BAB4EE"/>
<path d="M47.2794 176.447C47.2794 176.447 26.1492 179.059 20.6792 176.731C15.2092 174.403 19.1267 171.53 19.1267 171.53C19.1267 171.53 7.37663 169.234 6.47413 165.648C5.57162 162.061 11.1767 162.415 11.1767 162.415C11.1767 162.415 -0.275909 155.09 1.2291 152.647C4.03412 148.098 16.9467 155.426 16.9467 155.426C16.9467 155.426 12.5867 151.431 15.4867 149.775C19.8567 147.275 26.7717 158.216 26.7717 158.216C26.7717 158.216 26.3417 155.52 29.7718 155.231C35.9118 154.687 47.2794 176.447 47.2794 176.447Z" fill="#948BE4"/>
<path d="M29.7517 153.409C26.3267 153.707 26.7717 158.224 26.7717 158.224C26.7717 158.224 20.6491 146.554 15.4666 149.616C12.5916 151.314 16.5791 155.279 16.5791 155.279C16.5791 155.279 4.03402 148.106 1.229 152.655L47.3418 176.336C45.7743 173.608 35.4917 152.911 29.7517 153.409Z" fill="#4838D1"/>
<path d="M155.712 156.642H43.9618C39.6917 156.642 36.2317 153.642 36.2317 149.946V145.966C36.2317 142.27 39.6917 139.272 43.9618 139.272H155.712C150.602 144.113 150.512 151.511 155.507 156.436L155.712 156.642Z" fill="#4838D1"/>
<path d="M154.147 141.27H97.927C94.0545 141.27 90.927 144.255 90.927 147.966C90.927 151.662 94.0645 154.659 97.927 154.659H154.177C152.889 152.663 152.202 150.341 152.197 147.969C152.191 145.597 152.868 143.272 154.147 141.27Z" fill="white"/>
<path d="M172.427 155.736H31.6465C27.2765 155.736 23.7314 159.054 23.7314 163.146V169.379C23.7314 173.473 27.2765 176.789 31.6465 176.789H172.427L172.352 176.719C166.322 170.849 166.355 161.567 172.427 155.736Z" fill="#F77A55"/>
<path d="M169.927 158.853H94.677C90.307 158.853 86.762 162.171 86.762 166.262C86.762 170.356 90.307 173.672 94.677 173.672H169.927C168.571 171.436 167.854 168.874 167.854 166.262C167.854 163.651 168.571 161.088 169.927 158.853Z" fill="white"/>
<path d="M126.535 166.303H120.785C120.191 166.303 119.62 166.538 119.199 166.956C118.777 167.375 118.539 167.944 118.535 168.538V168.738H126.515L126.535 166.303Z" fill="#4838D1"/>
<path d="M121.027 166.31C122.4 166.31 124.45 167.464 125.605 168.891L139.227 185.698H147.227L134.272 169.715C132.75 167.834 130.047 166.31 128.237 166.31H121.027Z" fill="#948BE4"/>
<path d="M30.6166 51.2715C30.5985 51.3292 30.5645 51.3807 30.5184 51.42C30.4722 51.4593 30.4159 51.4848 30.3558 51.4936C30.2957 51.5025 30.2343 51.4942 30.1788 51.4699C30.1232 51.4456 30.0756 51.4061 30.0416 51.3561L28.6966 49.4211H26.3315C26.2707 49.4223 26.2107 49.4061 26.1589 49.3743C26.107 49.3426 26.0654 49.2966 26.039 49.242C26.0121 49.1883 26.0008 49.1281 26.0066 49.0683C26.0123 49.0085 26.0348 48.9515 26.0715 48.9038L27.5066 47.031L26.7715 44.7925C26.7525 44.7351 26.7498 44.6735 26.764 44.6146C26.7781 44.5557 26.8084 44.5019 26.8516 44.4593C26.8953 44.4177 26.9496 44.3888 27.0086 44.3756C27.0677 44.3625 27.1292 44.3656 27.1865 44.3847L29.4191 45.1656L31.3291 43.7778C31.3781 43.7422 31.4362 43.7211 31.4968 43.7167C31.5573 43.7123 31.6178 43.7248 31.6716 43.7529C31.7253 43.7806 31.77 43.8229 31.8005 43.8748C31.831 43.9268 31.8461 43.9863 31.8441 44.0464L31.7891 46.3992L33.7066 47.7771C33.7558 47.8124 33.7941 47.8608 33.8171 47.9167C33.8401 47.9726 33.8469 48.0338 33.8368 48.0933C33.8266 48.1529 33.7999 48.2084 33.7597 48.2536C33.7194 48.2988 33.6673 48.3319 33.6091 48.3491L31.3441 49.0232L30.6166 51.2715Z" fill="#F77A55"/>
<path d="M115.465 23.1761C115.622 22.7706 115.567 21.3204 117.595 19.9249C118.427 19.3578 119.11 18.8752 119.292 18.2135C119.612 17.0717 118.405 16.522 117.2 16.5295C116.9 16.5289 116.612 16.4123 116.397 16.2042C116.183 15.9962 116.058 15.7131 116.05 15.4151C116.041 15.1131 116.151 14.8196 116.357 14.5978C116.563 14.3759 116.849 14.2434 117.152 14.2285C117.946 14.1949 118.741 14.2855 119.507 14.4972C122.09 15.2111 122.87 16.9573 122.417 18.5742C122.005 20.0518 120.812 20.7732 119.842 21.3851C118.205 22.4199 118.207 23.5716 118.067 23.8925L115.465 23.1761ZM114.215 25.7208C114.266 25.4844 114.367 25.2613 114.51 25.0657C114.653 24.8702 114.836 24.7064 115.046 24.585C115.256 24.4635 115.49 24.387 115.731 24.3603C115.973 24.3335 116.218 24.3572 116.45 24.4298C117.507 24.7233 117.985 25.6512 117.717 26.6885C117.66 26.9248 117.556 27.1474 117.411 27.3428C117.266 27.5383 117.083 27.7026 116.872 27.826C116.662 27.9494 116.429 28.0293 116.186 28.061C115.944 28.0927 115.698 28.0755 115.463 28.0104C115.227 27.9453 115.008 27.8338 114.817 27.6823C114.626 27.5309 114.467 27.3427 114.351 27.1289C114.235 26.9152 114.163 26.6804 114.14 26.4385C114.117 26.1965 114.143 25.9525 114.217 25.7208H114.215Z" fill="#948BE4"/>
<path d="M180.742 49.4215L181.702 51.011C181.727 51.0477 181.762 51.0771 181.802 51.0962C181.842 51.1152 181.887 51.1232 181.931 51.1194C181.975 51.1156 182.018 51.1001 182.054 51.0745C182.09 51.0489 182.119 51.0141 182.137 50.9737L182.82 49.2499L184.635 48.832C184.678 48.8201 184.718 48.7968 184.749 48.7646C184.78 48.7324 184.802 48.6924 184.812 48.6488C184.822 48.6053 184.82 48.5599 184.807 48.5172C184.793 48.4746 184.768 48.4364 184.735 48.4066L183.297 47.23L183.457 45.3818C183.459 45.3378 183.448 45.2942 183.427 45.2556C183.406 45.2169 183.375 45.1846 183.337 45.1618C183.299 45.139 183.256 45.1267 183.211 45.126C183.167 45.1253 183.124 45.1364 183.085 45.158L181.515 46.153L179.797 45.4291C179.755 45.4139 179.71 45.4101 179.666 45.4182C179.622 45.4264 179.581 45.446 179.548 45.4752C179.514 45.5044 179.489 45.5421 179.475 45.5843C179.461 45.6265 179.458 45.6717 179.467 45.7151L179.935 47.5086L178.712 48.9091C178.685 48.944 178.667 48.9856 178.662 49.0296C178.656 49.0735 178.662 49.1182 178.679 49.1591C178.696 49.1999 178.724 49.2354 178.76 49.2619C178.796 49.2883 178.838 49.3048 178.882 49.3096L180.742 49.4215Z" fill="#F77A55"/>
<path d="M137.012 25.7768L134.91 24.2894L135.492 21.73L136.177 21.8842L135.697 23.9909L137.87 25.5281L136.75 28.2765L139.202 29.5923L138.087 32.0199L137.25 32.1666L138.292 29.8957L135.865 28.5924L137.012 25.7768Z" fill="#F77A55"/>
<path d="M40.1867 36.4551L41.4893 37.5936L43.1093 36.8901L44.4768 38.2697L45.9668 36.9895L47.5843 38.481L49.1043 37.4693L50.8943 38.6525L50.4443 39.3287L49.1043 38.4437L47.5018 39.5101L45.9468 38.0758L44.4318 39.3759L42.9218 37.8546L41.3393 38.5431L40.1343 37.4867L39.1917 38.1554L38.7192 37.4966L40.1867 36.4551Z" fill="#948BE4"/>
<path d="M187.1 60.6316C187.741 61.2453 188.184 62.034 188.374 62.8982C188.565 63.7625 188.493 64.6634 188.169 65.4873C187.845 66.3112 187.283 67.0212 186.554 67.5275C185.825 68.0338 184.961 68.3139 184.072 68.3323C183.183 68.3507 182.308 68.1066 181.559 67.6308C180.809 67.155 180.218 66.4689 179.86 65.6591C179.501 64.8493 179.393 63.9521 179.547 63.0808C179.701 62.2095 180.111 61.4031 180.725 60.7634C181.134 60.3373 181.624 59.9958 182.166 59.7584C182.709 59.5211 183.293 59.3926 183.885 59.3804C184.477 59.3681 185.066 59.4723 185.618 59.687C186.17 59.9018 186.673 60.2228 187.1 60.6316Z" fill="#E0DEF7"/>
<path d="M187 64.3847L185.083 64.9717L184.48 66.8771C184.469 66.9114 184.449 66.942 184.421 66.9653C184.393 66.9887 184.36 67.004 184.324 67.0094C184.288 67.0148 184.251 67.0102 184.218 66.9961C184.185 66.9819 184.156 66.9588 184.135 66.9293L182.98 65.2951L180.98 65.315C180.944 65.3158 180.907 65.3064 180.876 65.2877C180.844 65.269 180.819 65.2419 180.802 65.2095C180.785 65.177 180.778 65.1405 180.781 65.1042C180.785 65.0679 180.798 65.0332 180.82 65.0041L182.028 63.4072L181.388 61.5143C181.376 61.4796 181.374 61.4424 181.383 61.4068C181.391 61.3713 181.409 61.3387 181.435 61.3129C181.461 61.2871 181.494 61.2689 181.53 61.2606C181.565 61.2522 181.603 61.2539 181.638 61.2655L183.535 61.9122L185.148 60.7233C185.177 60.7022 185.212 60.6897 185.248 60.6871C185.284 60.6844 185.32 60.6917 185.353 60.7081C185.385 60.7245 185.412 60.7495 185.431 60.7803C185.45 60.811 185.46 60.8464 185.46 60.8825L185.428 62.8724L187.063 64.0315C187.095 64.0521 187.121 64.0818 187.137 64.117C187.152 64.1521 187.157 64.1911 187.15 64.2289C187.143 64.2667 187.126 64.3017 187.099 64.3295C187.072 64.3572 187.038 64.3764 187 64.3847Z" fill="#948BE4"/>
<path d="M54.5417 22.7426C52.0167 24.1678 52.5142 27.9661 55.3317 28.7247C55.8368 28.8643 56.275 29.1793 56.5667 29.6127L57.5667 31.1051C57.7003 31.3008 57.9028 31.4395 58.1343 31.4939C58.3657 31.5482 58.6092 31.5142 58.8167 31.3986L59.7742 30.8589C59.9826 30.7416 60.1389 30.5506 60.2121 30.3238C60.2853 30.097 60.27 29.8511 60.1692 29.6351C59.4042 28.0009 59.0042 27.4512 59.2767 26.4985C60.0917 23.7002 57.0717 21.3173 54.5417 22.7426Z" fill="#BAB4EE"/>
<path d="M57.4568 29.7888C56.7468 28.4084 55.9368 26.9732 55.7068 26.5703C54.2068 27.2195 54.1843 25.3888 55.1393 25.7843C55.4039 25.9126 55.6229 26.1183 55.7668 26.3738C56.2625 26.1401 56.7075 25.8123 57.0768 25.4087C56.9201 25.1439 56.8261 24.847 56.8018 24.5407C56.8268 24.1402 57.2293 23.8865 57.5318 24.1576C57.5891 24.21 57.6353 24.2733 57.6675 24.3438C57.6997 24.4143 57.7173 24.4906 57.7193 24.568C57.7193 24.8889 57.4693 25.1923 57.2618 25.4386C57.7618 26.5578 58.3068 27.6771 58.8693 28.7616L58.7318 28.8337C58.1768 27.7617 57.6468 26.6648 57.1468 25.5629C56.7765 25.9542 56.3366 26.2738 55.8493 26.5056C56.1593 27.0205 56.9418 28.4233 57.5993 29.7192L57.4568 29.7888ZM54.8368 26.4981C54.9621 26.5449 55.0962 26.5637 55.2297 26.5534C55.3631 26.5431 55.4927 26.5039 55.6093 26.4385C55.4829 26.2221 55.2938 26.0487 55.0668 25.941C54.5518 25.7072 54.5143 26.329 54.8368 26.4907V26.4981ZM56.9468 24.5506C56.9671 24.8088 57.0466 25.059 57.1793 25.2819C57.3786 25.0912 57.5087 24.8401 57.5493 24.568C57.5493 24.3864 57.3993 24.185 57.2193 24.2024C57.2018 24.1974 56.9543 24.3864 56.9468 24.5431V24.5506Z" fill="white"/>
<path d="M56.5393 29.5774C56.5477 29.5896 56.5569 29.6012 56.5668 29.6122L57.5668 31.1045C57.7004 31.3001 57.903 31.4388 58.1344 31.4932C58.3658 31.5475 58.6093 31.5135 58.8168 31.3979L59.7743 30.8582C59.9827 30.741 60.139 30.55 60.2122 30.3232C60.2854 30.0965 60.2701 29.8506 60.1693 29.6346C59.8293 28.9084 59.5618 28.3911 59.3918 27.9683L56.5393 29.5774Z" fill="#948BE4"/>
<path d="M52.0993 22.261L50.7543 21.086C50.7233 21.0589 50.6979 21.026 50.6796 20.9891C50.6613 20.9522 50.6505 20.912 50.6477 20.871C50.6449 20.8299 50.6502 20.7886 50.6634 20.7496C50.6765 20.7106 50.6973 20.6745 50.7243 20.6435C50.7514 20.6125 50.7843 20.5871 50.8212 20.5688C50.8581 20.5505 50.8983 20.5396 50.9394 20.5369C50.9805 20.5341 51.0217 20.5394 51.0607 20.5526C51.0998 20.5657 51.1358 20.5864 51.1668 20.6135L52.5094 21.786C52.572 21.8404 52.6105 21.9174 52.6164 22.0002C52.6222 22.0829 52.595 22.1646 52.5406 22.2273C52.4862 22.2899 52.4092 22.3284 52.3264 22.3343C52.2437 22.3401 52.162 22.3129 52.0993 22.2585V22.261Z" fill="#BAB4EE"/>
<path d="M51.6467 26.4324L49.8367 26.9324C49.7958 26.9429 49.7533 26.9452 49.7115 26.9393C49.6697 26.9334 49.6295 26.9193 49.5932 26.8978C49.5198 26.8544 49.4666 26.7837 49.4454 26.7011C49.4242 26.6186 49.4366 26.531 49.48 26.4576C49.5234 26.3842 49.5941 26.3311 49.6767 26.3099L51.4867 25.8099C51.5264 25.799 51.5679 25.7961 51.6087 25.8013C51.6496 25.8065 51.689 25.8197 51.7247 25.8401C51.7605 25.8606 51.7919 25.8878 51.8171 25.9204C51.8423 25.953 51.8609 25.9902 51.8717 26.0299C51.8825 26.0696 51.8854 26.1111 51.8802 26.1519C51.875 26.1928 51.8618 26.2322 51.8414 26.2679C51.821 26.3037 51.7937 26.3351 51.7612 26.3603C51.7286 26.3855 51.6914 26.404 51.6517 26.4149L51.6467 26.4324Z" fill="#BAB4EE"/>
<path d="M51.8843 32.4214C51.847 32.4042 51.8135 32.3798 51.7858 32.3496C51.758 32.3194 51.7365 32.2839 51.7226 32.2453C51.7086 32.2067 51.7025 32.1657 51.7045 32.1247C51.7065 32.0837 51.7166 32.0435 51.7343 32.0064C52.0093 31.4208 52.3391 30.8624 52.7193 30.3389C52.7716 30.2832 52.8425 30.2485 52.9186 30.2415C52.9947 30.2345 53.0707 30.2557 53.1323 30.3009C53.1939 30.3462 53.2367 30.4125 53.2528 30.4872C53.2688 30.5619 53.2569 30.6399 53.2193 30.7064C52.8629 31.1981 52.5532 31.7221 52.2943 32.2714C52.2596 32.3455 52.197 32.4028 52.1202 32.4308C52.0434 32.4589 51.9586 32.4556 51.8843 32.4214Z" fill="#BAB4EE"/>
<path d="M56.4017 20.5857C56.3608 20.5895 56.3196 20.5852 56.2804 20.5731C56.2412 20.561 56.2047 20.5414 56.1732 20.5152C56.1416 20.4891 56.1155 20.4571 56.0964 20.421C56.0772 20.3848 56.0654 20.3453 56.0617 20.3046C55.9865 19.4912 55.8273 18.6876 55.5867 17.9066C55.5707 17.8668 55.5632 17.8241 55.5646 17.7812C55.566 17.7384 55.5763 17.6963 55.5949 17.6576C55.6134 17.6189 55.6398 17.5844 55.6724 17.5563C55.705 17.5283 55.743 17.5072 55.7842 17.4945C55.8253 17.4818 55.8687 17.4776 55.9115 17.4824C55.9543 17.4871 55.9957 17.5006 56.033 17.522C56.0704 17.5434 56.1028 17.5723 56.1284 17.6068C56.154 17.6413 56.1721 17.6807 56.1817 17.7225C56.4354 18.5447 56.603 19.3909 56.6817 20.2474C56.6894 20.3292 56.6642 20.4106 56.6118 20.474C56.5593 20.5374 56.4838 20.5775 56.4017 20.5857Z" fill="#BAB4EE"/>
<path d="M59.0342 22.1793C58.9851 22.1127 58.9641 22.0296 58.9758 21.9477C58.9875 21.8659 59.0309 21.7919 59.0967 21.7418L60.7167 20.5217C60.783 20.4717 60.8665 20.45 60.9488 20.4615C61.031 20.473 61.1054 20.5167 61.1554 20.583C61.2055 20.6493 61.2272 20.7328 61.2157 20.8151C61.2042 20.8974 61.1605 20.9717 61.0942 21.0218L59.4717 22.2418C59.4051 22.2908 59.322 22.3118 59.2401 22.3001C59.1583 22.2884 59.0843 22.245 59.0342 22.1793Z" fill="#BAB4EE"/>
<path d="M63.8117 25.9047C63.7851 25.9141 63.7573 25.9199 63.7292 25.9222C63.0307 25.9772 62.3284 25.9571 61.6342 25.8622C61.5935 25.8566 61.5542 25.843 61.5188 25.8223C61.4833 25.8016 61.4523 25.7741 61.4274 25.7413C61.4026 25.7086 61.3844 25.6713 61.374 25.6315C61.3636 25.5918 61.3611 25.5504 61.3667 25.5097C61.3723 25.4689 61.3858 25.4297 61.4065 25.3943C61.4273 25.3588 61.4548 25.3277 61.4875 25.3029C61.5203 25.2781 61.5576 25.2599 61.5973 25.2495C61.6371 25.2391 61.6785 25.2366 61.7192 25.2422C62.3674 25.334 63.0235 25.3575 63.6767 25.3122C63.752 25.3061 63.8271 25.3275 63.8879 25.3725C63.9486 25.4174 63.991 25.4829 64.0072 25.5568C64.0234 25.6307 64.0122 25.7079 63.9758 25.7741C63.9394 25.8404 63.8802 25.8912 63.8092 25.9172L63.8117 25.9047Z" fill="#BAB4EE"/>
<path d="M159.025 25.1104L158.225 26.5829C156.288 30.1167 153.734 33.2787 150.682 35.9205L150.342 36.214C150.342 36.214 150.997 39.1989 154.002 38.6641C156.324 35.1308 159.078 31.8988 162.202 29.0429L163.377 28.0902L159.025 25.1104Z" fill="#BAB4EE"/>
<path d="M163.382 28.0878C163.202 28.3017 162.087 27.8068 160.882 26.9811C159.677 26.1555 158.845 25.3149 159.025 25.1035C159.205 24.8921 160.327 25.387 161.525 26.2102C162.722 27.0333 163.56 27.8739 163.382 28.0878Z" fill="#BAB4EE"/>
<path d="M163.375 28.1087C163.375 28.1087 160.625 26.5655 160.125 25.7227L159.795 26.1403C160.146 26.4458 160.515 26.7306 160.9 26.9932C162.075 27.811 163.177 28.3112 163.375 28.1087Z" fill="#948BE4"/>
<path d="M158.377 32.9441C158.025 33.0616 156.46 33.4441 155.08 31.3291C154.9 31.5541 154.72 31.7766 154.535 31.9991C155.482 33.3066 156.52 33.6991 157.242 33.7916C157.357 33.8066 157.507 33.8191 157.622 33.8241C157.87 33.5316 158.122 33.2341 158.377 32.9441Z" fill="#F77A55"/>
<path d="M155.597 31.3886L154.632 27.9634L154.142 29.0056L153.027 28.8365L154.967 31.7468L155.597 31.3886Z" fill="#F77A55"/>
<path d="M154.83 31.9776L152.127 31.5176L152.757 32.2501L152.13 32.8151L154.742 32.5976L154.83 31.9776Z" fill="#F77A55"/>
<path d="M154.353 32.6456C154.301 32.4961 154.28 32.3378 154.289 32.18C154.299 32.0222 154.34 31.8678 154.41 31.7259C154.48 31.5839 154.577 31.4571 154.696 31.3528C154.814 31.2485 154.953 31.1687 155.103 31.1181C155.765 30.8556 156.495 31.118 156.733 31.6981C156.97 32.2781 156.63 32.9631 155.983 33.2256C155.335 33.4881 154.59 33.2256 154.353 32.6456Z" fill="#F77A55"/>
<path d="M165.46 45.4591L166.777 45.0312L167.705 47.0636L169.707 46.6755L170.65 48.0835L171.367 47.6084L170.105 45.7253L168.207 46.0934L167.245 43.979L165.262 44.6208L165.46 45.4591Z" fill="#BAB4EE"/>
<path d="M169.565 121.386L170.882 120.958L171.81 122.991L173.812 122.603L174.755 124.011L175.472 123.536L174.21 121.652L172.312 122.021L171.347 119.906L169.367 120.548L169.565 121.386Z" fill="#F77A55"/>
<path d="M92.4944 19.4372C92.3005 20.39 91.827 21.2641 91.1338 21.9491C90.4406 22.6341 89.5588 23.0992 88.6 23.2856C87.6411 23.472 86.6482 23.3713 85.7469 22.9963C84.8455 22.6213 84.0762 21.9888 83.5361 21.1787C82.996 20.3687 82.7095 19.4175 82.7127 18.4454C82.7159 17.4733 83.0087 16.524 83.5542 15.7175C84.0996 14.9111 84.8731 14.2836 85.7769 13.9145C86.6808 13.5454 87.6743 13.4512 88.6319 13.6439C89.2679 13.7719 89.8723 14.0233 90.4106 14.3837C90.9489 14.7441 91.4106 15.2065 91.7693 15.7445C92.128 16.2825 92.3766 16.8855 92.501 17.5191C92.6255 18.1527 92.6232 18.8045 92.4944 19.4372Z" fill="#BAB4EE"/>
<path d="M84.9069 18.7026C84.8382 19.0414 84.837 19.3904 84.9036 19.7296C84.9701 20.0688 85.1031 20.3916 85.2948 20.6797C85.4866 20.9677 85.7334 21.2152 86.0211 21.4082C86.3089 21.6012 86.632 21.7358 86.972 21.8043C87.3119 21.8728 87.6621 21.874 88.0025 21.8077C88.3429 21.7413 88.6669 21.6089 88.9559 21.4178C89.2449 21.2267 89.4933 20.9807 89.687 20.694C89.8806 20.4072 90.0157 20.0853 90.0845 19.7465L84.9069 18.7026Z" fill="white"/>
<path d="M18.889 75.1251C18.4865 74.5928 18.0415 74.3242 17.569 74.3242C14.8789 74.3242 14.2739 82.2091 14.2739 84.97C14.2739 88.1214 14.6239 90.8302 15.2889 92.8051C15.9014 94.6258 16.7165 95.6257 17.589 95.6257C18.514 95.6257 19.359 94.4766 19.9665 92.3922C21.524 87.0494 20.949 77.8537 18.889 75.1251ZM19.4315 92.3226C18.9115 94.0513 18.2165 95.0835 17.569 95.0835C16.9214 95.0835 16.2264 94.0513 15.7064 92.3226C15.1289 90.3949 14.8089 87.7832 14.8089 84.97C14.8089 82.1568 15.1289 79.5451 15.7064 77.6174C16.2264 75.8763 16.9214 74.8565 17.569 74.8565C18.2165 74.8565 18.9115 75.8888 19.4315 77.6174C20.0115 79.5451 20.329 82.1568 20.329 84.97C20.329 87.7832 20.0115 90.3949 19.4265 92.3226H19.4315Z" fill="#F77A55"/>
<path d="M26.7114 87.9149C24.5614 84.3629 14.6164 79.0771 10.0863 79.0771C9.04383 79.0771 8.36132 79.3632 8.06382 79.9253C7.76631 80.4875 7.87881 81.1044 8.34131 81.8705C10.4988 85.4325 20.4289 90.7332 24.9414 90.7332C25.9964 90.7332 26.6914 90.4421 26.9889 89.8725C27.2689 89.3402 27.1764 88.6835 26.7114 87.9149ZM26.5739 89.5317C26.4114 89.9322 25.8514 90.1436 24.9564 90.1436C21.8214 90.1436 14.6864 87.4871 10.1888 83.1615C8.47382 81.5123 8.31133 80.674 8.47883 80.2686C8.64633 79.8631 9.19882 79.6592 10.0913 79.6592C11.7613 79.6592 14.3689 80.378 17.0689 81.5795C20.1164 82.9376 22.8839 84.731 24.8614 86.6339C26.5789 88.2855 26.7414 89.1213 26.5739 89.5317Z" fill="#F77A55"/>
<path d="M26.8042 79.8093C26.4942 79.2372 25.8042 78.9487 24.7867 78.9487C22.7317 78.9487 19.2391 80.1674 15.6691 82.1323C12.0991 84.0972 9.26407 86.3605 8.26156 88.0344C7.80156 88.8004 7.71155 89.4471 7.98905 89.9569C8.29155 90.5141 8.96406 90.7976 9.98907 90.7976C14.4716 90.7976 24.3692 85.4029 26.5392 81.7791C27.0017 81.0006 27.0917 80.3366 26.8042 79.8093ZM21.7867 85.4278C18.6166 87.6289 14.9116 89.3352 11.8741 89.9918C11.2513 90.1412 10.6145 90.2246 9.97407 90.2405C9.17156 90.2405 8.64656 90.0589 8.45906 89.7132C8.27155 89.3675 8.35906 88.9098 8.70906 88.3303C9.62406 86.8032 12.3416 84.5996 15.6316 82.7466C19.1691 80.742 22.6042 79.5457 24.8242 79.5457C25.8417 79.5457 26.3867 79.8118 26.4442 80.3366C26.5542 81.3837 24.7267 83.3858 21.7867 85.4278Z" fill="#F77A55"/>
<path d="M19.2917 84.6488C19.2917 84.9858 19.1913 85.3153 19.0031 85.5955C18.815 85.8757 18.5475 86.0941 18.2346 86.2231C17.9217 86.3521 17.5773 86.3858 17.2451 86.32C16.9129 86.2543 16.6078 86.092 16.3683 85.8537C16.1288 85.6154 15.9657 85.3118 15.8996 84.9812C15.8335 84.6507 15.8674 84.3081 15.9971 83.9967C16.1267 83.6854 16.3462 83.4192 16.6278 83.232C16.9094 83.0448 17.2405 82.9448 17.5792 82.9448C18.0332 82.9455 18.4684 83.1252 18.7894 83.4446C19.1104 83.7641 19.2911 84.1971 19.2917 84.6488Z" fill="#F77A55"/>
<path d="M17.0788 76.6682C17.0793 76.9225 17.0043 77.1712 16.8633 77.3828C16.7223 77.5944 16.5216 77.7594 16.2867 77.8569C16.0518 77.9545 15.7932 77.9801 15.5437 77.9306C15.2942 77.8812 15.065 77.7588 14.8852 77.579C14.7053 77.3992 14.5829 77.1701 14.5334 76.9207C14.4839 76.6713 14.5095 76.4128 14.6071 76.178C14.7047 75.9432 14.8697 75.7426 15.0814 75.6017C15.2931 75.4607 15.5419 75.3857 15.7963 75.3862C16.1362 75.3869 16.4621 75.5222 16.7024 75.7625C16.9428 76.0027 17.0781 76.3284 17.0788 76.6682Z" fill="#F77A55"/>
<path d="M21.0415 91.8249C21.042 92.0371 20.9795 92.2447 20.862 92.4214C20.7444 92.5981 20.5771 92.736 20.3812 92.8175C20.1852 92.8991 19.9695 92.9207 19.7613 92.8796C19.5531 92.8385 19.3617 92.7365 19.2115 92.5867C19.0613 92.4368 18.9589 92.2457 18.9173 92.0375C18.8757 91.8294 18.8968 91.6137 18.9779 91.4175C19.059 91.2214 19.1964 91.0538 19.3729 90.9358C19.5493 90.8179 19.7568 90.7549 19.969 90.7549C20.253 90.7549 20.5254 90.8675 20.7265 91.0681C20.9275 91.2687 21.0408 91.5409 21.0415 91.8249Z" fill="#F77A55"/>
<path d="M9.55129 87.8174C10.1616 87.8174 10.6563 87.3227 10.6563 86.7124C10.6563 86.1021 10.1616 85.6074 9.55129 85.6074C8.94101 85.6074 8.44629 86.1021 8.44629 86.7124C8.44629 87.3227 8.94101 87.8174 9.55129 87.8174Z" fill="#F77A55"/>
<path d="M27.0341 81.7982C27.0341 81.9782 26.9807 82.1541 26.8807 82.3038C26.7808 82.4534 26.6386 82.5701 26.4724 82.6389C26.3061 82.7078 26.1231 82.7258 25.9466 82.6907C25.7701 82.6556 25.6079 82.5689 25.4806 82.4417C25.3534 82.3144 25.2667 82.1523 25.2316 81.9757C25.1965 81.7992 25.2145 81.6162 25.2834 81.45C25.3522 81.2837 25.4689 81.1416 25.6185 81.0416C25.7682 80.9416 25.9441 80.8882 26.1241 80.8882C26.2436 80.8882 26.362 80.9117 26.4724 80.9575C26.5828 81.0032 26.6831 81.0702 26.7676 81.1547C26.8521 81.2392 26.9191 81.3395 26.9648 81.45C27.0106 81.5604 27.0341 81.6787 27.0341 81.7982Z" fill="#F77A55"/>
<path d="M13.5588 79.9002C13.5588 80.0803 13.5053 80.2563 13.4052 80.406C13.3051 80.5558 13.1629 80.6724 12.9964 80.7412C12.83 80.81 12.6469 80.8279 12.4703 80.7926C12.2937 80.7572 12.1316 80.6703 12.0044 80.5428C11.8773 80.4153 11.7908 80.2529 11.756 80.0762C11.7211 79.8995 11.7395 79.7165 11.8088 79.5502C11.878 79.384 11.995 79.2421 12.145 79.1424C12.295 79.0427 12.4712 78.9897 12.6513 78.9902C12.8922 78.9909 13.123 79.087 13.2931 79.2576C13.4632 79.4282 13.5588 79.6593 13.5588 79.9002Z" fill="#F77A55"/>
<path d="M191.963 99.8017L187.669 101.198L187.912 101.937L192.205 100.54L191.963 99.8017Z" fill="#948BE4"/>
<path d="M184.234 91.2997L181.981 95.4658L182.666 95.8323L184.919 91.6662L184.234 91.2997Z" fill="#948BE4"/>
<path d="M185.802 109.008L185.21 109.511L188.437 113.267L189.028 112.764L185.802 109.008Z" fill="#948BE4"/>
<path d="M185.765 109.335L177.955 111.435L172.058 106.56L172.553 105.965L178.143 110.584L185.135 108.704L187.133 101.545L181.973 96.0508L182.54 95.521L187.998 101.334L185.765 109.335Z" fill="#948BE4"/>
<path d="M173.927 105.622C174.051 105.97 174.068 106.347 173.976 106.705C173.884 107.063 173.688 107.386 173.412 107.633C173.136 107.88 172.792 108.04 172.425 108.093C172.058 108.145 171.683 108.088 171.348 107.929C171.013 107.77 170.733 107.516 170.543 107.198C170.353 106.881 170.262 106.514 170.282 106.145C170.301 105.776 170.43 105.422 170.652 105.126C170.875 104.83 171.18 104.606 171.53 104.483C172 104.318 172.516 104.345 172.965 104.559C173.415 104.772 173.761 105.155 173.927 105.622Z" fill="#BAB4EE"/>
<path d="M179.845 110.651C179.969 111 179.986 111.377 179.894 111.734C179.802 112.092 179.606 112.415 179.33 112.662C179.054 112.909 178.71 113.069 178.343 113.121C177.975 113.174 177.6 113.117 177.265 112.958C176.93 112.799 176.65 112.545 176.461 112.227C176.271 111.91 176.18 111.544 176.2 111.175C176.219 110.806 176.348 110.451 176.57 110.155C176.792 109.859 177.098 109.636 177.448 109.512C177.917 109.347 178.434 109.375 178.883 109.588C179.333 109.802 179.679 110.184 179.845 110.651Z" fill="#BAB4EE"/>
<path d="M187.248 108.41C187.371 108.759 187.388 109.136 187.296 109.494C187.205 109.851 187.008 110.174 186.732 110.421C186.456 110.668 186.113 110.828 185.745 110.881C185.378 110.934 185.003 110.877 184.668 110.718C184.333 110.558 184.053 110.304 183.863 109.987C183.674 109.669 183.583 109.303 183.602 108.934C183.622 108.565 183.751 108.21 183.973 107.914C184.195 107.618 184.5 107.394 184.85 107.271C185.083 107.189 185.329 107.153 185.576 107.166C185.822 107.178 186.064 107.239 186.287 107.345C186.509 107.451 186.709 107.6 186.874 107.782C187.039 107.965 187.166 108.179 187.248 108.41Z" fill="#BAB4EE"/>
<path d="M191.04 112.888C191.164 113.236 191.181 113.613 191.089 113.971C190.997 114.329 190.801 114.652 190.525 114.899C190.249 115.145 189.905 115.305 189.538 115.358C189.17 115.411 188.795 115.354 188.46 115.195C188.125 115.036 187.845 114.781 187.656 114.464C187.466 114.146 187.375 113.78 187.395 113.411C187.414 113.042 187.543 112.688 187.765 112.392C187.987 112.096 188.293 111.872 188.643 111.749C189.112 111.584 189.629 111.611 190.078 111.825C190.528 112.038 190.874 112.421 191.04 112.888Z" fill="#BAB4EE"/>
<path d="M195.073 99.2971C195.197 99.6458 195.215 100.023 195.124 100.382C195.033 100.741 194.837 101.065 194.561 101.313C194.284 101.561 193.94 101.721 193.572 101.775C193.204 101.828 192.828 101.772 192.493 101.612C192.157 101.453 191.876 101.198 191.686 100.88C191.496 100.562 191.404 100.195 191.424 99.8258C191.444 99.4562 191.573 99.1007 191.796 98.8043C192.018 98.5078 192.324 98.2838 192.675 98.1605C193.145 97.9955 193.661 98.0225 194.11 98.2356C194.56 98.4487 194.906 98.8305 195.073 99.2971Z" fill="#BAB4EE"/>
<path d="M187.077 90.1463C187.201 90.4946 187.218 90.8716 187.126 91.2295C187.035 91.5875 186.838 91.9103 186.562 92.1573C186.286 92.4042 185.943 92.5642 185.575 92.6169C185.208 92.6697 184.833 92.6129 184.498 92.4537C184.163 92.2945 183.883 92.0401 183.693 91.7226C183.503 91.4051 183.413 91.0387 183.432 90.6698C183.452 90.3009 183.58 89.9461 183.803 89.6501C184.025 89.3541 184.33 89.1303 184.68 89.007C185.15 88.842 185.666 88.8694 186.116 89.083C186.565 89.2966 186.911 89.6791 187.077 90.1463Z" fill="#BAB4EE"/>
<path d="M189.648 100.729C189.771 101.078 189.788 101.455 189.696 101.812C189.605 102.17 189.408 102.493 189.132 102.74C188.856 102.987 188.513 103.147 188.145 103.2C187.778 103.252 187.403 103.196 187.068 103.037C186.733 102.877 186.453 102.623 186.263 102.305C186.073 101.988 185.983 101.622 186.002 101.253C186.022 100.884 186.151 100.529 186.373 100.233C186.595 99.9373 186.9 99.7135 187.25 99.5901C187.483 99.5082 187.729 99.4726 187.976 99.4855C188.222 99.4984 188.463 99.5595 188.686 99.6653C188.909 99.7711 189.108 99.9195 189.273 100.102C189.438 100.285 189.565 100.498 189.648 100.729Z" fill="#BAB4EE"/>
<path d="M184.092 95.026C184.216 95.3743 184.233 95.7512 184.141 96.1091C184.049 96.4671 183.853 96.7899 183.577 97.0368C183.301 97.2837 182.958 97.4437 182.59 97.4965C182.223 97.5492 181.848 97.4924 181.513 97.3332C181.178 97.1741 180.898 96.9197 180.708 96.6022C180.518 96.2847 180.427 95.9183 180.447 95.5495C180.466 95.1806 180.595 94.8258 180.818 94.5298C181.04 94.2339 181.345 94.0101 181.695 93.8867C181.927 93.8044 182.174 93.7686 182.421 93.7813C182.667 93.7941 182.909 93.8551 183.131 93.961C183.354 94.0668 183.554 94.2154 183.719 94.3981C183.884 94.5809 184.011 94.7943 184.092 95.026Z" fill="#BAB4EE"/>
<path d="M193.033 81.2993L190.513 80.7743L191.048 78.7368L191.8 78.9343L191.473 80.1793L193.193 80.5368L193.033 81.2993Z" fill="#F77A55"/>
<path d="M22.5963 103.688L22.0288 105.252L19.3963 104.623L18.2813 106.811L16.2338 106.66L16.1562 107.692L18.8963 107.893L19.9513 105.819L22.6913 106.475L23.5438 104.12L22.5963 103.688Z" fill="#BAB4EE"/>
<path d="M20.1865 60.1709L21.564 60.3127L21.579 62.5439L23.569 62.9991L23.854 64.6681L24.704 64.5238L24.3215 62.2927L22.4365 61.8623L22.419 59.5391L20.3465 59.3252L20.1865 60.1709Z" fill="#948BE4"/>
<path d="M75.1468 92.8193L71.3818 104.853L59.5292 87.5985V87.5836C59.5292 87.5836 55.1792 85.3823 54.0892 85.1784C53.1141 84.9943 49.9891 84.7008 49.5016 85.2207C49.4778 85.1852 49.4426 85.1588 49.4016 85.1461C48.9866 85.0416 48.2241 86.4345 48.1166 86.7727C48.0091 87.111 48.8666 89.0735 48.9466 89.2202C49.0266 89.367 48.7266 89.4491 48.3491 89.3048C47.9716 89.1605 46.7866 87.8124 46.7866 87.8124C46.7866 87.8124 46.6716 85.6137 45.9616 85.6261C45.2516 85.6386 45.8966 88.387 45.8966 88.387L46.5866 89.3073L45.5641 88.6929C45.5641 88.6929 44.8641 87.2006 44.6766 87.2901C44.4891 87.3797 44.2416 88.1184 44.6316 88.8944C44.968 89.4851 45.3807 90.0295 45.8591 90.5136L47.4091 91.3071C47.4091 91.3071 45.6066 91.1528 45.0741 90.7524C44.5416 90.3519 44.3241 90.9141 44.7491 91.3916C45.1741 91.8692 47.5466 92.685 49.0491 92.8467C50.5516 93.0084 55.2341 92.889 55.9067 92.7671C56.4542 92.6651 57.4742 92.5184 57.9792 92.792C58.6467 94.7271 64.4292 115.702 71.4242 118.162C71.4242 118.162 74.6543 117.739 78.3368 109.405C82.0193 101.07 83.9918 96.0578 83.9918 96.0578L75.1468 92.8193ZM53.3966 88.5462C52.8766 88.7427 51.0041 88.8496 50.5116 88.6705C50.0191 88.4915 49.2766 86.6036 49.2766 86.6036C49.4024 86.2825 49.4938 85.949 49.5491 85.6087C50.0966 86.2032 52.4216 85.9395 52.9441 86.2753C53.5191 86.6434 53.9267 88.3522 53.4016 88.5462H53.3966Z" fill="#FBC6B6"/>
<path d="M117.242 95.4543C117.242 95.4543 119.387 100.397 123.357 108.6C127.327 116.803 130.57 117.116 130.57 117.116C137.475 114.43 142.527 93.268 143.125 91.3105C143.625 91.0095 144.645 91.1314 145.195 91.2135C145.872 91.313 150.557 91.2707 152.052 91.0568C153.547 90.8429 155.895 89.9474 156.302 89.455C156.71 88.9625 156.47 88.4078 155.952 88.8282C155.435 89.2485 153.64 89.4624 153.64 89.4624L155.162 88.6167C155.624 88.1164 156.017 87.5578 156.332 86.9552C156.695 86.1667 156.42 85.4255 156.23 85.3534C156.04 85.2813 155.392 86.7861 155.392 86.7861L154.392 87.4378L155.05 86.4926C155.05 86.4926 155.602 83.7242 154.89 83.7342C154.177 83.7441 154.14 85.9479 154.14 85.9479C154.14 85.9479 153.002 87.3482 152.64 87.5049C152.277 87.6616 151.967 87.5895 152.04 87.4403C152.112 87.291 152.902 85.2987 152.79 84.953C152.677 84.6072 151.86 83.2541 151.45 83.371C151.409 83.385 151.374 83.4133 151.352 83.4506C150.852 82.9532 147.735 83.3486 146.767 83.565C145.685 83.8137 141.415 86.1568 141.415 86.1568L130.165 103.817L125.985 91.9199L117.242 95.4543ZM147.927 84.6445C148.427 84.2938 150.772 84.4779 151.3 83.8635C151.366 84.2001 151.468 84.5286 151.605 84.8435C151.605 84.8435 150.925 86.7587 150.442 86.9527C149.96 87.1467 148.082 87.1045 147.555 86.9279C147.027 86.7513 147.375 85.0276 147.927 84.6445Z" fill="#FBC6B6"/>
<path d="M98.427 126.277C94.421 124.316 90.2542 122.699 85.9719 121.444C76.3444 118.606 63.3793 116.718 56.0218 122.829C51.6917 126.418 96.4695 131.154 96.4695 131.154L98.427 126.277Z" fill="#948BE4"/>
<path d="M146.825 125.098C146.825 125.098 142.575 118.88 131.6 119.022C127.33 119.079 121.412 119.925 116.02 120.984C106.397 122.877 97.3244 126.061 97.3244 126.061L96.4719 131.155L146.825 125.098Z" fill="#948BE4"/>
<path d="M84.4719 133.948L103.952 143.387L119.192 131.264L114.192 120.38L86.5744 122.104L84.4719 133.948Z" fill="#948BE4"/>
<path d="M88.7243 65.0194C86.5418 60.5969 86.4268 52.242 88.1368 47.3371C89.5193 43.3574 92.8319 41.1038 97.0969 40.6437C102.042 40.1064 105.197 41.074 109.052 43.5787C113.052 46.1879 117.862 49.016 122.477 50.1676C128.492 51.66 134.702 52.7743 140.207 55.6173C143.842 57.4952 147.22 60.2835 148.672 64.0916C150.752 69.5438 148.372 75.8193 144.532 80.2219C138.74 86.863 129.567 90.4198 120.782 89.4448C113.945 88.6812 107.497 85.1865 103.009 80.0204C100.987 77.6922 99.4519 75.9586 97.0369 74.0732C93.9494 71.658 90.4793 68.5912 88.7243 65.0194Z" fill="#1C155B"/>
<path d="M114.677 70.8297C114.677 70.8297 107.07 70.0835 99.5745 69.8348C92.8845 69.6209 85.7244 70.8521 85.2544 71.3272C83.3819 73.2548 82.7069 89.8203 83.7544 92.8772C84.8019 95.9341 89.6844 103.866 88.7819 109.045C87.8794 114.223 86.0094 121.436 86.0094 121.436C86.0094 121.436 92.3695 125.053 100.395 124.996C105.212 124.961 111.877 124.001 116.015 120.966C116.015 120.966 113.602 114.547 113.845 109.492C114.087 104.438 116.697 95.8122 118.08 92.728C119.462 89.6437 117.23 71.3396 114.677 70.8297Z" fill="#F77A55"/>
<path d="M88.262 72.7176L85.3969 71.27C85.3969 71.27 82.1469 72.1903 80.4594 74.6079C79.0744 76.5978 72.8594 94.6157 72.8594 94.6157C72.8594 94.6157 81.5269 97.981 84.2844 97.8243L88.507 86.7683L88.262 72.7176Z" fill="#F77A55"/>
<path d="M111.655 72.3225L114.732 70.8301C114.732 70.8301 116.69 71.228 119.202 74.1282C120.787 75.9589 127.81 93.666 127.81 93.666C127.81 93.666 119.265 97.3273 116.505 97.2651L111.9 86.3632L111.655 72.3225Z" fill="#F77A55"/>
<path d="M102.927 60.2809C102.927 60.2809 103.447 67.6757 103.927 70.0312C104.427 72.4662 105.067 83.6566 99.9845 84.9873C94.902 86.318 96.157 72.3419 96.0295 69.8745C95.902 67.4071 94.7395 58.9478 94.7395 58.9478L102.927 60.2809Z" fill="#FBC6B6"/>
<path d="M94.7446 58.9478C94.7446 58.9478 94.9796 60.6542 95.2446 62.7587C97.1471 64.1915 99.7447 64.5472 102.745 62.7935C102.872 62.7163 102.995 62.6367 103.117 62.5447C103.01 61.2189 102.942 60.2686 102.942 60.2686L94.7446 58.9478Z" fill="#F77A55"/>
<path d="M100.552 42.9718C102.535 43.5927 104.23 44.8972 105.332 46.6505C107.11 49.5508 108.117 57.953 101.832 61.6516C95.547 65.3503 90.937 59.6767 91.0345 54.2916C91.132 48.9065 92.527 41.7704 100.552 42.9718Z" fill="#FBC6B6"/>
<path d="M89.677 52.5699C90.1596 53.8856 91.1771 54.7262 91.9471 54.4477C92.7171 54.1691 92.9471 52.8733 92.4696 51.5576C91.9921 50.2419 90.9696 49.4012 90.1996 49.6798C89.4296 49.9583 89.1945 51.2541 89.677 52.5699Z" fill="#FBC6B6"/>
<path d="M99.647 42.7783C99.647 42.7783 103.224 51.5183 106.592 52.3987C109.96 53.2792 109.765 57.6218 109.765 57.6218C109.765 57.6218 110.015 47.6084 106.917 45.2083C103.819 42.8082 99.647 42.7783 99.647 42.7783Z" fill="#1C155B"/>
<path d="M105.177 54.1478C104.677 55.5303 105.047 56.9228 105.987 57.2535C106.927 57.5842 108.09 56.7313 108.582 55.3463C109.075 53.9613 108.712 52.5713 107.772 52.2406C106.832 51.9099 105.677 52.7628 105.177 54.1478Z" fill="#FBC6B6"/>
<path d="M68.1193 138.121C68.1193 138.121 65.8693 136.278 63.2043 135.574C60.5393 134.87 60.5893 136.818 59.9042 139.803C59.2192 142.788 58.0642 144.778 56.6042 147.678C55.1442 150.578 56.9317 157.21 57.7517 157.297C59.7292 157.503 60.6468 153.29 62.5193 149.693C64.3918 146.096 69.6118 144.89 71.1318 144.73C76.4865 143.991 81.8887 143.646 87.2944 143.698C85.3869 140.084 82.6269 137.136 79.7944 133.997C72.8843 136.385 68.1193 138.121 68.1193 138.121Z" fill="#FBC6B6"/>
<path d="M148.285 128.42C147.355 123.752 143.422 121.847 138.882 121.953C128.417 122.222 98.9144 128.93 81.3518 134.412C82.4018 138.173 81.6018 140.63 82.8518 144.498C101.454 143.503 136.352 140.63 146.455 134.845C148.025 133.952 148.735 130.676 148.285 128.42Z" fill="#BAB4EE"/>
<path d="M136.075 148.876C134.752 145.892 133.425 143.941 132.882 140.917C132.24 137.333 132.54 135.331 128.132 137.029C125.603 138.016 122.791 138.002 120.272 136.99C118.62 136.318 116.577 135.497 114.257 134.562C112.742 137.681 111.832 141.056 111.574 144.511C117.074 145.076 121.075 145.625 121.275 145.648C122.157 145.737 128.112 146.988 129.812 150.667C131.512 154.346 132.277 158.925 134.217 158.482C135.335 158.231 137.397 151.851 136.075 148.876Z" fill="#FBC6B6"/>
<path d="M66.5442 120.327C62.4267 120.213 55.3116 120.984 54.2466 125.61C53.7316 127.849 53.9241 130.998 54.8416 133.11C55.9866 135.749 58.6217 137.184 61.2392 138.301C66.2392 140.402 97.1169 143.666 113.032 145.295C114.91 141.912 116.462 138.151 116.347 134.861C100.982 128.712 74.4267 120.536 66.5442 120.327Z" fill="#BAB4EE"/>
</svg>
