<svg width="206" height="186" viewBox="0 0 206 186" fill="none" xmlns="http://www.w3.org/2000/svg">
<path d="M190.753 177.808C210.715 165.068 212.02 103.308 173.413 88.8518C134.805 74.3956 141.957 37.9168 109.48 10.6485C79.872 -14.207 30.8918 6.86289 14.5792 71.5029C2.94662 117.595 16.5192 175.415 25.7817 177.808H190.753Z" fill="#1C1C4D"/>
<path d="M134.447 83.3401L137.182 80.706C136.325 75.9453 131.835 73.652 128.88 73.3411C120.917 72.5004 116.86 77.9451 115.15 86.6805C112.032 102.624 115.96 169.57 115.96 169.57C116.252 167.791 137.877 100.562 137.322 82.0914L134.447 83.3401Z" fill="#BAB4EE"/>
<path d="M25.6115 135.907L25.2715 138.394L24.459 135.506C22.1765 134.79 20.1915 134.544 18.6189 134.899C4.57136 138.078 28.8465 157.3 28.8465 157.3C28.8465 157.3 21.1115 152.467 13.6164 149.408L13.5214 151.94L12.5639 149.077C6.74138 146.811 1.34135 145.762 0.261339 149.037C-0.756167 152.119 1.28885 155.037 4.80887 157.633L8.85389 157.775L6.46888 158.77C14.5964 163.949 28.039 167.655 32.679 168.495C28.239 167.802 17.3889 166.396 10.9564 167.779L11.9564 169.451L9.41639 168.187C7.16638 168.908 5.76637 170.105 5.91637 171.988C6.20387 175.589 21.9165 176.885 21.9165 176.885L79.2843 176.365L79.6043 176.524C79.6043 176.524 44.1041 142.647 25.6115 135.907Z" fill="#6E62DB"/>
<path d="M205.562 169.217C204.455 164.105 193.222 162.603 178.902 165.406C184 163.665 191.005 159.728 194.632 157.924L192.152 156.352L197.135 156.584C201.212 154.208 203.25 151.878 201.917 149.766C200.917 148.191 198.742 147.527 195.785 147.545L194.227 150.318L194.55 147.582C187.092 148.01 185.4 146.799 175.337 150.845C181.625 147.599 182.532 146.592 182.945 145.286L179.54 143.794H183.54C186.767 140.341 191.885 133.511 189.762 130.362C188.012 127.766 180.32 131.372 175.412 133.245L173.325 137.919L173.747 133.924C158.14 140.69 163.43 135.262 163.43 135.262C163.43 135.262 179.712 101.746 170.115 102.492C166.325 102.791 162.25 105.061 158.25 108.71L158.147 112.043L156.957 109.929C154.042 112.77 151.157 116.215 148.402 119.908C152.137 112.103 154.97 104.437 155.252 98.7288L152.4 98.3831L155.215 96.4355C154.95 93.5527 153.802 91.3713 151.465 90.2172C147.897 88.4488 144.152 91.1251 140.465 96.4355L141.375 101.236L139.087 98.5472C125.887 119.953 113.814 172.657 113.814 172.657L112.857 175.514L151.642 177.42C151.642 177.42 207.797 179.541 205.562 169.217Z" fill="#BAB4EE"/>
<path d="M202.777 177.682H2.5512C2.38079 177.682 2.21737 177.615 2.09688 177.494C1.97639 177.374 1.90869 177.21 1.90869 177.04C1.90869 176.87 1.97639 176.706 2.09688 176.586C2.21737 176.465 2.38079 176.397 2.5512 176.397H202.777C202.948 176.397 203.111 176.465 203.232 176.586C203.352 176.706 203.42 176.87 203.42 177.04C203.42 177.21 203.352 177.374 203.232 177.494C203.111 177.615 202.948 177.682 202.777 177.682Z" fill="#291F85"/>
<path d="M148.525 154.974H57.5566C54.0841 154.974 51.2666 152.433 51.2666 149.296V145.919C51.2666 142.782 54.0841 140.24 57.5566 140.24H148.525C144.362 144.347 144.29 150.619 148.357 154.803L148.525 154.974Z" fill="#291F85"/>
<path d="M147.25 141.924H101.475C99.9609 141.924 98.5092 142.522 97.4388 143.587C96.3684 144.652 95.7671 146.096 95.7671 147.602C95.7671 149.108 96.3684 150.553 97.4388 151.617C98.5092 152.682 99.9609 153.281 101.475 153.281H147.252C146.205 151.57 145.651 149.606 145.651 147.603C145.65 145.6 146.203 143.635 147.25 141.924Z" fill="#E0DEF7"/>
<path d="M144.427 124.132C144.627 123.791 144.325 123.386 143.865 123.386H71.4192C65.7417 123.386 61.1392 127.164 61.1392 131.828C61.1392 136.489 65.7417 140.268 71.4192 140.268H143.885C144.347 140.268 144.65 139.872 144.45 139.521C143.049 137.198 142.307 134.54 142.303 131.83C142.299 129.12 143.033 126.46 144.427 124.132Z" fill="#6E62DB"/>
<path d="M143.849 125.208H95.2442C93.5203 125.208 91.867 125.889 90.648 127.102C89.429 128.315 88.7441 129.96 88.7441 131.675V132.173C88.7441 133.888 89.429 135.533 90.648 136.746C91.867 137.958 93.5203 138.64 95.2442 138.64H143.954C142.883 136.565 142.316 134.269 142.297 131.936C142.279 129.604 142.811 127.299 143.849 125.208Z" fill="#E0DEF7"/>
<path d="M56.2617 122.639H103.012C107.157 122.639 110.512 119.035 110.512 114.585C110.512 110.138 107.15 106.531 103.012 106.531H56.2617C59.8367 111.008 59.9742 117.548 56.5967 122.182L56.2617 122.639Z" fill="#E0DEF7"/>
<path d="M109.907 114.588C109.907 110.141 106.507 106.534 102.314 106.534H55.4067C55.353 106.533 55.3003 106.521 55.2514 106.499C55.2026 106.477 55.1586 106.445 55.1221 106.406C55.0856 106.367 55.0572 106.321 55.0387 106.271C55.0202 106.221 55.0118 106.167 55.0142 106.114C55.0121 106.008 55.0521 105.905 55.1256 105.828C55.199 105.75 55.2999 105.705 55.4067 105.701H129.807C134.435 105.701 138.187 109.681 138.187 114.588C138.187 119.498 134.437 123.478 129.807 123.478H55.4067C55.2999 123.474 55.199 123.428 55.1256 123.351C55.0521 123.274 55.0121 123.171 55.0142 123.065C55.0115 123.011 55.0195 122.958 55.0379 122.907C55.0562 122.857 55.0845 122.81 55.121 122.771C55.1575 122.731 55.2016 122.699 55.2506 122.677C55.2997 122.654 55.3527 122.641 55.4067 122.64H102.307C106.504 122.64 109.907 119.038 109.907 114.588Z" fill="#4838D1"/>
<path d="M113.22 131.974H108.22C107.142 131.974 106.27 132.306 106.27 132.724V132.789H113.222L113.22 131.974Z" fill="#291F85"/>
<path d="M117.487 133.832C117.487 132.804 116.18 131.974 114.57 131.974H108.157C109.38 131.974 110.372 132.603 110.372 133.384L110.342 153.316L113.89 150.754L117.505 153.316L117.487 133.832Z" fill="#F77A55"/>
<path d="M185.925 154.939H50.7592C48.7436 154.939 46.8105 155.736 45.3852 157.154C43.9599 158.572 43.1592 160.496 43.1592 162.501V168.861C43.1592 170.867 43.9599 172.79 45.3852 174.208C46.8105 175.626 48.7436 176.423 50.7592 176.423H185.925L185.855 176.348C183.074 173.468 181.526 169.624 181.539 165.63C181.552 161.635 183.125 157.802 185.925 154.939Z" fill="#F77A55"/>
<path d="M183.533 158.118H111.282C109.267 158.118 107.333 158.915 105.908 160.333C104.483 161.751 103.682 163.674 103.682 165.68C103.682 167.685 104.483 169.608 105.908 171.026C107.333 172.444 109.267 173.241 111.282 173.241H183.533C182.227 170.932 181.541 168.328 181.541 165.68C181.541 163.031 182.227 160.427 183.533 158.118Z" fill="#E0DEF7"/>
<path d="M148.055 165.72H142.195C141.589 165.72 141.009 165.96 140.581 166.388C140.153 166.816 139.912 167.396 139.912 168.001V168.204H148.055V165.72Z" fill="#291F85"/>
<path d="M142.435 165.727C143.835 165.727 145.935 166.906 147.107 168.361L161.005 185.523H169.17L155.95 169.214C154.395 167.294 151.637 165.732 149.79 165.732L142.435 165.727Z" fill="#4838D1"/>
<path d="M20.1213 174.54L22.9688 173.878C24.4643 173.951 25.9632 173.853 27.4364 173.587C27.6122 174.152 27.7163 174.737 27.7464 175.328C27.7614 175.532 27.4689 176.542 27.2664 176.572C26.5339 176.683 25.2439 176.557 22.9538 176.609C22.9538 176.609 19.3513 177.034 17.4213 176.4C15.4913 175.766 20.1213 174.54 20.1213 174.54Z" fill="#4838D1"/>
<path d="M51.5893 128.156C51.7468 129.803 53.1343 130.395 54.4268 131.422C55.2968 132.121 55.1468 134.009 54.4818 135.18C52.8018 138.15 54.2318 138.516 55.5893 140.697C58.8393 145.948 48.7393 147.109 47.5393 147.5C46.3393 147.89 45.5243 148.365 44.8143 148.288C42.6768 148.052 40.7192 145.025 39.6317 142.227C38.5442 139.428 41.1817 139.282 41.3167 137.672C41.4517 136.063 38.3667 135.72 39.2817 132.698C40.2817 129.412 41.6692 126.629 43.5318 125.631C46.6018 123.98 50.3368 125.706 51.1843 127.034C51.4059 127.371 51.5446 127.756 51.5893 128.156Z" fill="#1C155B"/>
<path d="M51.8264 164.113C52.0914 164.769 53.5539 167.097 53.5539 167.097L33.0188 167.301L32.6963 163.108C38.3363 163.063 43.9089 160.583 49.1039 158.81C49.2364 159.128 51.6964 163.794 51.8264 164.113Z" fill="#FEECE7"/>
<path d="M37.2665 148.035C37.2665 148.035 38.369 140.289 40.144 139.486C41.919 138.683 51.5241 139.797 52.9616 140.67C54.3991 141.543 52.0041 150.639 51.6366 153.184C51.6141 153.335 51.5916 153.487 51.5666 153.639C50.9544 157.303 51.3146 161.062 52.6116 164.546C47.3616 166.132 45.9941 167.005 40.3615 166.851L38.2565 154.601C38.2565 154.601 36.579 148.672 37.2665 148.035Z" fill="#6E62DB"/>
<path d="M47.7719 134.387C47.7719 134.387 48.2144 138.652 48.5919 139.697C48.9694 140.742 47.5919 142.871 45.3068 143.46C43.0218 144.05 44.6868 141.19 44.6343 140.083C44.5818 138.976 44.3618 133.745 44.3618 133.745L47.7719 134.387Z" fill="#FBC6B6"/>
<path d="M47.8264 134.884C47.5277 135.223 47.1765 135.511 46.7864 135.738C45.9288 136.238 45.1413 136.355 44.4638 136.201C44.4088 134.877 44.3613 133.745 44.3613 133.745L47.7714 134.39C47.7714 134.39 47.7914 134.582 47.8264 134.884Z" fill="#F45424"/>
<path d="M46.9766 126.599C47.8621 126.88 48.6175 127.467 49.1066 128.253C49.8966 129.557 50.3341 133.32 47.5216 134.969C44.7091 136.618 42.6565 134.081 42.7115 131.658C42.7665 129.236 43.4065 126.047 46.9766 126.599Z" fill="#FBC6B6"/>
<path d="M41.8567 130.652C41.8868 131.282 42.2093 131.777 42.5743 131.76C42.9393 131.742 43.2143 131.215 43.1818 130.585C43.1493 129.955 42.8293 129.46 42.4643 129.48C42.0992 129.5 41.8267 130.022 41.8567 130.652Z" fill="#FBC6B6"/>
<path d="M49.029 131.611C48.8065 132.234 48.9665 132.862 49.3865 133.012C49.8065 133.162 50.3265 132.779 50.549 132.156C50.7715 131.534 50.6115 130.906 50.1915 130.756C49.7715 130.606 49.2515 130.988 49.029 131.611Z" fill="#FBC6B6"/>
<path d="M52.9616 140.67C52.9616 140.67 51.3241 141.526 50.3191 143.903C49.3141 146.281 52.7341 158.461 53.4641 159.24C54.1941 160.018 56.2141 160.14 56.5566 158.245C56.8991 156.35 55.7391 141.272 52.9616 140.67Z" fill="#4838D1"/>
<path d="M43.1565 139.041L45.9815 155.912L34.9815 157.675L31.4814 141.894C31.4814 141.894 40.549 138.25 43.1565 139.041Z" fill="#E0DEF7"/>
<path d="M21.9463 139.553C22.9969 139.143 24.1433 139.038 25.2513 139.252C27.3088 139.653 30.5789 140.481 31.8914 141.886C33.8714 144.003 35.7064 158.014 35.7064 158.014L27.1563 156.114L21.9463 139.553Z" fill="#E0DEF7"/>
<path d="M51.3465 168.423C49.909 164.443 33.6264 150 29.3164 151.112L31.6314 159.927C31.6314 159.927 36.469 174.276 41.209 176.126C45.949 177.977 50.389 175.878 50.389 175.878C50.389 175.878 52.784 172.385 51.3465 168.423Z" fill="#E0DEF7"/>
<path d="M45.4989 145.234C45.2964 145.639 46.5914 146.364 46.9689 146.637C47.3464 146.909 48.9039 146.637 48.9039 146.637C48.9039 146.637 45.7239 144.774 45.4989 145.234Z" fill="#FBC6B6"/>
<path d="M31.5891 164.125C31.5891 164.125 27.449 172.682 27.4365 173.577C27.4165 174.858 21.454 174.507 22.749 173.958C23.0465 173.831 23.984 173.358 24.0565 173.299C24.4415 172.968 27.8765 162.354 27.8765 162.354L31.5891 164.125Z" fill="#F77A55"/>
<path d="M32.9067 153.89C32.7092 153.671 30.6116 152.842 28.9966 154.842C27.3816 156.842 24.2866 172.42 24.2866 172.42L28.0916 172.79C28.0916 172.79 37.5617 158.998 32.9067 153.89Z" fill="#E0DEF7"/>
<path d="M20.5989 142.212L25.494 156.409C25.5859 156.685 25.7527 156.93 25.976 157.117C26.1993 157.304 26.4703 157.426 26.759 157.469C31.349 158.116 33.744 158.444 33.744 158.444C33.744 158.444 34.639 158.491 35.589 158.504L46.0891 157.387C46.3088 157.359 46.5203 157.286 46.7105 157.173C46.9008 157.06 47.0657 156.91 47.1951 156.731C47.3245 156.552 47.4155 156.349 47.4627 156.133C47.5098 155.918 47.512 155.695 47.4691 155.479L44.9066 141.543C44.8396 141.135 44.6137 140.771 44.2781 140.528C43.9425 140.285 43.5242 140.184 43.1141 140.247L33.0065 141.938L30.3515 141.866L22.4064 140.09C21.2089 139.821 20.1864 141.018 20.5989 142.212Z" fill="#F77A55"/>
<path d="M41.9792 149.116C41.9792 149.116 44.7992 149.636 45.7617 149.614C46.5072 149.623 47.2492 149.715 47.9743 149.888C47.9743 149.888 51.1218 157.25 51.5718 158.071C52.9193 160.523 56.6568 160.232 56.5943 158.188C56.5468 156.564 50.1618 146.375 48.4668 146.425C46.7718 146.475 41.4667 145.375 41.2967 146.047C41.2117 146.408 46.1893 146.577 45.4042 146.883C44.9042 147.074 41.0192 146.634 41.0342 147.094C41.0492 147.554 44.5542 147.592 44.9317 147.947C45.3092 148.303 41.2017 147.515 41.2242 148.288C41.2367 148.679 44.8442 148.398 45.2393 148.99C45.4068 149.231 41.6817 148.35 41.9792 149.116Z" fill="#FBC6B6"/>
<path d="M22.9692 147.915C22.9172 147.892 22.8609 147.881 22.8041 147.882C22.7474 147.884 22.6917 147.897 22.6407 147.922C22.5898 147.947 22.5449 147.983 22.5092 148.027C22.4735 148.071 22.4479 148.123 22.4342 148.178C22.3931 148.298 22.3819 148.427 22.4015 148.553C22.4211 148.679 22.4709 148.798 22.5467 148.9C22.8992 149.28 25.3667 149.65 25.3792 149.278C25.3892 148.995 23.7342 148.26 22.9692 147.915Z" fill="#FBC6B6"/>
<path d="M22.489 148.868C22.489 148.868 22.239 149.793 22.454 149.801C22.669 149.808 25.3365 150.073 25.454 149.756C25.5715 149.438 22.8315 148.681 22.489 148.868Z" fill="#FBC6B6"/>
<path d="M22.374 149.819C22.3528 149.931 22.3547 150.046 22.3796 150.157C22.4046 150.269 22.452 150.374 22.519 150.466C22.739 150.716 25.224 150.549 25.314 150.154C25.404 149.759 22.4615 149.516 22.374 149.819Z" fill="#FBC6B6"/>
<path d="M22.7512 150.682C22.7473 150.84 22.7899 150.996 22.8737 151.13C22.9987 151.265 24.8337 151.077 25.0162 150.687C25.1987 150.297 22.9662 150.277 22.7512 150.682Z" fill="#FBC6B6"/>
<path d="M28.9768 172.276C28.4845 174.052 27.9004 175.801 27.2268 177.517C26.6518 178.882 26.5042 180.252 26.1217 180.927C25.1567 182.65 23.5817 182.717 22.3292 181.673C21.0767 180.628 22.7567 176.27 22.7567 176.27L26.7093 170.736L28.9768 172.276Z" fill="#FBC6B6"/>
<path d="M26.1138 180.927C26.4538 180.32 26.6138 179.186 27.0438 177.972C26.4388 178.323 25.4238 178.584 24.8738 178.437C22.8513 177.9 22.7488 176.281 22.7488 176.281C22.7488 176.281 20.6413 180.758 21.8913 181.793C22.2091 182.058 22.5829 182.248 22.985 182.349C23.387 182.45 23.8068 182.459 24.2129 182.376C24.619 182.292 25.001 182.119 25.3301 181.868C25.6593 181.617 25.9272 181.296 26.1138 180.927Z" fill="#6E62DB"/>
<path d="M33.0188 141.933L36.2539 158.601L34.3064 158.484L33.7438 158.444L30.3613 141.864L33.0188 141.933Z" fill="#F77A55"/>
<path d="M44.2939 175.15C45.4014 177.18 47.6114 177.496 49.5989 177.329C51.7989 177.145 54.2189 175.949 54.8689 173.437C55.5639 170.756 54.6514 167.435 53.0489 165.331C44.8539 154.556 44.7989 153.494 41.5289 152.064C38.0063 150.52 24.9263 172.75 24.9263 172.75L28.5163 174.578C28.5163 174.578 33.9063 170.101 37.3488 166.169C37.7538 165.707 38.9038 163.316 38.9038 163.316C38.9038 163.316 43.5614 173.81 44.2939 175.15Z" fill="#E0DEF7"/>
<path d="M44.4067 110.355C40.9442 110.877 39.8592 115.377 42.7042 117.431C43.2106 117.807 43.5653 118.35 43.7042 118.964L44.2042 121.07C44.2701 121.35 44.4394 121.595 44.6784 121.756C44.9174 121.918 45.2086 121.983 45.4942 121.941L46.8067 121.742C47.0923 121.699 47.3513 121.551 47.532 121.327C47.7127 121.103 47.8019 120.82 47.7817 120.533C47.6267 118.362 47.4142 117.573 48.1342 116.615C50.2518 113.815 47.8792 109.835 44.4067 110.355Z" fill="#E0DEF7"/>
<path d="M45.1714 120.294C45.0882 120.305 45.0039 120.284 44.9369 120.233C44.8699 120.183 44.8257 120.108 44.8139 120.025L44.1564 115.427L43.0764 114.506C43.041 114.48 43.0114 114.447 42.9893 114.409C42.9673 114.372 42.9534 114.33 42.9484 114.286C42.9434 114.243 42.9474 114.199 42.9603 114.157C42.9732 114.115 42.9946 114.076 43.0231 114.043C43.0517 114.01 43.0869 113.983 43.1265 113.964C43.166 113.945 43.2091 113.934 43.253 113.932C43.297 113.93 43.3408 113.937 43.3818 113.953C43.4229 113.969 43.4602 113.993 43.4914 114.024L44.7414 115.101L45.4214 119.931C45.4354 120.012 45.4171 120.095 45.3704 120.163C45.3238 120.231 45.2524 120.278 45.1714 120.294Z" fill="#BAB4EE"/>
<path d="M46.7766 120.249C46.8575 120.232 46.9285 120.184 46.9751 120.116C47.0216 120.048 47.04 119.965 47.0266 119.884L46.2766 115.307L47.0266 114.108C47.0529 114.073 47.0716 114.032 47.0815 113.99C47.0914 113.947 47.0923 113.902 47.0842 113.859C47.0761 113.816 47.0591 113.775 47.0343 113.739C47.0096 113.703 46.9775 113.672 46.9402 113.649C46.9029 113.625 46.8611 113.61 46.8175 113.603C46.7739 113.597 46.7294 113.599 46.6869 113.61C46.6443 113.622 46.6045 113.642 46.5701 113.669C46.5356 113.697 46.5072 113.731 46.4866 113.769L45.5991 115.172L46.3841 119.986C46.3909 120.029 46.4066 120.071 46.4304 120.109C46.4542 120.146 46.4856 120.178 46.5224 120.203C46.5593 120.227 46.6009 120.244 46.6447 120.252C46.6884 120.26 46.7333 120.259 46.7766 120.249Z" fill="#BAB4EE"/>
<path d="M43.7041 118.908L43.7191 118.961L44.2191 121.067C44.285 121.347 44.4542 121.592 44.6932 121.753C44.9323 121.914 45.2235 121.98 45.5091 121.937L46.8216 121.738C47.1072 121.696 47.3662 121.548 47.5469 121.324C47.7276 121.1 47.8168 120.816 47.7966 120.53C47.7291 119.562 47.6466 118.871 47.6441 118.316L43.7041 118.908Z" fill="#4838D1"/>
<path d="M43.7618 76.8233L42.3918 74.8483H39.9768C39.9159 74.8464 39.8568 74.8278 39.8059 74.7945C39.755 74.7612 39.7144 74.7146 39.6885 74.6597C39.6626 74.6049 39.6525 74.544 39.6593 74.4837C39.666 74.4235 39.6894 74.3664 39.7268 74.3185L41.1893 72.4083L40.4393 70.1274C40.4196 70.0689 40.4169 70.0061 40.4315 69.9461C40.4461 69.8862 40.4774 69.8315 40.5217 69.7884C40.5661 69.7453 40.6218 69.7156 40.6823 69.7025C40.7429 69.6894 40.806 69.6936 40.8643 69.7145L43.1393 70.508L45.0893 69.0927C45.1393 69.0566 45.1985 69.0352 45.2601 69.0307C45.3217 69.0262 45.3833 69.0388 45.4381 69.0673C45.4928 69.0957 45.5386 69.1387 45.5701 69.1915C45.6017 69.2443 45.6179 69.3048 45.6168 69.3663L45.5593 71.7665L47.5143 73.1744C47.5647 73.2101 47.6039 73.2591 47.6276 73.3159C47.6513 73.3727 47.6584 73.435 47.6482 73.4957C47.6381 73.5563 47.611 73.613 47.5701 73.6591C47.5292 73.7052 47.4761 73.7389 47.4168 73.7564L45.1043 74.4454L44.3543 76.7313C44.3363 76.791 44.3016 76.8444 44.2543 76.8854C44.2071 76.9264 44.1491 76.9532 44.0872 76.9628C44.0252 76.9725 43.9618 76.9645 43.9042 76.9398C43.8467 76.9151 43.7973 76.8747 43.7618 76.8233Z" fill="#F77A55"/>
<path d="M170.842 80.4024L169.842 78.9522H168.07C168.025 78.9501 167.982 78.9363 167.945 78.9122C167.908 78.888 167.878 78.8545 167.858 78.815C167.838 78.7755 167.829 78.7314 167.832 78.6873C167.835 78.6433 167.85 78.6008 167.875 78.5642L168.95 77.1613L168.397 75.4848C168.385 75.442 168.386 75.397 168.397 75.3542C168.409 75.3115 168.432 75.2727 168.464 75.2417C168.496 75.2108 168.535 75.1889 168.578 75.1782C168.622 75.1676 168.667 75.1687 168.71 75.1813L170.382 75.7658L171.815 74.7261C171.852 74.7017 171.895 74.6876 171.94 74.6854C171.984 74.6831 172.028 74.6928 172.068 74.7133C172.107 74.7339 172.141 74.7646 172.164 74.8023C172.188 74.84 172.201 74.8832 172.202 74.9276L172.16 76.6912L173.597 77.7234C173.632 77.7512 173.658 77.7876 173.674 77.8289C173.69 77.8702 173.694 77.9149 173.687 77.9585C173.679 78.002 173.66 78.0429 173.632 78.0768C173.603 78.1106 173.566 78.1364 173.525 78.1513L171.825 78.6487L171.282 80.3253C171.269 80.3694 171.243 80.4091 171.209 80.4397C171.174 80.4703 171.132 80.4908 171.086 80.4988C171.04 80.5068 170.993 80.502 170.95 80.485C170.907 80.4679 170.87 80.4393 170.842 80.4024Z" fill="#F77A55"/>
<path d="M142.59 59.081L140.36 58.7079L139.054 60.5982L136.584 60.0038L135.819 62.4438L132.997 61.8941L132.012 64.0531L129.212 63.9685L129.244 62.9114L131.339 62.9761L132.377 60.6977L135.089 61.2275L135.869 58.7477L138.594 59.4019L139.869 57.5563L141.934 57.902L142.517 56.5166L143.497 56.9245L142.59 59.081Z" fill="#F77A55"/>
<path d="M79.3193 65.9559L77.6868 66.4533L76.5918 63.929L74.1143 64.3642L72.9843 62.6108L72.0918 63.1804L73.6043 65.5281L75.9493 65.1153L77.0918 67.7391L79.5468 66.9905L79.3193 65.9559Z" fill="#4838D1"/>
<path d="M31.2663 92.6943L28.8213 94.1718L31.3563 105.497C31.4074 105.723 31.512 105.935 31.6615 106.114C31.8109 106.292 32.001 106.433 32.216 106.524C32.4309 106.615 32.6646 106.654 32.8976 106.638C33.1307 106.621 33.3565 106.55 33.5563 106.429C33.8211 106.27 34.0284 106.03 34.1483 105.746C34.2682 105.462 34.2946 105.147 34.2238 104.847L33.6063 102.188L36.1688 100.639L38.2889 102.402C38.5243 102.599 38.8158 102.717 39.1221 102.739C39.4284 102.762 39.7342 102.689 39.9964 102.529L40.0439 102.502C40.2432 102.381 40.4107 102.214 40.5325 102.015C40.6543 101.817 40.7268 101.593 40.7442 101.361C40.7615 101.129 40.7232 100.896 40.6322 100.682C40.5413 100.468 40.4005 100.278 40.2214 100.129L31.2663 92.6943ZM32.9063 99.5071L32.4388 97.4252L34.0838 98.7933L32.9063 99.5071Z" fill="#F77A55"/>
<path d="M178.632 103.408C178.757 103.087 178.712 101.94 180.317 100.836C180.977 100.385 181.517 100.002 181.665 99.4801C181.915 98.5747 180.96 98.1394 180.007 98.1444C179.77 98.1445 179.542 98.0526 179.372 97.8882C179.201 97.7238 179.102 97.4999 179.095 97.2639C179.087 97.0246 179.175 96.7921 179.338 96.6162C179.501 96.4403 179.727 96.3353 179.967 96.3236C180.597 96.2959 181.228 96.3682 181.835 96.5376C183.88 97.1022 184.495 98.4852 184.14 99.7711C183.813 100.943 182.867 101.512 182.097 102.01C180.802 102.831 180.805 103.751 180.692 104L178.632 103.408ZM177.632 105.425C177.713 105.154 177.872 104.912 178.09 104.731C178.308 104.549 178.575 104.436 178.858 104.406C179.14 104.375 179.426 104.429 179.678 104.559C179.93 104.689 180.138 104.891 180.275 105.139C180.412 105.386 180.472 105.669 180.449 105.951C180.425 106.232 180.317 106.501 180.14 106.722C179.964 106.943 179.725 107.108 179.454 107.194C179.184 107.281 178.893 107.286 178.62 107.208C178.434 107.162 178.259 107.078 178.107 106.961C177.955 106.844 177.829 106.698 177.736 106.53C177.644 106.363 177.587 106.178 177.57 105.988C177.552 105.798 177.574 105.606 177.635 105.425H177.632Z" fill="#6E62DB"/>
<path d="M110.292 44.5078C107.107 44.5078 105.515 48.408 107.792 50.6416C108.199 51.0472 108.446 51.5848 108.487 52.1563L108.645 54.1164C108.665 54.3772 108.784 54.6207 108.978 54.7982C109.171 54.9757 109.424 55.0742 109.687 55.074H110.907C111.17 55.0735 111.423 54.9748 111.615 54.7973C111.808 54.6199 111.926 54.3768 111.947 54.1164C112.107 52.1439 112.022 51.4052 112.8 50.6341C115.07 48.4079 113.48 44.5078 110.292 44.5078Z" fill="#E0DEF7"/>
<path d="M109.614 53.5495C109.576 53.5492 109.539 53.5414 109.504 53.5266C109.469 53.5118 109.437 53.4903 109.41 53.4633C109.383 53.4362 109.362 53.4042 109.348 53.3691C109.334 53.334 109.327 53.2964 109.327 53.2585L109.374 49.0303L108.527 48.0553C108.479 47.9969 108.457 47.9225 108.464 47.8477C108.47 47.773 108.506 47.7039 108.564 47.655C108.621 47.6061 108.695 47.5814 108.77 47.586C108.846 47.5906 108.916 47.6242 108.967 47.6797L109.967 48.8188L109.917 53.2535C109.918 53.293 109.91 53.3322 109.895 53.3688C109.88 53.4054 109.858 53.4385 109.829 53.4662C109.801 53.4939 109.768 53.5155 109.731 53.5298C109.694 53.5442 109.654 53.5509 109.614 53.5495Z" fill="#E0DEF7"/>
<path d="M111.064 53.726C111.103 53.726 111.14 53.7185 111.176 53.7038C111.211 53.6891 111.243 53.6676 111.269 53.6405C111.296 53.6134 111.317 53.5813 111.331 53.546C111.346 53.5107 111.353 53.473 111.352 53.435L111.304 49.2067L112.152 48.2317C112.202 48.1736 112.227 48.098 112.222 48.0215C112.216 47.945 112.18 47.8739 112.122 47.8237C112.064 47.7736 111.988 47.7486 111.911 47.7542C111.834 47.7598 111.762 47.7955 111.712 47.8536L110.712 48.9953L110.762 53.4301C110.761 53.4695 110.769 53.5088 110.784 53.5453C110.799 53.5819 110.821 53.615 110.849 53.6427C110.878 53.6704 110.911 53.692 110.948 53.7064C110.985 53.7207 111.025 53.7274 111.064 53.726Z" fill="#E0DEF7"/>
<path d="M108.482 52.1069V52.1567L108.639 54.1199C108.66 54.3812 108.779 54.6251 108.972 54.8029C109.166 54.9807 109.419 55.0793 109.682 55.0791H110.907C111.17 55.0787 111.422 54.9797 111.615 54.802C111.808 54.6243 111.926 54.3808 111.947 54.1199C112.019 53.2405 112.042 52.6077 112.112 52.1069H108.482Z" fill="#6E62DB"/>
<path d="M116.422 39.1401L113.669 43.7865L118.337 40.3316L116.422 39.1401Z" fill="#E0DEF7"/>
<path d="M105.227 37.9446L108.042 42.7146L107.562 37.2358L105.227 37.9446Z" fill="#E0DEF7"/>
<path d="M100.329 44.7744L104.809 46.5344L100.237 46.8094L100.329 44.7744Z" fill="#E0DEF7"/>
<path d="M114.147 51.0527L115.944 53.3278L117.26 51.7703L114.147 51.0527Z" fill="#E0DEF7"/>
<path d="M115.944 46.8924L120.014 45.2148L120.134 47.0124L115.944 46.8924Z" fill="#E0DEF7"/>
<path d="M105.287 51.4102L101.457 53.1956L102.655 54.6255L105.287 51.4102Z" fill="#E0DEF7"/>
<path d="M59.829 75.5322C60.8368 75.6588 61.8326 75.8668 62.8065 76.154C64.184 76.547 64.9891 76.9201 65.5941 77.5519C65.9053 77.8349 66.1304 78.1993 66.2435 78.6034C66.3567 79.0076 66.3534 79.4352 66.2341 79.8376C65.9841 80.7231 65.2341 81.3996 63.9841 81.4916V81.5215C65.0366 82.1557 65.6341 83.2625 65.2666 84.531C65.1517 84.9387 64.9436 85.3145 64.6587 85.629C64.3738 85.9435 64.0197 86.1883 63.624 86.3442C62.734 86.7123 61.4265 86.6924 59.4415 86.1278C58.6227 85.9028 57.8208 85.621 57.0415 85.2846L59.829 75.5322ZM60.974 79.9694L61.724 80.1784C62.9091 80.5166 63.6866 80.2107 63.8966 79.4745C64.1066 78.7383 63.6466 78.1612 62.629 77.8702C62.3086 77.7733 61.9809 77.7018 61.649 77.6563L60.974 79.9694ZM59.709 84.3743C59.9918 84.4836 60.2806 84.5766 60.574 84.6529C61.5965 84.9414 62.609 84.8171 62.909 83.7699C63.1966 82.775 62.409 82.1134 61.284 81.7801L60.514 81.5613L59.709 84.3743Z" fill="#6E62DB"/>
<path d="M156.48 79.828C156.542 80.0941 156.497 80.374 156.353 80.6069C156.209 80.8398 155.979 81.0068 155.712 81.0717C155.078 81.2166 154.432 81.2999 153.782 81.3204C149.85 81.4523 147.742 79.0818 147.632 75.8483C147.5 71.9855 150.197 69.7419 153.632 69.6299C154.224 69.6073 154.818 69.6448 155.402 69.7419C155.541 69.7661 155.673 69.818 155.79 69.8943C155.908 69.9706 156.009 70.0699 156.087 70.186C156.166 70.3022 156.22 70.4329 156.246 70.5703C156.272 70.7077 156.27 70.8489 156.24 70.9855V71.0228C156.182 71.2837 156.026 71.5126 155.804 71.6618C155.581 71.811 155.309 71.869 155.045 71.8238C154.643 71.7528 154.235 71.7245 153.827 71.7392C151.785 71.8088 150.24 73.0874 150.327 75.607C150.405 77.8755 151.805 79.256 154.1 79.1788C154.487 79.1647 154.873 79.1164 155.252 79.0346C155.52 78.979 155.799 79.0307 156.029 79.1782C156.258 79.3258 156.42 79.5575 156.48 79.8231V79.828Z" fill="#4838D1"/>
<path d="M28.9065 132.522C28.7777 132.126 28.8103 131.696 28.9974 131.323C29.1844 130.951 29.5109 130.667 29.9065 130.532C30.7565 130.251 31.5315 130.666 31.854 131.51C31.9361 131.701 31.9771 131.906 31.9747 132.114C31.9722 132.322 31.9262 132.526 31.8396 132.715C31.753 132.904 31.6277 133.073 31.4718 133.211C31.3159 133.349 31.1327 133.453 30.934 133.517C30.7361 133.596 30.5237 133.632 30.3106 133.624C30.0976 133.615 29.8887 133.563 29.6974 133.469C29.5062 133.375 29.337 133.242 29.2007 133.079C29.0645 132.916 28.9642 132.726 28.9065 132.522ZM28.629 130.067L25.979 123.772C25.9285 123.648 25.9034 123.516 25.9054 123.382C25.9073 123.249 25.9362 123.117 25.9903 122.995C26.0444 122.873 26.1227 122.763 26.2204 122.672C26.318 122.58 26.4332 122.51 26.559 122.463L27.204 122.232C27.3305 122.188 27.4645 122.169 27.5983 122.178C27.732 122.186 27.8628 122.221 27.9826 122.281C28.1025 122.34 28.2091 122.423 28.2961 122.525C28.3831 122.626 28.4487 122.744 28.489 122.871L30.489 129.398L28.629 130.067Z" fill="#291F85"/>
<path d="M149.282 124.353C149.282 124.353 156.11 127.313 156.712 127.445C157.09 127.527 161.427 123.052 163.792 121.306C163.902 121.224 164.322 120.63 164.44 120.56C165.85 119.856 163.47 123.911 163.47 123.911C163.47 123.911 158.435 130.278 157.297 130.823C155.867 131.51 148.797 128.032 148.84 127.838L149.282 124.353Z" fill="#F77A55"/>
<path d="M148.197 117.995C148.492 116.005 149.89 111.732 148.6 110.036C146.79 107.641 142.962 107.745 141.152 110.036C140.325 111.093 139.875 112.386 139.44 113.652C139.176 114.478 138.854 115.283 138.475 116.063C138.117 116.752 137.725 117.612 137.035 118.033C134.035 119.893 130.665 121.094 130.447 125.291C130.197 130.265 135.67 136.484 142.397 133.479C144.972 132.325 148.345 128.594 149.447 126.017C149.947 124.855 149.697 124.977 149.432 123.204C149.187 121.614 147.962 119.607 148.197 117.995Z" fill="#291F85"/>
<path d="M144.537 120.973L153.677 125.975L151.522 129.231C151.522 129.231 144.642 126.622 143.25 126.246C141.857 125.87 142.955 120.836 144.537 120.973Z" fill="#6E62DB"/>
<path d="M144.382 116.632C144.382 116.632 144.132 120.095 143.967 121.065C143.802 122.035 143.672 126.246 145.767 126.756C147.862 127.266 147.077 121.61 147.112 120.595C147.147 119.58 147.362 116.287 147.362 116.287L144.382 116.632Z" fill="#FBC6B6"/>
<path d="M144.352 117.052C144.518 117.295 144.709 117.519 144.922 117.722C145.695 118.452 146.49 118.687 147.215 118.592C147.282 117.439 147.352 116.287 147.352 116.287L144.382 116.634C144.382 116.634 144.37 116.792 144.352 117.052Z" fill="#F45424"/>
<path d="M146.547 110.004C145.697 110.075 144.899 110.444 144.297 111.046C143.322 112.041 142.157 115.322 144.337 117.371C146.517 119.421 148.677 117.66 149.127 115.493C149.577 113.327 149.872 110.24 146.547 110.004Z" fill="#FBC6B6"/>
<path d="M147.745 110.106C147.745 110.106 146.414 113.521 143.272 113.233C141.849 113.101 141.522 115.036 141.522 115.036C141.522 115.036 142.687 110.444 144.147 109.763C145.607 109.081 147.745 110.106 147.745 110.106Z" fill="#291F85"/>
<path d="M143.677 114.063C143.749 114.666 143.477 115.193 143.069 115.241C142.662 115.288 142.274 114.841 142.204 114.241C142.134 113.641 142.404 113.111 142.812 113.063C143.219 113.016 143.604 113.461 143.677 114.063Z" fill="#FBC6B6"/>
<path d="M167.03 115.178L159.28 130.907C159.095 131.283 159.152 131.718 159.405 131.867L165.057 135.16L172.122 121.232L167.907 114.929C167.687 114.603 167.25 114.735 167.03 115.178Z" fill="#F9A085"/>
<path d="M160.285 130.392L167.017 116.713C167.237 116.265 167.677 116.136 167.89 116.464C168.83 117.859 170.247 119.968 171.265 121.486L164.925 133.996L160.407 131.345C160.157 131.203 160.1 130.768 160.285 130.392Z" fill="#E0DEF7"/>
<path d="M163.962 120.272C164.122 120.067 164.328 119.903 164.562 119.792C164.89 119.704 165.285 119.719 165.35 119.929C165.445 120.234 164.48 120.574 164.48 120.574L163.955 121.324C163.955 121.324 163.71 120.714 163.962 120.272Z" fill="#F77A55"/>
<path d="M144.117 120.132C144.117 120.132 146.5 122.09 147.182 122.769C147.768 123.308 148.392 123.807 149.047 124.261L147.122 121.61L145.902 120.478L144.117 120.132Z" fill="#FBC6B6"/>
<path d="M173.687 151.507C173.317 151.201 172.98 150.328 172.845 149.945C172.042 145.823 168.257 134.672 164.135 134.672C160.542 134.672 149.447 143.328 144.26 148.33C142.76 149.775 142.862 148.549 143.78 148.887C144.33 149.089 148.03 155.218 148.625 155.245C150.437 155.327 152.125 154.121 153.625 153.28C155.743 152.164 157.547 150.54 158.875 148.554C162.267 143.512 163.54 140.547 164.562 138.604C164.562 138.604 165.527 142.584 166 143.53C167.067 145.691 170.25 151.012 171.5 153.086L176.395 152.954C176.395 152.954 174.157 151.905 173.687 151.507Z" fill="#F77A55"/>
<path d="M164.455 136.976C164.455 136.976 148.01 144.6 146.972 147.219C145.935 149.838 146.722 153.73 149.127 154.526C151.532 155.322 166.377 142.692 166.377 142.692C166.377 142.692 168.292 146.187 171.007 148.569C172.452 149.84 174.9 150.875 176.295 151.803C177.517 152.619 177.795 153.412 177.795 153.412L181.227 153.571C181.227 153.571 180.647 153.372 179.61 151.982C176.095 147.286 167.965 136.362 164.455 136.976Z" fill="#FBC6B6"/>
<path d="M158.107 136.022C158.107 136.022 163.39 141.688 164.427 149.152C164.427 149.152 156.152 152.699 152.082 154.843C148.012 156.987 143.46 154.766 142.025 152.383C140.589 150 142.025 143.29 142.025 143.29L150.485 141.979L158.107 136.022Z" fill="#291F85"/>
<path d="M170.64 151.681C170.22 151.519 170.072 153.638 170.002 154.111C169.971 154.276 169.978 154.445 170.021 154.607C170.064 154.769 170.143 154.919 170.252 155.046C170.427 155.166 177.207 155.295 178.502 154.954C178.61 154.914 178.712 154.86 178.805 154.793C179.757 153.967 175.352 151.773 174.462 151.957C173.657 152.121 172.532 152.397 170.64 151.681Z" fill="#4838D1"/>
<path d="M143.98 121.053C143.98 121.053 142.69 121.053 141.31 123.998C139.615 127.632 142.035 141.496 141.857 143.476C141.857 143.476 142.457 144.16 145.937 144.66C146.824 144.792 147.73 144.702 148.573 144.398C149.416 144.094 150.169 143.586 150.765 142.919C150.765 142.919 149.98 137.566 151.17 132.529C151.812 129.793 152.152 127.154 149.607 124.699C147.965 123.16 146.059 121.925 143.98 121.053Z" fill="#4838D1"/>
<path d="M176.332 151.811C175.912 151.652 175.55 153.691 175.582 154.191C175.579 154.529 175.659 154.862 175.817 155.161C175.992 155.281 182.78 155.38 184.067 155.034C184.174 154.993 184.276 154.939 184.37 154.873C185.322 154.047 180.422 151.978 179.535 152.162C178.752 152.326 178.225 152.53 176.332 151.811Z" fill="#6E62DB"/>
<path d="M171.795 114.529L158.969 133.109C158.674 133.537 158.744 134.059 159.114 134.196L167.79 137.412L178.04 122.782L172.92 114.345C172.697 113.964 172.12 114.059 171.795 114.529Z" fill="#F77A55"/>
<path d="M168.745 128.609C168.58 128.291 167.245 128.995 167.245 128.995C166.825 129.075 166.401 129.129 165.975 129.157C165.88 129.107 166.77 129.032 166.77 129.032C166.77 129.032 168.227 128.535 168.21 128.373C168.145 127.707 167.232 128.537 166.517 128.567C165.961 128.592 165.404 128.567 164.852 128.493C164.642 128.376 165.177 128.114 165.177 128.114C165.177 128.114 165.877 127.801 165.765 127.617C165.495 127.172 163.855 128.017 163.515 128.331C163.285 128.542 162.997 128.95 162.595 129.177C160.845 130.171 158.747 131.85 156.272 133.037C155.452 132.353 147.544 125.289 147.344 125.117L143.024 128.502C143.024 128.502 155.417 137.892 156.105 137.87C156.97 137.842 162.127 132.425 163.525 131.134C163.735 130.94 165.062 130.793 165.425 130.843C166.235 130.955 167.755 130.323 167.755 130.323C168.222 129.826 166.03 130.323 166.237 130.201C166.62 130.111 167.008 130.048 167.4 130.012C167.942 129.935 168.435 129.627 168.502 129.477C168.63 129.189 167.28 129.604 167.28 129.604L166.152 129.674L167.23 129.455C167.23 129.455 168.907 128.925 168.745 128.609Z" fill="#FBC6B6"/>
<path d="M146.13 122.977C144.735 121.555 142.05 121.764 141.265 123.791C141.047 124.355 141.057 125.975 141.305 126.572C142.305 128.954 148.09 132.844 148.09 132.844L151.282 128.516L146.13 122.977Z" fill="#6E62DB"/>
<path d="M88.7393 81.5815C88.7393 81.3999 88.9668 80.2209 88.9668 80.2209C88.9668 80.2209 88.4393 78.552 88.3868 78.5495C87.3018 78.4724 86.4843 79.2037 86.6693 80.1886V80.2209C86.9437 81.0954 87.4541 81.8781 88.1449 82.4838C88.8357 83.0895 89.6804 83.4949 90.5868 83.6559L91.9093 83.8896C91.6855 83.1788 91.5709 82.4383 91.5693 81.6934C89.9968 81.681 88.7393 81.6487 88.7393 81.5815Z" fill="#FBC6B6"/>
<path d="M107.062 74.2168C107.032 74.1272 97.5368 80.2732 97.5368 80.2732C97.5368 80.2732 93.4843 80.313 90.4893 80.2732C90.4913 81.1636 90.6183 82.0493 90.8668 82.9047C93.8243 83.4619 97.1943 84.0514 97.9618 83.9917C99.3918 83.8822 106.557 80.3255 106.557 80.3255C106.557 80.3255 107.084 74.2839 107.062 74.2168Z" fill="#291F85"/>
<path d="M107.169 97.1613C107.149 97.0071 105.142 90.1622 104.934 84.031C104.772 79.2753 106.249 75.0146 107.009 74.2361C107.289 73.9451 109.897 73.3232 109.897 73.3232L108.947 74.8902C107.982 76.701 107.719 78.3078 107.302 80.3623C106.087 86.2895 111.552 98.1538 111.267 98.2284C110.982 98.303 107.247 97.7658 107.169 97.1613Z" fill="#4838D1"/>
<path d="M86.3594 73.2339L84.6919 74.3158L89.6744 82.6576L91.2419 75.8852L86.3594 73.2339Z" fill="#E0DEF7"/>
<path d="M87.3892 71.9209L89.4817 78.8453L91.1617 75.8557L87.3892 71.9209Z" fill="#E0DEF7"/>
<path d="M101.222 71.1226L102.832 76.9376L90.9619 75.8656L101.222 71.1226Z" fill="#E0DEF7"/>
<path d="M94.4496 95.7235C94.4496 95.7235 89.4071 101.855 89.3921 102.741C89.3721 104.025 83.4096 103.671 84.7046 103.124C85.0021 102.997 85.9421 102.525 86.0121 102.462C86.3971 102.132 90.3721 94.3901 90.3721 94.3901L94.4496 95.7235Z" fill="#FBC6B6"/>
<path d="M82.0766 103.714L85.9116 102.527C85.9116 102.527 87.2366 103.196 89.3916 102.761C89.7575 103.398 89.981 104.107 90.0466 104.838C90.0641 105.039 90.1641 105.641 89.9616 105.673C89.2291 105.785 87.1991 105.738 84.9091 105.79C84.9091 105.79 81.8266 105.825 79.9091 105.191C77.9916 104.557 82.0766 103.714 82.0766 103.714Z" fill="#291F85"/>
<path d="M118.875 97.1864C115.729 96.3661 112.756 94.995 110.094 93.1372C105.187 89.6552 99.6644 86.0115 97.4844 86.3074C95.7344 86.5561 85.5093 100.522 85.5093 100.522L90.4593 102.666L99.4069 93.5377C99.4069 93.5377 108.539 102.904 111.539 103.544C118.365 104.996 120.55 99.982 118.875 97.1864Z" fill="#F9A085"/>
<path d="M84.4594 74.318L91.342 88.8247C91.3571 88.8573 91.3796 88.886 91.4079 88.9084C91.4361 88.9309 91.4691 88.9465 91.5045 88.954L96.0995 90.2275L90.227 75.8553L84.7519 73.9897C84.7079 73.9793 84.6618 73.9809 84.6186 73.9944C84.5754 74.008 84.5368 74.033 84.5068 74.0667C84.4767 74.1004 84.4565 74.1416 84.4481 74.1858C84.4398 74.2301 84.4437 74.2758 84.4594 74.318Z" fill="#BAB4EE"/>
<path d="M107.882 60.6108C107.882 60.6108 109.152 58.8871 110.572 60.6108C110.814 60.4374 111.114 60.3618 111.41 60.3992C111.707 60.4366 111.978 60.5842 112.169 60.8123C112.169 60.8123 113.749 60.1134 114.462 62.5086C114.462 62.5086 115.287 62.2425 115.524 63.2274C115.671 63.8039 115.606 64.4137 115.339 64.9462C115.339 64.9462 115.859 65.2397 115.759 66.1898C115.747 66.4062 115.673 66.6146 115.546 66.7908C115.419 66.9669 115.244 67.1035 115.042 67.1847C115.042 67.1847 115.042 68.5253 114.509 68.9929C113.977 69.4605 113.179 69.371 113.179 69.371C113.179 69.371 113.064 70.1172 112.387 70.1321C111.709 70.1471 110.797 69.6347 110.084 70.0028C109.372 70.3709 107.387 70.3286 107.387 70.3286C107.387 70.3286 105.077 69.6347 105.447 67.329C105.447 67.329 104.167 66.4435 105.014 65.078C105.014 65.078 104.034 63.2349 105.339 61.9092C106.644 60.5834 107.882 60.6108 107.882 60.6108Z" fill="#1C155B"/>
<path d="M100.877 115.215C100.877 115.215 101.154 122.759 101.329 124.037C101.504 125.316 98.1094 129.141 98.5444 127.808C98.6444 127.502 98.8994 126.487 98.8994 126.393C98.8994 125.895 97.6494 117.279 97.6494 117.279L100.877 115.215Z" fill="#FBC6B6"/>
<path d="M97.2644 130.166L98.8794 126.507C98.8794 126.507 100.257 125.952 101.339 124.047C102.061 124.191 102.743 124.488 103.339 124.917C103.504 125.037 104.027 125.355 103.917 125.529C103.522 126.154 102.167 127.646 100.692 129.4C100.692 129.4 98.6919 131.738 96.9419 132.772C95.1919 133.807 97.2644 130.166 97.2644 130.166Z" fill="#291F85"/>
<path d="M97.5646 123.077C97.9171 122.719 93.9745 103.427 95.8871 101.554C97.7996 99.6814 110.575 96.9503 110.575 96.9503L112.25 91.0728C112.25 91.0728 117.592 92.6298 119.75 95.8385C120.932 97.5796 119.722 101.589 119.5 102.032C117.675 105.813 113.167 106.012 109.887 105.969C106.87 105.94 101.512 105.897 101.512 105.897L101.5 122.958C100.728 123.14 99.9377 123.233 99.1446 123.236C97.7396 123.182 97.5646 123.077 97.5646 123.077Z" fill="#F77A55"/>
<path d="M109.407 73.7365L112.865 72.4928C112.91 72.4954 112.956 72.4954 113.002 72.4928C113.372 72.4455 117.455 85.7354 118.787 90.7624C120.12 95.7893 118.375 94.8366 118.375 94.8366C118.375 94.8366 115.322 96.7295 111.772 96.8638C108.08 97.0006 108.817 92.5756 108.817 92.5756C108.817 92.5756 106.875 83.3302 107.102 80.1862C107.33 77.0421 109.407 73.7365 109.407 73.7365Z" fill="white"/>
<path d="M109.462 71.0329L109.447 72.7266V73.0276C109.447 73.0276 109.212 75.9277 110.047 76.3779C110.882 76.8281 112.867 72.5003 112.867 72.5003L111.967 67.5806L109.462 71.0329Z" fill="#FBC6B6"/>
<path d="M112.257 69.1798C111.839 70.9531 110.467 72.1867 109.447 72.7239L109.462 71.0327L111.962 67.5806L112.257 69.1798Z" fill="#F45424"/>
<path d="M109.532 62.5806C109.152 62.5042 108.759 62.5116 108.382 62.6022C108.005 62.6928 107.652 62.8644 107.349 63.105C107.046 63.3456 106.799 63.6494 106.626 63.9949C106.454 64.3405 106.359 64.7194 106.349 65.1053C106.33 65.954 106.366 66.8032 106.457 67.6474C106.707 69.9432 108.182 72.0226 109.227 71.8908C110.272 71.759 112.977 69.9009 112.664 66.6474C112.472 64.6302 111.232 62.9438 109.532 62.5806Z" fill="#FBC6B6"/>
<path d="M111.927 67.0064C111.992 67.5064 112.38 67.8839 112.795 67.8314C113.21 67.7789 113.495 67.3314 113.43 66.8164C113.365 66.3014 112.977 65.9389 112.562 65.9914C112.147 66.0439 111.862 66.4989 111.927 67.0064Z" fill="#FBC6B6"/>
<path d="M104.857 62.013C103.885 63.008 103.672 64.3413 104.38 64.9979C105.087 65.6546 106.45 65.4059 107.42 64.4184C108.39 63.4309 108.605 62.0901 107.897 61.4335C107.19 60.7768 105.827 61.0255 104.857 62.013Z" fill="#1C155B"/>
<path d="M107.769 62.3587C107.817 62.7312 108.302 62.9762 108.857 62.9062C109.412 62.8362 109.822 62.4762 109.774 62.1062C109.727 61.7362 109.239 61.4887 108.687 61.5587C108.134 61.6287 107.722 61.9862 107.769 62.3587Z" fill="#1C155B"/>
<path d="M105.157 65.5829C105.18 65.7512 105.253 65.9089 105.366 66.0361C105.478 66.1633 105.626 66.2544 105.79 66.2979C105.955 66.3414 106.128 66.3353 106.289 66.2806C106.45 66.2258 106.591 66.1247 106.695 65.9899C106.798 65.8552 106.86 65.6929 106.872 65.5234C106.883 65.3538 106.845 65.1846 106.76 65.0369C106.676 64.8893 106.55 64.7698 106.398 64.6934C106.247 64.6171 106.076 64.5873 105.907 64.6079C105.678 64.6384 105.471 64.7581 105.331 64.9407C105.19 65.1234 105.128 65.3543 105.157 65.5829Z" fill="#1C155B"/>
<path d="M112.864 72.5004C112.864 72.5004 116.249 71.9532 117.387 72.4357C118.112 72.7416 119.032 78.8504 119.032 78.8504C119.032 78.8504 119.069 85.0288 119.492 86.7699C120.927 92.6772 122.932 97.8482 122.707 98.1393C121.234 99.3456 115.074 100.462 114.604 99.8804C109.434 93.5502 112.864 72.5004 112.864 72.5004Z" fill="#4838D1"/>
<path d="M118.517 78.7633C118.517 78.7633 115.125 89.1928 113.642 90.2848C112.16 91.3767 105.485 81.1462 105.485 81.1462C105.485 81.1462 102.532 79.4772 102.322 79.4597C101.485 79.3901 104.072 78.9623 104.072 78.9623L104.39 76.3008C104.39 76.3008 104.517 76.3207 105.29 77.1838C106.332 78.3529 107.237 80.1686 107.665 80.4696L112.132 83.8375L114.407 76.6242L118.517 78.7633Z" fill="#FBC6B6"/>
<path d="M90.2271 75.8561L91.6296 75.7192L97.6471 90.6156L96.0996 90.2251L90.2271 75.8561Z" fill="#6E62DB"/>
<path d="M103.607 72.2246L107.227 89.7651C107.241 89.8331 107.24 89.9034 107.223 89.9709C107.207 90.0385 107.176 90.1017 107.133 90.1562C107.09 90.2106 107.035 90.255 106.973 90.2863C106.91 90.3175 106.842 90.3349 106.772 90.3371L97.6469 90.6157L91.6294 75.7193L102.982 71.8714C103.046 71.8495 103.114 71.8415 103.182 71.8478C103.25 71.8541 103.315 71.8746 103.374 71.908C103.433 71.9414 103.485 71.9869 103.525 72.0415C103.565 72.096 103.593 72.1585 103.607 72.2246Z" fill="#BAB4EE"/>
<path d="M107.282 79.8356L106.125 82.3578C106.125 82.3578 111.812 91.6679 113.567 91.153C115.322 90.6381 118.637 80.5494 119.155 77.7711C119.672 74.9927 118.597 72.687 117.155 72.3313C115.712 71.9756 114.6 74.3957 114.155 75.428C113.71 76.4602 112.12 83.8452 112.12 83.8452L107.282 79.8356Z" fill="#6E62DB"/>
<path d="M87.0617 79.9819C86.9515 79.789 86.8571 79.5875 86.7792 79.3794C86.7117 79.1494 88.1117 78.3569 88.6667 78.7169C89.2217 79.0769 87.7392 79.6319 87.0617 79.9819Z" fill="#FBC6B6"/>
<path d="M87.1195 80.8926C86.9479 80.7176 86.8061 80.5158 86.6995 80.295C86.632 80.0675 88.4946 79.1301 89.0496 79.4926C89.6046 79.8551 87.7995 80.5426 87.1195 80.8926Z" fill="#FBC6B6"/>
<path d="M87.7593 81.5291C87.5877 81.3541 87.4458 81.1523 87.3393 80.9316C87.2718 80.7016 88.6718 79.9066 89.2243 80.2691C89.7768 80.6316 88.4368 81.1766 87.7593 81.5291Z" fill="#FBC6B6"/>
<path d="M104.687 77.3334H104.407C104.269 77.333 104.132 77.3188 103.997 77.2911C103.46 77.1742 101.997 76.8832 101.877 77.1742C101.737 77.5324 103.992 77.9502 103.992 77.9502C103.992 77.9502 101.517 77.6319 101.517 78.0497C101.517 78.4676 104.032 78.684 104.032 78.684C104.032 78.684 101.837 78.6044 101.797 78.8432C101.757 79.082 104.492 79.756 104.492 79.756C104.492 79.756 102.277 79.2785 102.057 79.557C101.837 79.8356 105.53 81.1763 105.53 81.1763L104.687 77.3334Z" fill="#FBC6B6"/>
<path d="M87.7591 81.5235C87.7591 81.5235 88.9691 80.8385 89.2891 81.0535C89.6091 81.2685 88.2516 82.2885 88.2516 82.2885L88.4141 82.6635C88.4141 82.6635 87.5466 81.9935 87.7591 81.5235Z" fill="#FBC6B6"/>
</svg>
