<svg width="206" height="186" viewBox="0 0 206 186" fill="none" xmlns="http://www.w3.org/2000/svg">
<path d="M190.753 177.485C210.715 164.745 212.02 102.986 173.413 88.5293C134.805 74.073 141.957 37.5942 109.48 10.3258C79.872 -14.5298 30.8918 6.54015 14.5792 71.1803C2.94662 117.273 16.5192 175.093 25.7817 177.485H190.753Z" fill="#F8F8FD"/>
<path d="M134.447 83.0178L137.182 80.3838C136.325 75.6231 131.835 73.3298 128.88 73.0188C120.917 72.1781 116.86 77.6229 115.15 86.3583C112.032 102.302 115.96 169.248 115.96 169.248C116.252 167.469 137.877 100.24 137.322 81.7692L134.447 83.0178Z" fill="#BAB4EE"/>
<path d="M25.6115 135.585L25.2715 138.072L24.459 135.184C22.1765 134.468 20.1915 134.222 18.6189 134.577C4.57136 137.756 28.8465 156.978 28.8465 156.978C28.8465 156.978 21.1115 152.145 13.6164 149.086L13.5214 151.618L12.5639 148.755C6.74138 146.489 1.34135 145.439 0.261339 148.715C-0.756167 151.797 1.28885 154.714 4.80887 157.311L8.85389 157.453L6.46888 158.448C14.5964 163.626 28.039 167.332 32.679 168.173C28.239 167.479 17.3889 166.074 10.9564 167.457L11.9564 169.128L9.41639 167.865C7.16638 168.586 5.76637 169.782 5.91637 171.665C6.20387 175.267 21.9165 176.563 21.9165 176.563L79.2843 176.043L79.6043 176.202C79.6043 176.202 44.1041 142.325 25.6115 135.585Z" fill="#6E62DB"/>
<path d="M205.562 168.894C204.455 163.783 193.222 162.281 178.902 165.084C184 163.343 191.005 159.405 194.632 157.602L192.152 156.03L197.135 156.261C201.212 153.886 203.25 151.555 201.917 149.444C200.917 147.869 198.742 147.205 195.785 147.222L194.227 149.996L194.55 147.26C187.092 147.687 185.4 146.476 175.337 150.523C181.625 147.277 182.532 146.27 182.945 144.964L179.54 143.471H183.54C186.767 140.019 191.885 133.189 189.762 130.04C188.012 127.443 180.32 131.05 175.412 132.923L173.325 137.596L173.747 133.602C158.14 140.367 163.43 134.94 163.43 134.94C163.43 134.94 179.712 101.423 170.115 102.169C166.325 102.468 162.25 104.739 158.25 108.388L158.147 111.721L156.957 109.607C154.042 112.447 151.157 115.892 148.402 119.586C152.137 111.78 154.97 104.115 155.252 98.4061L152.4 98.0604L155.215 96.1128C154.95 93.23 153.802 91.0486 151.465 89.8945C147.897 88.126 144.152 90.8024 140.465 96.1128L141.375 100.913L139.087 98.2245C125.887 119.63 113.814 172.334 113.814 172.334L112.857 175.192L151.642 177.098C151.642 177.098 207.797 179.219 205.562 168.894Z" fill="#BAB4EE"/>
<path d="M202.777 177.36H2.5512C2.38079 177.36 2.21737 177.292 2.09688 177.172C1.97639 177.051 1.90869 176.888 1.90869 176.717C1.90869 176.547 1.97639 176.383 2.09688 176.263C2.21737 176.142 2.38079 176.075 2.5512 176.075H202.777C202.948 176.075 203.111 176.142 203.232 176.263C203.352 176.383 203.42 176.547 203.42 176.717C203.42 176.888 203.352 177.051 203.232 177.172C203.111 177.292 202.948 177.36 202.777 177.36Z" fill="#291F85"/>
<path d="M148.525 154.651H57.5566C54.0841 154.651 51.2666 152.11 51.2666 148.973V145.595C51.2666 142.459 54.0841 139.917 57.5566 139.917H148.525C144.362 144.023 144.29 150.296 148.357 154.48L148.525 154.651Z" fill="#291F85"/>
<path d="M147.25 141.601H101.475C99.9609 141.601 98.5092 142.199 97.4388 143.264C96.3684 144.329 95.7671 145.773 95.7671 147.279C95.7671 148.785 96.3684 150.229 97.4388 151.294C98.5092 152.359 99.9609 152.957 101.475 152.957H147.252C146.205 151.246 145.651 149.282 145.651 147.279C145.65 145.276 146.203 143.312 147.25 141.601Z" fill="#E0DEF7"/>
<path d="M144.427 123.81C144.627 123.469 144.325 123.063 143.865 123.063H71.4192C65.7417 123.063 61.1392 126.842 61.1392 131.505C61.1392 136.166 65.7417 139.944 71.4192 139.944H143.885C144.347 139.944 144.65 139.549 144.45 139.198C143.049 136.874 142.307 134.216 142.303 131.507C142.299 128.797 143.033 126.137 144.427 123.81Z" fill="#6E62DB"/>
<path d="M143.849 124.886H95.2442C93.5203 124.886 91.867 125.568 90.648 126.78C89.429 127.993 88.7441 129.638 88.7441 131.353V131.851C88.7441 133.566 89.429 135.211 90.648 136.423C91.867 137.636 93.5203 138.318 95.2442 138.318H143.954C142.883 136.243 142.316 133.947 142.297 131.614C142.279 129.282 142.811 126.977 143.849 124.886Z" fill="#E0DEF7"/>
<path d="M56.2617 122.317H103.012C107.157 122.317 110.512 118.713 110.512 114.263C110.512 109.816 107.15 106.209 103.012 106.209H56.2617C59.8367 110.686 59.9742 117.226 56.5967 121.859L56.2617 122.317Z" fill="#E0DEF7"/>
<path d="M109.907 114.265C109.907 109.818 106.507 106.212 102.314 106.212H55.4067C55.353 106.21 55.3003 106.198 55.2514 106.176C55.2026 106.154 55.1586 106.122 55.1221 106.083C55.0856 106.044 55.0572 105.998 55.0387 105.948C55.0202 105.898 55.0118 105.845 55.0142 105.791C55.0121 105.685 55.0521 105.582 55.1256 105.505C55.199 105.428 55.2999 105.382 55.4067 105.378H129.807C134.435 105.378 138.187 109.358 138.187 114.265C138.187 119.175 134.437 123.155 129.807 123.155H55.4067C55.2999 123.151 55.199 123.106 55.1256 123.028C55.0521 122.951 55.0121 122.848 55.0142 122.742C55.0115 122.688 55.0195 122.635 55.0379 122.584C55.0562 122.534 55.0845 122.487 55.121 122.448C55.1575 122.408 55.2016 122.376 55.2506 122.354C55.2997 122.331 55.3527 122.319 55.4067 122.317H102.307C106.504 122.317 109.907 118.715 109.907 114.265Z" fill="#4838D1"/>
<path d="M113.22 131.652H108.22C107.142 131.652 106.27 131.984 106.27 132.402V132.467H113.222L113.22 131.652Z" fill="#291F85"/>
<path d="M117.487 133.51C117.487 132.483 116.18 131.652 114.57 131.652H108.157C109.38 131.652 110.372 132.281 110.372 133.062L110.342 152.993L113.89 150.431L117.505 152.993L117.487 133.51Z" fill="#F77A55"/>
<path d="M185.925 154.617H50.7592C48.7436 154.617 46.8105 155.414 45.3852 156.832C43.9599 158.25 43.1592 160.173 43.1592 162.178V168.538C43.1592 170.544 43.9599 172.467 45.3852 173.885C46.8105 175.303 48.7436 176.1 50.7592 176.1H185.925L185.855 176.025C183.074 173.144 181.526 169.301 181.539 165.307C181.552 161.313 183.125 157.48 185.925 154.617Z" fill="#F77A55"/>
<path d="M183.533 157.796H111.282C109.267 157.796 107.333 158.593 105.908 160.011C104.483 161.429 103.682 163.352 103.682 165.357C103.682 167.363 104.483 169.286 105.908 170.704C107.333 172.122 109.267 172.919 111.282 172.919H183.533C182.227 170.61 181.541 168.006 181.541 165.357C181.541 162.709 182.227 160.104 183.533 157.796Z" fill="#E0DEF7"/>
<path d="M148.055 165.396H142.195C141.589 165.396 141.009 165.637 140.581 166.065C140.153 166.493 139.912 167.073 139.912 167.678V167.88H148.055V165.396Z" fill="#291F85"/>
<path d="M142.435 165.404C143.835 165.404 145.935 166.583 147.107 168.038L161.005 185.201H169.17L155.95 168.892C154.395 166.971 151.637 165.409 149.79 165.409L142.435 165.404Z" fill="#4838D1"/>
<path d="M20.1213 174.217L22.9688 173.556C24.4643 173.628 25.9632 173.531 27.4364 173.265C27.6122 173.83 27.7163 174.415 27.7464 175.006C27.7614 175.209 27.4689 176.219 27.2664 176.249C26.5339 176.361 25.2439 176.234 22.9538 176.286C22.9538 176.286 19.3513 176.712 17.4213 176.077C15.4913 175.443 20.1213 174.217 20.1213 174.217Z" fill="#4838D1"/>
<path d="M51.5893 127.834C51.7468 129.48 53.1343 130.072 54.4268 131.1C55.2968 131.798 55.1468 133.686 54.4818 134.858C52.8018 137.828 54.2318 138.193 55.5893 140.375C58.8393 145.625 48.7393 146.787 47.5393 147.177C46.3393 147.568 45.5243 148.043 44.8143 147.966C42.6768 147.73 40.7192 144.703 39.6317 141.904C38.5442 139.106 41.1817 138.959 41.3167 137.35C41.4517 135.741 38.3667 135.398 39.2817 132.376C40.2817 129.09 41.6692 126.307 43.5318 125.309C46.6018 123.658 50.3368 125.384 51.1843 126.712C51.4059 127.049 51.5446 127.433 51.5893 127.834Z" fill="#1C155B"/>
<path d="M51.8264 163.79C52.0914 164.447 53.5539 166.775 53.5539 166.775L33.0188 166.979L32.6963 162.785C38.3363 162.741 43.9089 160.261 49.1039 158.488C49.2364 158.806 51.6964 163.472 51.8264 163.79Z" fill="#FEECE7"/>
<path d="M37.2665 147.712C37.2665 147.712 38.369 139.967 40.144 139.163C41.919 138.36 51.5241 139.474 52.9616 140.347C54.3991 141.22 52.0041 150.316 51.6366 152.861C51.6141 153.013 51.5916 153.164 51.5666 153.316C50.9544 156.98 51.3146 160.74 52.6116 164.223C47.3616 165.81 45.9941 166.683 40.3615 166.529L38.2565 154.279C38.2565 154.279 36.579 148.349 37.2665 147.712Z" fill="#6E62DB"/>
<path d="M47.7719 134.065C47.7719 134.065 48.2144 138.33 48.5919 139.375C48.9694 140.42 47.5919 142.549 45.3068 143.138C43.0218 143.728 44.6868 140.867 44.6343 139.761C44.5818 138.654 44.3618 133.423 44.3618 133.423L47.7719 134.065Z" fill="#FBC6B6"/>
<path d="M47.8264 134.562C47.5277 134.901 47.1765 135.19 46.7864 135.417C45.9288 135.917 45.1413 136.034 44.4638 135.879C44.4088 134.555 44.3613 133.423 44.3613 133.423L47.7714 134.068C47.7714 134.068 47.7914 134.26 47.8264 134.562Z" fill="#F45424"/>
<path d="M46.9766 126.277C47.8621 126.558 48.6175 127.145 49.1066 127.931C49.8966 129.234 50.3341 132.997 47.5216 134.646C44.7091 136.295 42.6565 133.759 42.7115 131.336C42.7665 128.913 43.4065 125.725 46.9766 126.277Z" fill="#FBC6B6"/>
<path d="M41.8567 130.329C41.8868 130.959 42.2093 131.454 42.5743 131.437C42.9393 131.419 43.2143 130.892 43.1818 130.262C43.1493 129.632 42.8293 129.137 42.4643 129.157C42.0992 129.177 41.8267 129.699 41.8567 130.329Z" fill="#FBC6B6"/>
<path d="M49.029 131.289C48.8065 131.912 48.9665 132.539 49.3865 132.689C49.8065 132.84 50.3265 132.457 50.549 131.834C50.7715 131.211 50.6115 130.584 50.1915 130.433C49.7715 130.283 49.2515 130.666 49.029 131.289Z" fill="#FBC6B6"/>
<path d="M52.9616 140.347C52.9616 140.347 51.3241 141.203 50.3191 143.581C49.3141 145.959 52.7341 158.139 53.4641 158.918C54.1941 159.696 56.2141 159.818 56.5566 157.923C56.8991 156.027 55.7391 140.949 52.9616 140.347Z" fill="#4838D1"/>
<path d="M43.1565 138.718L45.9815 155.589L34.9815 157.353L31.4814 141.571C31.4814 141.571 40.549 137.927 43.1565 138.718Z" fill="#E0DEF7"/>
<path d="M21.9463 139.231C22.9969 138.821 24.1433 138.716 25.2513 138.93C27.3088 139.33 30.5789 140.159 31.8914 141.564C33.8714 143.681 35.7064 157.691 35.7064 157.691L27.1563 155.791L21.9463 139.231Z" fill="#E0DEF7"/>
<path d="M51.3465 168.101C49.909 164.121 33.6264 149.678 29.3164 150.789L31.6314 159.605C31.6314 159.605 36.469 173.954 41.209 175.805C45.949 177.655 50.389 175.556 50.389 175.556C50.389 175.556 52.784 172.064 51.3465 168.101Z" fill="#E0DEF7"/>
<path d="M45.4989 144.912C45.2964 145.317 46.5914 146.042 46.9689 146.314C47.3464 146.587 48.9039 146.314 48.9039 146.314C48.9039 146.314 45.7239 144.452 45.4989 144.912Z" fill="#FBC6B6"/>
<path d="M31.5891 163.802C31.5891 163.802 27.449 172.359 27.4365 173.254C27.4165 174.535 21.454 174.185 22.749 173.635C23.0465 173.508 23.984 173.035 24.0565 172.976C24.4415 172.645 27.8765 162.031 27.8765 162.031L31.5891 163.802Z" fill="#F77A55"/>
<path d="M32.9067 153.567C32.7092 153.348 30.6116 152.52 28.9966 154.52C27.3816 156.52 24.2866 172.098 24.2866 172.098L28.0916 172.468C28.0916 172.468 37.5617 158.676 32.9067 153.567Z" fill="#E0DEF7"/>
<path d="M20.5989 141.89L25.494 156.087C25.5859 156.363 25.7527 156.608 25.976 156.795C26.1993 156.982 26.4703 157.104 26.759 157.147C31.349 157.794 33.744 158.122 33.744 158.122C33.744 158.122 34.639 158.169 35.589 158.182L46.0891 157.065C46.3088 157.037 46.5203 156.964 46.7105 156.851C46.9008 156.738 47.0657 156.588 47.1951 156.409C47.3245 156.23 47.4155 156.027 47.4627 155.811C47.5098 155.596 47.512 155.373 47.4691 155.157L44.9066 141.221C44.8396 140.813 44.6137 140.449 44.2781 140.206C43.9425 139.964 43.5242 139.862 43.1141 139.925L33.0065 141.616L30.3515 141.544L22.4064 139.768C21.2089 139.5 20.1864 140.696 20.5989 141.89Z" fill="#F77A55"/>
<path d="M41.9792 148.795C41.9792 148.795 44.7992 149.314 45.7617 149.292C46.5072 149.301 47.2492 149.393 47.9743 149.566C47.9743 149.566 51.1218 156.928 51.5718 157.749C52.9193 160.202 56.6568 159.911 56.5943 157.866C56.5468 156.242 50.1618 146.054 48.4668 146.103C46.7718 146.153 41.4667 145.054 41.2967 145.725C41.2117 146.086 46.1893 146.255 45.4042 146.561C44.9042 146.753 41.0192 146.312 41.0342 146.772C41.0492 147.233 44.5542 147.27 44.9317 147.626C45.3092 147.981 41.2017 147.193 41.2242 147.966C41.2367 148.357 44.8442 148.076 45.2393 148.668C45.4068 148.909 41.6817 148.029 41.9792 148.795Z" fill="#FBC6B6"/>
<path d="M22.9692 147.592C22.9172 147.57 22.8609 147.558 22.8041 147.56C22.7474 147.561 22.6917 147.574 22.6407 147.599C22.5898 147.624 22.5449 147.66 22.5092 147.704C22.4735 147.748 22.4479 147.8 22.4342 147.855C22.3931 147.975 22.3819 148.104 22.4015 148.23C22.4211 148.356 22.4709 148.475 22.5467 148.577C22.8992 148.957 25.3667 149.327 25.3792 148.955C25.3892 148.672 23.7342 147.937 22.9692 147.592Z" fill="#FBC6B6"/>
<path d="M22.489 148.546C22.489 148.546 22.239 149.471 22.454 149.479C22.669 149.486 25.3365 149.751 25.454 149.434C25.5715 149.116 22.8315 148.359 22.489 148.546Z" fill="#FBC6B6"/>
<path d="M22.374 149.496C22.3528 149.608 22.3547 149.724 22.3796 149.835C22.4046 149.946 22.452 150.051 22.519 150.144C22.739 150.394 25.224 150.226 25.314 149.831C25.404 149.436 22.4615 149.194 22.374 149.496Z" fill="#FBC6B6"/>
<path d="M22.7512 150.36C22.7473 150.518 22.7899 150.674 22.8737 150.808C22.9987 150.943 24.8337 150.755 25.0162 150.365C25.1987 149.975 22.9662 149.955 22.7512 150.36Z" fill="#FBC6B6"/>
<path d="M28.9768 171.953C28.4845 173.729 27.9004 175.478 27.2268 177.194C26.6518 178.559 26.5042 179.93 26.1217 180.604C25.1567 182.327 23.5817 182.395 22.3292 181.35C21.0767 180.305 22.7567 175.948 22.7567 175.948L26.7093 170.414L28.9768 171.953Z" fill="#FBC6B6"/>
<path d="M26.1138 180.604C26.4538 179.997 26.6138 178.863 27.0438 177.649C26.4388 178 25.4238 178.261 24.8738 178.114C22.8513 177.577 22.7488 175.958 22.7488 175.958C22.7488 175.958 20.6413 180.435 21.8913 181.47C22.2091 181.735 22.5829 181.925 22.985 182.026C23.387 182.127 23.8068 182.136 24.2129 182.053C24.619 181.969 25.001 181.796 25.3301 181.545C25.6593 181.294 25.9272 180.973 26.1138 180.604Z" fill="#6E62DB"/>
<path d="M33.0188 141.611L36.2539 158.278L34.3064 158.161L33.7438 158.121L30.3613 141.541L33.0188 141.611Z" fill="#F77A55"/>
<path d="M44.2939 174.829C45.4014 176.858 47.6114 177.174 49.5989 177.008C51.7989 176.824 54.2189 175.627 54.8689 173.115C55.5639 170.434 54.6514 167.113 53.0489 165.009C44.8539 154.234 44.7989 153.172 41.5289 151.741C38.0063 150.197 24.9263 172.428 24.9263 172.428L28.5163 174.257C28.5163 174.257 33.9063 169.779 37.3488 165.847C37.7538 165.384 38.9038 162.994 38.9038 162.994C38.9038 162.994 43.5614 173.488 44.2939 174.829Z" fill="#E0DEF7"/>
<path d="M44.4067 110.032C40.9442 110.554 39.8592 115.054 42.7042 117.108C43.2106 117.484 43.5653 118.027 43.7042 118.64L44.2042 120.747C44.2701 121.027 44.4394 121.272 44.6784 121.433C44.9174 121.594 45.2086 121.66 45.4942 121.618L46.8067 121.419C47.0923 121.376 47.3513 121.228 47.532 121.004C47.7127 120.78 47.8019 120.496 47.7817 120.21C47.6267 118.038 47.4142 117.25 48.1342 116.292C50.2518 113.491 47.8792 109.512 44.4067 110.032Z" fill="#E0DEF7"/>
<path d="M45.1714 119.972C45.0882 119.983 45.0039 119.961 44.9369 119.911C44.8699 119.86 44.8257 119.786 44.8139 119.703L44.1564 115.104L43.0764 114.184C43.041 114.158 43.0114 114.125 42.9893 114.087C42.9673 114.049 42.9534 114.007 42.9484 113.963C42.9434 113.92 42.9474 113.876 42.9603 113.834C42.9732 113.792 42.9946 113.754 43.0231 113.72C43.0517 113.687 43.0869 113.66 43.1265 113.641C43.166 113.622 43.2091 113.611 43.253 113.609C43.297 113.607 43.3408 113.615 43.3818 113.63C43.4229 113.646 43.4602 113.67 43.4914 113.701L44.7414 114.778L45.4214 119.608C45.4354 119.689 45.4171 119.773 45.3704 119.84C45.3238 119.908 45.2524 119.955 45.1714 119.972Z" fill="#BAB4EE"/>
<path d="M46.7766 119.926C46.8575 119.909 46.9285 119.861 46.9751 119.793C47.0216 119.725 47.04 119.642 47.0266 119.561L46.2766 114.984L47.0266 113.785C47.0529 113.75 47.0716 113.71 47.0815 113.667C47.0914 113.625 47.0923 113.58 47.0842 113.537C47.0761 113.494 47.0591 113.453 47.0343 113.417C47.0096 113.38 46.9775 113.35 46.9402 113.326C46.9029 113.303 46.8611 113.287 46.8175 113.281C46.7739 113.274 46.7294 113.277 46.6869 113.288C46.6443 113.3 46.6045 113.32 46.5701 113.347C46.5356 113.374 46.5072 113.408 46.4866 113.447L45.5991 114.85L46.3841 119.663C46.3909 119.707 46.4066 119.748 46.4304 119.786C46.4542 119.823 46.4856 119.855 46.5224 119.88C46.5593 119.905 46.6009 119.922 46.6447 119.93C46.6884 119.938 46.7333 119.937 46.7766 119.926Z" fill="#BAB4EE"/>
<path d="M43.7041 118.586L43.7191 118.638L44.2191 120.745C44.285 121.025 44.4542 121.269 44.6932 121.431C44.9323 121.592 45.2235 121.658 45.5091 121.615L46.8216 121.416C47.1072 121.374 47.3662 121.226 47.5469 121.002C47.7276 120.778 47.8168 120.494 47.7966 120.208C47.7291 119.24 47.6466 118.549 47.6441 117.994L43.7041 118.586Z" fill="#4838D1"/>
<path d="M43.7618 76.5007L42.3918 74.5257H39.9768C39.9159 74.5238 39.8568 74.5051 39.8059 74.4718C39.755 74.4385 39.7144 74.3919 39.6885 74.3371C39.6626 74.2822 39.6525 74.2213 39.6593 74.1611C39.666 74.1009 39.6894 74.0437 39.7268 73.9959L41.1893 72.0856L40.4393 69.8047C40.4196 69.7462 40.4169 69.6834 40.4315 69.6234C40.4461 69.5634 40.4774 69.5088 40.5217 69.4657C40.5661 69.4226 40.6218 69.3928 40.6823 69.3797C40.7429 69.3667 40.806 69.3708 40.8643 69.3918L43.1393 70.1852L45.0893 68.7699C45.1393 68.7339 45.1985 68.7124 45.2601 68.7079C45.3217 68.7034 45.3833 68.7161 45.4381 68.7445C45.4928 68.7729 45.5386 68.8159 45.5701 68.8688C45.6017 68.9216 45.6179 68.9821 45.6168 69.0435L45.5593 71.4438L47.5143 72.8517C47.5647 72.8874 47.6039 72.9364 47.6276 72.9932C47.6513 73.05 47.6584 73.1123 47.6482 73.173C47.6381 73.2337 47.611 73.2903 47.5701 73.3364C47.5292 73.3825 47.4761 73.4162 47.4168 73.4337L45.1043 74.1227L44.3543 76.4086C44.3363 76.4684 44.3016 76.5218 44.2543 76.5627C44.2071 76.6037 44.1491 76.6306 44.0872 76.6402C44.0252 76.6498 43.9618 76.6418 43.9042 76.6171C43.8467 76.5924 43.7973 76.5521 43.7618 76.5007Z" fill="#F77A55"/>
<path d="M170.842 80.0798L169.842 78.6296H168.07C168.025 78.6275 167.982 78.6137 167.945 78.5896C167.908 78.5655 167.878 78.5319 167.858 78.4924C167.838 78.4529 167.829 78.4088 167.832 78.3648C167.835 78.3207 167.85 78.2782 167.875 78.2416L168.95 76.8386L168.397 75.162C168.385 75.1193 168.386 75.0742 168.397 75.0315C168.409 74.9888 168.432 74.9499 168.464 74.919C168.496 74.8881 168.535 74.8661 168.578 74.8555C168.622 74.8449 168.667 74.8459 168.71 74.8585L170.382 75.4431L171.815 74.4033C171.852 74.3789 171.895 74.3649 171.94 74.3626C171.984 74.3604 172.028 74.37 172.068 74.3906C172.107 74.4111 172.141 74.4419 172.164 74.4795C172.188 74.5172 172.201 74.5605 172.202 74.6048L172.16 76.3685L173.597 77.4008C173.632 77.4285 173.658 77.4649 173.674 77.5062C173.69 77.5476 173.694 77.5923 173.687 77.6358C173.679 77.6794 173.66 77.7203 173.632 77.7541C173.603 77.788 173.566 77.8137 173.525 77.8287L171.825 78.3262L171.282 80.0027C171.269 80.0469 171.243 80.0865 171.209 80.1172C171.174 80.1478 171.132 80.1683 171.086 80.1763C171.04 80.1843 170.993 80.1795 170.95 80.1625C170.907 80.1454 170.87 80.1168 170.842 80.0798Z" fill="#F77A55"/>
<path d="M142.59 58.7586L140.36 58.3855L139.054 60.2758L136.584 59.6814L135.819 62.1213L132.997 61.5716L132.012 63.7305L129.212 63.6459L129.244 62.5889L131.339 62.6535L132.377 60.3753L135.089 60.905L135.869 58.4253L138.594 59.0795L139.869 57.234L141.934 57.5797L142.517 56.1943L143.497 56.6022L142.59 58.7586Z" fill="#F77A55"/>
<path d="M79.3193 65.6334L77.6868 66.1308L76.5918 63.6063L74.1143 64.0416L72.9843 62.2881L72.0918 62.8576L73.6043 65.2056L75.9493 64.7927L77.0918 67.4167L79.5468 66.6681L79.3193 65.6334Z" fill="#4838D1"/>
<path d="M31.2663 92.3721L28.8213 93.8496L31.3563 105.175C31.4074 105.401 31.512 105.613 31.6615 105.792C31.8109 105.97 32.001 106.111 32.216 106.202C32.4309 106.293 32.6646 106.332 32.8976 106.316C33.1307 106.299 33.3565 106.228 33.5563 106.107C33.8211 105.948 34.0284 105.708 34.1483 105.424C34.2682 105.14 34.2946 104.825 34.2238 104.525L33.6063 101.866L36.1688 100.317L38.2889 102.08C38.5243 102.277 38.8158 102.394 39.1221 102.417C39.4284 102.44 39.7342 102.366 39.9964 102.207L40.0439 102.18C40.2432 102.059 40.4107 101.892 40.5325 101.693C40.6543 101.495 40.7268 101.27 40.7442 101.039C40.7615 100.807 40.7232 100.574 40.6322 100.36C40.5413 100.146 40.4005 99.9562 40.2214 99.8068L31.2663 92.3721ZM32.9063 99.185L32.4388 97.1031L34.0838 98.4711L32.9063 99.185Z" fill="#F77A55"/>
<path d="M178.632 103.085C178.757 102.764 178.712 101.618 180.317 100.513C180.977 100.063 181.517 99.6801 181.665 99.1578C181.915 98.2524 180.96 97.8171 180.007 97.8221C179.77 97.8222 179.542 97.7303 179.372 97.5659C179.201 97.4016 179.102 97.1776 179.095 96.9416C179.087 96.7024 179.175 96.4698 179.338 96.2939C179.501 96.1181 179.727 96.013 179.967 96.0014C180.597 95.9737 181.228 96.0459 181.835 96.2153C183.88 96.7799 184.495 98.1629 184.14 99.4488C183.813 100.62 182.867 101.19 182.097 101.687C180.802 102.508 180.805 103.429 180.692 103.677L178.632 103.085ZM177.632 105.102C177.713 104.831 177.872 104.59 178.09 104.408C178.308 104.227 178.575 104.114 178.858 104.083C179.14 104.053 179.426 104.106 179.678 104.237C179.93 104.367 180.138 104.569 180.275 104.816C180.412 105.064 180.472 105.347 180.449 105.628C180.425 105.91 180.317 106.179 180.14 106.4C179.964 106.621 179.725 106.785 179.454 106.872C179.184 106.958 178.893 106.963 178.62 106.886C178.434 106.839 178.259 106.755 178.107 106.639C177.955 106.522 177.829 106.375 177.736 106.208C177.644 106.041 177.587 105.856 177.57 105.666C177.552 105.475 177.574 105.284 177.635 105.102H177.632Z" fill="#6E62DB"/>
<path d="M110.292 44.1855C107.107 44.1855 105.515 48.0857 107.792 50.3194C108.199 50.725 108.446 51.2626 108.487 51.8342L108.645 53.7942C108.665 54.0551 108.784 54.2985 108.978 54.476C109.171 54.6535 109.424 54.752 109.687 54.7518H110.907C111.17 54.7514 111.423 54.6526 111.615 54.4752C111.808 54.2977 111.926 54.0546 111.947 53.7942C112.107 51.8217 112.022 51.083 112.8 50.3119C115.07 48.0857 113.48 44.1855 110.292 44.1855Z" fill="#E0DEF7"/>
<path d="M109.614 53.227C109.576 53.2267 109.539 53.2189 109.504 53.2041C109.469 53.1893 109.437 53.1678 109.41 53.1407C109.383 53.1137 109.362 53.0817 109.348 53.0466C109.334 53.0114 109.327 52.9739 109.327 52.936L109.374 48.7072L108.527 47.7321C108.479 47.6737 108.457 47.5993 108.464 47.5245C108.47 47.4498 108.506 47.3806 108.564 47.3318C108.621 47.2829 108.695 47.2581 108.77 47.2628C108.846 47.2674 108.916 47.301 108.967 47.3565L109.967 48.4958L109.917 52.931C109.918 52.9705 109.91 53.0097 109.895 53.0463C109.88 53.0828 109.858 53.116 109.829 53.1436C109.801 53.1713 109.768 53.193 109.731 53.2073C109.694 53.2217 109.654 53.2284 109.614 53.227Z" fill="#E0DEF7"/>
<path d="M111.064 53.4038C111.103 53.4038 111.14 53.3962 111.176 53.3815C111.211 53.3668 111.243 53.3453 111.269 53.3183C111.296 53.2912 111.317 53.259 111.331 53.2237C111.346 53.1885 111.353 53.1507 111.352 53.1128L111.304 48.8844L112.152 47.9094C112.202 47.8513 112.227 47.7758 112.222 47.6993C112.216 47.6228 112.18 47.5516 112.122 47.5015C112.064 47.4513 111.988 47.4263 111.911 47.4319C111.834 47.4375 111.762 47.4733 111.712 47.5313L110.712 48.673L110.762 53.1078C110.761 53.1473 110.769 53.1865 110.784 53.223C110.799 53.2596 110.821 53.2927 110.849 53.3204C110.878 53.3481 110.911 53.3698 110.948 53.3841C110.985 53.3984 111.025 53.4051 111.064 53.4038Z" fill="#E0DEF7"/>
<path d="M108.482 51.7842V51.8339L108.639 53.7953C108.66 54.0563 108.779 54.2999 108.972 54.4776C109.166 54.6552 109.419 54.7537 109.682 54.7535H110.907C111.17 54.7531 111.422 54.6543 111.615 54.4767C111.808 54.2992 111.926 54.0559 111.947 53.7953C112.019 52.9167 112.042 52.2845 112.112 51.7842H108.482Z" fill="#6E62DB"/>
<path d="M116.422 38.8179L113.669 43.4637L118.337 40.0092L116.422 38.8179Z" fill="#E0DEF7"/>
<path d="M105.227 37.6215L108.042 42.3925L107.562 36.9126L105.227 37.6215Z" fill="#E0DEF7"/>
<path d="M100.329 44.4521L104.809 46.2122L100.237 46.4872L100.329 44.4521Z" fill="#E0DEF7"/>
<path d="M114.147 50.7295L115.944 53.0045L117.26 51.447L114.147 50.7295Z" fill="#E0DEF7"/>
<path d="M115.944 46.5691L120.014 44.8916L120.134 46.6891L115.944 46.5691Z" fill="#E0DEF7"/>
<path d="M105.287 51.0879L101.457 52.8738L102.655 54.304L105.287 51.0879Z" fill="#E0DEF7"/>
<path d="M59.829 75.21C60.8368 75.3366 61.8326 75.5445 62.8065 75.8318C64.184 76.2248 64.9891 76.5979 65.5941 77.2297C65.9053 77.5127 66.1304 77.8771 66.2435 78.2813C66.3567 78.6855 66.3534 79.1132 66.2341 79.5156C65.9841 80.4011 65.2341 81.0776 63.9841 81.1696V81.1995C65.0366 81.8337 65.6341 82.9406 65.2666 84.2092C65.1517 84.6169 64.9436 84.9926 64.6587 85.3072C64.3738 85.6217 64.0197 85.8665 63.624 86.0224C62.734 86.3905 61.4265 86.3706 59.4415 85.806C58.6227 85.581 57.8208 85.2992 57.0415 84.9628L59.829 75.21ZM60.974 79.6474L61.724 79.8563C62.9091 80.1946 63.6866 79.8886 63.8966 79.1524C64.1066 78.4161 63.6466 77.8391 62.629 77.5481C62.3086 77.4511 61.9809 77.3796 61.649 77.3342L60.974 79.6474ZM59.709 84.0525C59.9918 84.1617 60.2806 84.2547 60.574 84.331C61.5965 84.6196 62.609 84.4952 62.909 83.448C63.1966 82.4531 62.409 81.7915 61.284 81.4582L60.514 81.2393L59.709 84.0525Z" fill="#6E62DB"/>
<path d="M156.48 79.5053C156.542 79.7714 156.497 80.0513 156.353 80.2841C156.209 80.517 155.979 80.684 155.712 80.749C155.078 80.8939 154.432 80.9772 153.782 80.9977C149.85 81.1295 147.742 78.7591 147.632 75.5255C147.5 71.6627 150.197 69.4191 153.632 69.3072C154.224 69.2845 154.818 69.322 155.402 69.4191C155.541 69.4434 155.673 69.4952 155.79 69.5716C155.908 69.6479 156.009 69.7471 156.087 69.8633C156.166 69.9795 156.22 70.1102 156.246 70.2476C156.272 70.385 156.27 70.5262 156.24 70.6628V70.7001C156.182 70.961 156.026 71.1898 155.804 71.339C155.581 71.4882 155.309 71.5462 155.045 71.501C154.643 71.4301 154.235 71.4017 153.827 71.4164C151.785 71.4861 150.24 72.7646 150.327 75.2843C150.405 77.5527 151.805 78.9332 154.1 78.8561C154.487 78.8419 154.873 78.7936 155.252 78.7118C155.52 78.6563 155.799 78.7079 156.029 78.8555C156.258 79.0031 156.42 79.2347 156.48 79.5003V79.5053Z" fill="#4838D1"/>
<path d="M28.9065 132.199C28.7777 131.803 28.8103 131.373 28.9974 131.001C29.1844 130.628 29.5109 130.344 29.9065 130.209C30.7565 129.928 31.5315 130.343 31.854 131.187C31.9361 131.378 31.9771 131.583 31.9747 131.791C31.9722 131.999 31.9262 132.203 31.8396 132.392C31.753 132.581 31.6277 132.75 31.4718 132.888C31.3159 133.026 31.1327 133.13 30.934 133.194C30.7361 133.273 30.5237 133.309 30.3106 133.301C30.0976 133.293 29.8887 133.24 29.6974 133.146C29.5062 133.052 29.337 132.919 29.2007 132.756C29.0645 132.593 28.9642 132.403 28.9065 132.199ZM28.629 129.744L25.979 123.448C25.9285 123.325 25.9034 123.192 25.9054 123.059C25.9073 122.926 25.9362 122.794 25.9903 122.672C26.0444 122.55 26.1227 122.44 26.2204 122.349C26.318 122.257 26.4332 122.186 26.559 122.14L27.204 121.909C27.3305 121.865 27.4645 121.846 27.5983 121.855C27.732 121.863 27.8628 121.898 27.9826 121.958C28.1025 122.017 28.2091 122.1 28.2961 122.202C28.3831 122.303 28.4487 122.421 28.489 122.548L30.489 129.075L28.629 129.744Z" fill="#291F85"/>
<path d="M149.282 124.031C149.282 124.031 156.11 126.99 156.712 127.122C157.09 127.204 161.427 122.73 163.792 120.984C163.902 120.901 164.322 120.307 164.44 120.237C165.85 119.533 163.47 123.588 163.47 123.588C163.47 123.588 158.435 129.955 157.297 130.5C155.867 131.186 148.797 127.709 148.84 127.515L149.282 124.031Z" fill="#F77A55"/>
<path d="M148.197 117.673C148.492 115.683 149.89 111.41 148.6 109.714C146.79 107.319 142.962 107.423 141.152 109.714C140.325 110.771 139.875 112.064 139.44 113.33C139.176 114.156 138.854 114.961 138.475 115.741C138.117 116.43 137.725 117.29 137.035 117.711C134.035 119.571 130.665 120.772 130.447 124.968C130.197 129.943 135.67 136.161 142.397 133.156C144.972 132.002 148.345 128.271 149.447 125.695C149.947 124.533 149.697 124.655 149.432 122.882C149.187 121.292 147.962 119.285 148.197 117.673Z" fill="#291F85"/>
<path d="M144.537 120.65L153.677 125.652L151.522 128.908C151.522 128.908 144.642 126.299 143.25 125.923C141.857 125.548 142.955 120.513 144.537 120.65Z" fill="#6E62DB"/>
<path d="M144.382 116.31C144.382 116.31 144.132 119.772 143.967 120.742C143.802 121.712 143.672 125.923 145.767 126.433C147.862 126.943 147.077 121.287 147.112 120.272C147.147 119.258 147.362 115.964 147.362 115.964L144.382 116.31Z" fill="#FBC6B6"/>
<path d="M144.352 116.729C144.518 116.972 144.709 117.197 144.922 117.399C145.695 118.129 146.49 118.364 147.215 118.269C147.282 117.117 147.352 115.964 147.352 115.964L144.382 116.312C144.382 116.312 144.37 116.469 144.352 116.729Z" fill="#F45424"/>
<path d="M146.547 109.682C145.697 109.752 144.899 110.122 144.297 110.724C143.322 111.719 142.157 114.999 144.337 117.049C146.517 119.098 148.677 117.337 149.127 115.171C149.577 113.005 149.872 109.918 146.547 109.682Z" fill="#FBC6B6"/>
<path d="M147.745 109.783C147.745 109.783 146.414 113.198 143.272 112.91C141.849 112.778 141.522 114.713 141.522 114.713C141.522 114.713 142.687 110.121 144.147 109.44C145.607 108.758 147.745 109.783 147.745 109.783Z" fill="#291F85"/>
<path d="M143.677 113.741C143.749 114.343 143.477 114.871 143.069 114.918C142.662 114.966 142.274 114.518 142.204 113.918C142.134 113.318 142.404 112.788 142.812 112.741C143.219 112.693 143.604 113.138 143.677 113.741Z" fill="#FBC6B6"/>
<path d="M167.03 114.855L159.28 130.585C159.095 130.96 159.152 131.396 159.405 131.545L165.057 134.838L172.122 120.909L167.907 114.606C167.687 114.28 167.25 114.412 167.03 114.855Z" fill="#F9A085"/>
<path d="M160.285 130.07L167.017 116.389C167.237 115.942 167.677 115.812 167.89 116.141C168.83 117.536 170.247 119.645 171.265 121.163L164.925 133.674L160.407 131.022C160.157 130.88 160.1 130.445 160.285 130.07Z" fill="#E0DEF7"/>
<path d="M163.962 119.949C164.122 119.745 164.328 119.58 164.562 119.469C164.89 119.382 165.285 119.397 165.35 119.607C165.445 119.912 164.48 120.252 164.48 120.252L163.955 121.002C163.955 121.002 163.71 120.392 163.962 119.949Z" fill="#F77A55"/>
<path d="M144.117 119.81C144.117 119.81 146.5 121.767 147.182 122.446C147.768 122.986 148.392 123.485 149.047 123.939L147.122 121.287L145.902 120.155L144.117 119.81Z" fill="#FBC6B6"/>
<path d="M173.687 151.184C173.317 150.879 172.98 150.005 172.845 149.622C172.042 145.501 168.257 134.351 164.135 134.351C160.542 134.351 149.447 143.006 144.26 148.008C142.76 149.453 142.862 148.227 143.78 148.565C144.33 148.767 148.03 154.895 148.625 154.923C150.437 155.005 152.125 153.799 153.625 152.958C155.743 151.842 157.547 150.217 158.875 148.232C162.267 143.19 163.54 140.226 164.562 138.283C164.562 138.283 165.527 142.263 166 143.208C167.067 145.369 170.25 150.689 171.5 152.764L176.395 152.632C176.395 152.632 174.157 151.582 173.687 151.184Z" fill="#F77A55"/>
<path d="M164.455 136.653C164.455 136.653 148.01 144.277 146.972 146.896C145.935 149.515 146.722 153.408 149.127 154.204C151.532 155 166.377 142.369 166.377 142.369C166.377 142.369 168.292 145.864 171.007 148.247C172.452 149.518 174.9 150.553 176.295 151.48C177.517 152.296 177.795 153.09 177.795 153.09L181.227 153.249C181.227 153.249 180.647 153.05 179.61 151.66C176.095 146.963 167.965 136.039 164.455 136.653Z" fill="#FBC6B6"/>
<path d="M158.107 135.699C158.107 135.699 163.39 141.365 164.427 148.829C164.427 148.829 156.152 152.376 152.082 154.52C148.012 156.664 143.46 154.443 142.025 152.06C140.589 149.677 142.025 142.967 142.025 142.967L150.485 141.656L158.107 135.699Z" fill="#291F85"/>
<path d="M170.64 151.358C170.22 151.197 170.072 153.315 170.002 153.788C169.971 153.952 169.978 154.122 170.021 154.284C170.064 154.445 170.143 154.596 170.252 154.723C170.427 154.842 177.207 154.972 178.502 154.631C178.61 154.591 178.712 154.536 178.805 154.469C179.757 153.644 175.352 151.45 174.462 151.634C173.657 151.799 172.532 152.075 170.64 151.358Z" fill="#4838D1"/>
<path d="M143.98 120.731C143.98 120.731 142.69 120.731 141.31 123.676C139.615 127.31 142.035 141.173 141.857 143.153C141.857 143.153 142.457 143.837 145.937 144.337C146.824 144.47 147.73 144.38 148.573 144.076C149.416 143.772 150.169 143.263 150.765 142.596C150.765 142.596 149.98 137.244 151.17 132.207C151.812 129.471 152.152 126.832 149.607 124.377C147.965 122.838 146.059 121.603 143.98 120.731Z" fill="#4838D1"/>
<path d="M176.332 151.488C175.912 151.329 175.55 153.369 175.582 153.869C175.579 154.206 175.659 154.54 175.817 154.839C175.992 154.958 182.78 155.058 184.067 154.712C184.174 154.671 184.276 154.616 184.37 154.55C185.322 153.724 180.422 151.655 179.535 151.839C178.752 152.003 178.225 152.207 176.332 151.488Z" fill="#6E62DB"/>
<path d="M171.795 114.206L158.969 132.786C158.674 133.214 158.744 133.736 159.114 133.873L167.79 137.089L178.04 122.459L172.92 114.022C172.697 113.641 172.12 113.736 171.795 114.206Z" fill="#F77A55"/>
<path d="M168.745 128.286C168.58 127.968 167.245 128.672 167.245 128.672C166.825 128.752 166.401 128.806 165.975 128.833C165.88 128.784 166.77 128.709 166.77 128.709C166.77 128.709 168.227 128.212 168.21 128.05C168.145 127.383 167.232 128.214 166.517 128.244C165.961 128.269 165.404 128.244 164.852 128.169C164.642 128.052 165.177 127.791 165.177 127.791C165.177 127.791 165.877 127.478 165.765 127.294C165.495 126.848 163.855 127.694 163.515 128.008C163.285 128.219 162.997 128.627 162.595 128.853C160.845 129.848 158.747 131.527 156.272 132.714C155.452 132.03 147.544 124.966 147.344 124.794L143.024 128.179C143.024 128.179 155.417 137.569 156.105 137.546C156.97 137.519 162.127 132.102 163.525 130.811C163.735 130.617 165.062 130.47 165.425 130.52C166.235 130.632 167.755 130 167.755 130C168.222 129.502 166.03 130 166.237 129.878C166.62 129.788 167.008 129.724 167.4 129.689C167.942 129.612 168.435 129.303 168.502 129.154C168.63 128.866 167.28 129.281 167.28 129.281L166.152 129.351L167.23 129.132C167.23 129.132 168.907 128.602 168.745 128.286Z" fill="#FBC6B6"/>
<path d="M146.13 122.657C144.735 121.234 142.05 121.443 141.265 123.47C141.047 124.034 141.057 125.653 141.305 126.25C142.305 128.633 148.09 132.522 148.09 132.522L151.282 128.195L146.13 122.657Z" fill="#6E62DB"/>
<path d="M88.7393 81.2592C88.7393 81.0777 88.9668 79.8987 88.9668 79.8987C88.9668 79.8987 88.4393 78.2297 88.3868 78.2273C87.3018 78.1502 86.4843 78.8814 86.6693 79.8663V79.8987C86.9437 80.7731 87.4541 81.5558 88.1449 82.1615C88.8357 82.7672 89.6804 83.1726 90.5868 83.3336L91.9093 83.5674C91.6855 82.8565 91.5709 82.1161 91.5693 81.3711C89.9968 81.3587 88.7393 81.3264 88.7393 81.2592Z" fill="#FBC6B6"/>
<path d="M107.062 73.8945C107.032 73.805 97.5368 79.9511 97.5368 79.9511C97.5368 79.9511 93.4843 79.9909 90.4893 79.9511C90.4913 80.8415 90.6183 81.7273 90.8668 82.5827C93.8243 83.1398 97.1943 83.7293 97.9618 83.6696C99.3918 83.5602 106.557 80.0034 106.557 80.0034C106.557 80.0034 107.084 73.9617 107.062 73.8945Z" fill="#291F85"/>
<path d="M107.169 96.8393C107.149 96.6851 105.142 89.8401 104.934 83.7088C104.772 78.9531 106.249 74.6924 107.009 73.9138C107.289 73.6228 109.897 73.001 109.897 73.001L108.947 74.568C107.982 76.3788 107.719 77.9856 107.302 80.0401C106.087 85.9673 111.552 97.8318 111.267 97.9064C110.982 97.981 107.247 97.4437 107.169 96.8393Z" fill="#4838D1"/>
<path d="M86.3594 72.9111L84.6919 73.9932L89.6744 82.3361L91.2419 75.5628L86.3594 72.9111Z" fill="#E0DEF7"/>
<path d="M87.3892 71.5977L89.4817 78.5228L91.1617 75.5329L87.3892 71.5977Z" fill="#E0DEF7"/>
<path d="M101.222 70.7998L102.832 76.6152L90.9619 75.5432L101.222 70.7998Z" fill="#E0DEF7"/>
<path d="M94.4496 95.4015C94.4496 95.4015 89.4071 101.533 89.3921 102.418C89.3721 103.702 83.4096 103.348 84.7046 102.801C85.0021 102.674 85.9421 102.202 86.0121 102.14C86.3971 101.809 90.3721 94.0684 90.3721 94.0684L94.4496 95.4015Z" fill="#FBC6B6"/>
<path d="M82.0766 103.39L85.9116 102.204C85.9116 102.204 87.2366 102.873 89.3916 102.438C89.7575 103.075 89.981 103.784 90.0466 104.515C90.0641 104.716 90.1641 105.318 89.9616 105.35C89.2291 105.462 87.1991 105.415 84.9091 105.467C84.9091 105.467 81.8266 105.502 79.9091 104.868C77.9916 104.234 82.0766 103.39 82.0766 103.39Z" fill="#291F85"/>
<path d="M118.875 96.8641C115.729 96.0438 112.756 94.6726 110.094 92.8148C105.187 89.3326 99.6644 85.6887 97.4844 85.9847C95.7344 86.2334 85.5093 100.2 85.5093 100.2L90.4593 102.344L99.4069 93.2152C99.4069 93.2152 108.539 102.582 111.539 103.222C118.365 104.674 120.55 99.6598 118.875 96.8641Z" fill="#F9A085"/>
<path d="M84.4594 73.9958L91.342 88.5022C91.3571 88.5348 91.3796 88.5635 91.4079 88.5859C91.4361 88.6084 91.4691 88.624 91.5045 88.6315L96.0995 89.905L90.227 75.533L84.7519 73.6675C84.7079 73.657 84.6618 73.6586 84.6186 73.6722C84.5754 73.6857 84.5368 73.7107 84.5068 73.7444C84.4767 73.7781 84.4565 73.8193 84.4481 73.8636C84.4398 73.9078 84.4437 73.9535 84.4594 73.9958Z" fill="#BAB4EE"/>
<path d="M107.882 60.289C107.882 60.289 109.152 58.5654 110.572 60.289C110.814 60.1156 111.114 60.04 111.41 60.0774C111.707 60.1148 111.978 60.2623 112.169 60.4904C112.169 60.4904 113.749 59.7916 114.462 62.1866C114.462 62.1866 115.287 61.9205 115.524 62.9053C115.671 63.4818 115.606 64.0915 115.339 64.6239C115.339 64.6239 115.859 64.9174 115.759 65.8674C115.747 66.0838 115.673 66.2922 115.546 66.4684C115.419 66.6445 115.244 66.7811 115.042 66.8622C115.042 66.8622 115.042 68.2027 114.509 68.6703C113.977 69.1379 113.179 69.0483 113.179 69.0483C113.179 69.0483 113.064 69.7945 112.387 69.8094C111.709 69.8243 110.797 69.312 110.084 69.6801C109.372 70.0481 107.387 70.0058 107.387 70.0058C107.387 70.0058 105.077 69.312 105.447 67.0065C105.447 67.0065 104.167 66.1211 105.014 64.7557C105.014 64.7557 104.034 62.9128 105.339 61.5872C106.644 60.2616 107.882 60.289 107.882 60.289Z" fill="#1C155B"/>
<path d="M100.877 114.892C100.877 114.892 101.154 122.436 101.329 123.715C101.504 124.993 98.1094 128.819 98.5444 127.486C98.6444 127.18 98.8994 126.165 98.8994 126.071C98.8994 125.573 97.6494 116.957 97.6494 116.957L100.877 114.892Z" fill="#FBC6B6"/>
<path d="M97.2644 129.843L98.8794 126.184C98.8794 126.184 100.257 125.63 101.339 123.725C102.061 123.869 102.743 124.166 103.339 124.595C103.504 124.715 104.027 125.033 103.917 125.207C103.522 125.831 102.167 127.324 100.692 129.077C100.692 129.077 98.6919 131.415 96.9419 132.45C95.1919 133.484 97.2644 129.843 97.2644 129.843Z" fill="#291F85"/>
<path d="M97.5646 122.754C97.9171 122.396 93.9745 103.105 95.8871 101.232C97.7996 99.359 110.575 96.6279 110.575 96.6279L112.25 90.7505C112.25 90.7505 117.592 92.3075 119.75 95.5161C120.932 97.2572 119.722 101.267 119.5 101.709C117.675 105.49 113.167 105.689 109.887 105.647C106.87 105.617 101.512 105.575 101.512 105.575L101.5 122.635C100.728 122.817 99.9377 122.911 99.1446 122.914C97.7396 122.859 97.5646 122.754 97.5646 122.754Z" fill="#F77A55"/>
<path d="M109.407 73.4142L112.865 72.1705C112.91 72.1731 112.956 72.1731 113.002 72.1705C113.372 72.1233 117.455 85.4128 118.787 90.4396C120.12 95.4664 118.375 94.5138 118.375 94.5138C118.375 94.5138 115.322 96.4066 111.772 96.541C108.08 96.6778 108.817 92.2529 108.817 92.2529C108.817 92.2529 106.875 83.0076 107.102 79.8637C107.33 76.7198 109.407 73.4142 109.407 73.4142Z" fill="white"/>
<path d="M109.462 70.7101L109.447 72.4038V72.7048C109.447 72.7048 109.212 75.6049 110.047 76.0551C110.882 76.5052 112.867 72.1775 112.867 72.1775L111.967 67.2578L109.462 70.7101Z" fill="#FBC6B6"/>
<path d="M112.257 68.857C111.839 70.6304 110.467 71.864 109.447 72.4012L109.462 70.71L111.962 67.2578L112.257 68.857Z" fill="#F45424"/>
<path d="M109.532 62.2583C109.152 62.182 108.759 62.1893 108.382 62.2799C108.005 62.3705 107.652 62.5422 107.349 62.7828C107.046 63.0234 106.799 63.3272 106.626 63.6727C106.454 64.0183 106.359 64.3973 106.349 64.7831C106.33 65.6319 106.366 66.4811 106.457 67.3254C106.707 69.6213 108.182 71.7008 109.227 71.569C110.272 71.4372 112.977 69.579 112.664 66.3254C112.472 64.308 111.232 62.6215 109.532 62.2583Z" fill="#FBC6B6"/>
<path d="M111.927 66.6836C111.992 67.1836 112.38 67.5611 112.795 67.5086C113.21 67.4561 113.495 67.0086 113.43 66.4936C113.365 65.9786 112.977 65.6161 112.562 65.6686C112.147 65.7211 111.862 66.1761 111.927 66.6836Z" fill="#FBC6B6"/>
<path d="M104.857 61.6911C103.885 62.686 103.672 64.0191 104.38 64.6757C105.087 65.3323 106.45 65.0836 107.42 64.0962C108.39 63.1088 108.605 61.7682 107.897 61.1116C107.19 60.455 105.827 60.7037 104.857 61.6911Z" fill="#1C155B"/>
<path d="M107.769 62.0365C107.817 62.409 108.302 62.6539 108.857 62.5839C109.412 62.5139 109.822 62.154 109.774 61.7839C109.727 61.4139 109.239 61.1665 108.687 61.2365C108.134 61.3065 107.722 61.664 107.769 62.0365Z" fill="#1C155B"/>
<path d="M105.157 65.2606C105.18 65.429 105.253 65.5867 105.366 65.7139C105.478 65.8411 105.626 65.9321 105.79 65.9756C105.955 66.0191 106.128 66.0131 106.289 65.9583C106.45 65.9035 106.591 65.8024 106.695 65.6677C106.798 65.533 106.86 65.3707 106.872 65.2011C106.883 65.0315 106.845 64.8623 106.76 64.7146C106.676 64.567 106.55 64.4475 106.398 64.3712C106.247 64.2948 106.076 64.2651 105.907 64.2856C105.678 64.3161 105.471 64.4358 105.331 64.6185C105.19 64.8012 105.128 65.032 105.157 65.2606Z" fill="#1C155B"/>
<path d="M112.864 72.1781C112.864 72.1781 116.249 71.6309 117.387 72.1134C118.112 72.4194 119.032 78.5281 119.032 78.5281C119.032 78.5281 119.069 84.7064 119.492 86.4475C120.927 92.3548 122.932 97.5258 122.707 97.8168C121.234 99.0231 115.074 100.14 114.604 99.5578C109.434 93.2278 112.864 72.1781 112.864 72.1781Z" fill="#4838D1"/>
<path d="M118.517 78.4409C118.517 78.4409 115.125 88.8698 113.642 89.9616C112.16 91.0535 105.485 80.8236 105.485 80.8236C105.485 80.8236 102.532 79.1547 102.322 79.1373C101.485 79.0676 104.072 78.6398 104.072 78.6398L104.39 75.9785C104.39 75.9785 104.517 75.9984 105.29 76.8615C106.332 78.0305 107.237 79.8461 107.665 80.1471L112.132 83.5148L114.407 76.3019L118.517 78.4409Z" fill="#FBC6B6"/>
<path d="M90.2271 75.5328L91.6296 75.396L97.6471 90.2933L96.0996 89.9028L90.2271 75.5328Z" fill="#6E62DB"/>
<path d="M103.607 71.9019L107.227 89.4426C107.241 89.5107 107.24 89.581 107.223 89.6485C107.207 89.7161 107.176 89.7793 107.133 89.8338C107.09 89.8883 107.035 89.9326 106.973 89.9639C106.91 89.9952 106.842 90.0125 106.772 90.0148L97.6469 90.2933L91.6294 75.3966L102.982 71.5487C103.046 71.5268 103.114 71.5187 103.182 71.525C103.25 71.5313 103.315 71.5519 103.374 71.5852C103.433 71.6186 103.485 71.6641 103.525 71.7187C103.565 71.7733 103.593 71.8357 103.607 71.9019Z" fill="#BAB4EE"/>
<path d="M107.282 79.5128L106.125 82.0349C106.125 82.0349 111.812 91.345 113.567 90.8301C115.322 90.3152 118.637 80.2266 119.155 77.4483C119.672 74.6699 118.597 72.3642 117.155 72.0085C115.712 71.6528 114.6 74.073 114.155 75.1052C113.71 76.1375 112.12 83.5223 112.12 83.5223L107.282 79.5128Z" fill="#6E62DB"/>
<path d="M87.0617 79.6591C86.9515 79.4662 86.8571 79.2647 86.7792 79.0566C86.7117 78.8266 88.1117 78.0341 88.6667 78.3941C89.2217 78.7541 87.7392 79.3091 87.0617 79.6591Z" fill="#FBC6B6"/>
<path d="M87.1195 80.5698C86.9479 80.3948 86.8061 80.193 86.6995 79.9723C86.632 79.7448 88.4946 78.8073 89.0496 79.1698C89.6046 79.5323 87.7995 80.2198 87.1195 80.5698Z" fill="#FBC6B6"/>
<path d="M87.7593 81.2063C87.5877 81.0313 87.4458 80.8295 87.3393 80.6088C87.2718 80.3788 88.6718 79.5838 89.2243 79.9463C89.7768 80.3088 88.4368 80.8538 87.7593 81.2063Z" fill="#FBC6B6"/>
<path d="M104.687 77.0102H104.407C104.269 77.0098 104.132 76.9956 103.997 76.9679C103.46 76.851 101.997 76.5599 101.877 76.851C101.737 77.2092 103.992 77.6271 103.992 77.6271C103.992 77.6271 101.517 77.3087 101.517 77.7266C101.517 78.1445 104.032 78.3609 104.032 78.3609C104.032 78.3609 101.837 78.2813 101.797 78.5201C101.757 78.7589 104.492 79.433 104.492 79.433C104.492 79.433 102.277 78.9554 102.057 79.234C101.837 79.5126 105.53 80.8534 105.53 80.8534L104.687 77.0102Z" fill="#FBC6B6"/>
<path d="M87.7591 81.2022C87.7591 81.2022 88.9691 80.5172 89.2891 80.7322C89.6091 80.9472 88.2516 81.9672 88.2516 81.9672L88.4141 82.3422C88.4141 82.3422 87.5466 81.6722 87.7591 81.2022Z" fill="#FBC6B6"/>
</svg>
