<svg width="24" height="24" viewBox="0 0 24 24" fill="none" xmlns="http://www.w3.org/2000/svg">
<path d="M21.2838 8.27584L15.333 7.411L12.6728 2.01803C12.6002 1.87037 12.4806 1.75084 12.333 1.67818C11.9627 1.49537 11.5127 1.64771 11.3275 2.01803L8.66735 7.411L2.71657 8.27584C2.55251 8.29928 2.40251 8.37662 2.28767 8.49381C2.14883 8.63651 2.07232 8.8285 2.07496 9.02758C2.07759 9.22666 2.15916 9.41655 2.30173 9.55553L6.6072 13.7532L5.59001 19.6805C5.56616 19.8184 5.58141 19.9602 5.63405 20.0899C5.68669 20.2195 5.77461 20.3318 5.88783 20.4141C6.00105 20.4963 6.13504 20.5452 6.27462 20.5551C6.41419 20.5651 6.55377 20.5357 6.67751 20.4704L12.0002 17.6719L17.3228 20.4704C17.4681 20.5477 17.6369 20.5735 17.7986 20.5454C18.2064 20.4751 18.4806 20.0883 18.4103 19.6805L17.3931 13.7532L21.6986 9.55553C21.8158 9.44068 21.8931 9.29068 21.9166 9.12662C21.9799 8.71646 21.6939 8.33678 21.2838 8.27584ZM15.5814 13.1626L16.4275 18.0915L12.0002 15.7665L7.57282 18.0938L8.41892 13.1649L4.83767 9.67271L9.78767 8.95318L12.0002 4.46959L14.2127 8.95318L19.1627 9.67271L15.5814 13.1626Z" fill="#F77A55"/>
</svg>
